<?xml version="1.0" standalone="no"?>
<!DOCTYPE svg PUBLIC "-//W3C//DTD SVG 1.1//EN" "http://www.w3.org/Graphics/SVG/1.1/DTD/svg11.dtd" >
<svg xmlns="http://www.w3.org/2000/svg" xmlns:xlink="http://www.w3.org/1999/xlink" version="1.1">
<metadata>
Created by FontForge 20160405 at Thu Mar  2 06:32:01 2017
 By www-data
Converted by ALLTYPE
</metadata>
<defs>
<font id="ArmyThin" horiz-adv-x="846" >
  <font-face 
    font-family="Army Thin"
    font-weight="5"
    font-stretch="normal"
    units-per-em="1000"
    panose-1="0 0 0 0 0 0 0 0 0 0"
    ascent="800"
    descent="-200"
    x-height="667"
    cap-height="667"
    bbox="-127 -272 943 909"
    underline-thickness="50"
    underline-position="-155"
    unicode-range="U+0020-F002"
  />
<missing-glyph 
 />
    <glyph glyph-name=".notdef" 
 />
    <glyph glyph-name="glyph1" horiz-adv-x="0" 
 />
    <glyph glyph-name="glyph2" horiz-adv-x="278" 
 />
    <glyph glyph-name="space" unicode=" " horiz-adv-x="236" 
 />
    <glyph glyph-name="space" unicode="&#xa0;" horiz-adv-x="236" 
 />
    <glyph glyph-name="exclam" unicode="!" horiz-adv-x="286" 
d="M142 -13q-34 0 -57.5 27t-23.5 66q0 40 23.5 67.5t57.5 27.5t57.5 -27.5t23.5 -67.5q0 -39 -23.5 -66t-57.5 -27v0zM227 561v-5v-4q-1 -21 -5.5 -45.5t-16.5 -65.5q-18 -64 -26 -107.5t-10 -81.5q-1 -20 -6.5 -28.5t-17.5 -8.5q-11 0 -16 7t-7 23q-1 11 -1.5 18.5
t-0.5 13.5q-1 5 -1.5 9t-0.5 7q-1 7 -2 13.5t-3 16.5q-5 26 -12.5 52.5t-15.5 56.5q-6 20 -10.5 34.5t-6.5 24.5q-2 7 -3.5 13.5t-3.5 13.5q-2 12 -3.5 24t-1.5 22q0 50 24.5 82.5t61.5 32.5q38 0 61.5 -33t23.5 -86v1z" />
    <glyph glyph-name="quotedbl" unicode="&#x22;" horiz-adv-x="348" 
d="M135 399h-80l-21 268h121l-20 -268v0zM293 399h-80l-21 268h121l-20 -268v0z" />
    <glyph glyph-name="numbersign" unicode="#" horiz-adv-x="487" 
d="M183 667h74l-31 -160h74l-12 -69h-74l-39 -204h74l-13 -68h-73l-32 -166h-74l32 166h-90l12 68h91l39 204h-92l13 69h91l30 160v0zM361 667h73l-30 -160h91l-13 -69h-91l-39 -204h92l-14 -68h-90l-32 -166h-75l128 667v0z" />
    <glyph glyph-name="dollar" unicode="$" horiz-adv-x="487" 
d="M221 730h34v-63q74 -7 116.5 -44t42.5 -95q0 -33 -17.5 -53.5t-46.5 -20.5q-26 0 -44 20t-18 49q0 6 0.5 10.5t1.5 9.5q2 8 5.5 16t10.5 20l3 12q0 9 -16.5 16.5t-37.5 7.5v-134l-34 22v110q-23 -7 -37 -25.5t-14 -44.5q0 -20 9.5 -37t27.5 -31q4 -3 7.5 -5.5t7.5 -5.5
q11 -8 26.5 -16.5t39.5 -21.5q29 -16 47 -27.5t31 -21.5q8 -6 14 -12.5t12 -14.5l1.5 -1.5l0.5 -0.5q20 -25 31 -61.5t11 -77.5q0 -55 -21 -101t-59 -74q-20 -15 -44 -23.5t-57 -11.5v-73h-34v73q-76 5 -123 46.5t-47 103.5q0 35 20 59.5t48 24.5q27 0 46.5 -23t19.5 -55
q0 -19 -8 -37t-22 -26q-6 -4 -7.5 -6.5t-1.5 -4.5t1.5 -4.5t3.5 -5.5q8 -7 23 -13.5t32 -8.5q4 -1 7.5 -1.5t7.5 -0.5v154l34 -20v-132q32 2 52 24.5t20 54.5q0 20 -7.5 36t-25.5 30q-2 2 -4 3.5t-4 3.5q-1 1 -2 1.5t-2 1.5h-0.5h-0.5q-5 4 -11.5 8t-20.5 13q-8 4 -16 8.5
t-16 8.5q-28 16 -46.5 28t-32.5 24q-8 7 -15 14t-13 15q-21 28 -32.5 63t-11.5 73q0 79 43.5 136t111.5 69v66v0z" />
    <glyph glyph-name="percent" unicode="%" horiz-adv-x="618" 
d="M452 283v-36q-16 -8 -22 -19.5t-6 -32.5v-107q0 -29 6 -42t22 -18v-35h-11q-58 0 -94 39t-36 103q0 65 37 106t95 41l9 1v0zM473 283h8q59 -1 95.5 -42.5t36.5 -106.5q0 -63 -35.5 -102t-93.5 -39h-11v36q16 4 22 17t6 41v109q0 20 -6.5 31.5t-21.5 18.5v37v0zM423 666
h48l-275 -666h-49l276 666v0zM146 673v-37q-16 -8 -22 -19.5t-6 -31.5v-107q0 -29 6 -42t22 -18v-35h-11q-58 -1 -94 38.5t-36 102.5q0 65 37 106.5t95 41.5l9 1v0zM167 673h8q59 -1 95.5 -42.5t36.5 -106.5q0 -63 -35.5 -102.5t-93.5 -39.5l-11 1v36q16 4 22 17t6 41v109
q0 19 -6.5 30.5t-21.5 18.5v38v0z" />
    <glyph glyph-name="ampersand" unicode="&#x26;" horiz-adv-x="591" 
d="M155 368l19 -45q-4 -8 -6.5 -13.5t-3.5 -9.5v-3.5v-3.5v-1.5v-1.5q0 -5 2 -11.5t8 -18.5l75 -164q1 -3 2 -5t2 -3q6 -10 12 -14t15 -4h5h7l22 -44q-26 -20 -55 -29.5t-59 -9.5q-73 0 -125.5 56t-52.5 134q0 42 17 79t51 69q7 7 14 12.5t13 9.5q9 6 18 11t20 9v1zM363 0
l-189 400q-5 10 -9.5 27.5t-7.5 36.5q-2 13 -3.5 25.5t-1.5 22.5q0 69 47 119t113 50h4h3q5 -1 10 -1.5t11 -1.5v-60q-13 -6 -20 -17.5t-7 -27.5q0 -5 1 -11.5t2 -13.5q2 -5 4 -10.5t4 -10.5l201 -440q2 -5 3.5 -8.5t3.5 -6.5q2 -4 5 -7.5t6 -6.5q3 -2 5.5 -4t6.5 -4
q3 -2 5 -4l4 -4q3 -3 4 -7t1 -9q0 -13 -7.5 -19.5t-22.5 -6.5h-176v0zM493 241l-22 47q3 5 5.5 10.5t4.5 11.5q1 5 2 10.5t1 11.5q0 9 -2 18t-5 16l-7 15l-4 15q0 12 14 21.5t33 9.5q14 0 22 -14t8 -41q0 -16 -2 -30.5t-7 -28.5q-6 -17 -16 -34.5t-25 -38.5v1zM376 618v55
q37 -9 60.5 -42t23.5 -77q0 -35 -15 -65.5t-43 -52.5l-19 47q9 8 14.5 15.5t9.5 14.5q4 9 6 17.5t2 18.5q0 24 -9.5 40t-29.5 28v1z" />
    <glyph glyph-name="quotesingle" unicode="'" horiz-adv-x="190" 
d="M135 399h-80l-21 268h121l-20 -268v0z" />
    <glyph glyph-name="parenleft" unicode="(" horiz-adv-x="356" 
d="M78 262q0 31 3 60t10 58q5 24 13.5 48t19.5 50q22 50 46.5 89.5t52.5 70.5q19 20 32.5 31t20.5 11q2 0 4 -1t5 -2q2 -2 4.5 -3.5t3.5 -3.5q2 -2 3 -4l2 -4q1 -3 1.5 -5t0.5 -4q0 -4 -2.5 -11.5t-6.5 -15.5q-24 -52 -38.5 -150.5t-14.5 -214.5t14.5 -213.5t38.5 -149.5
q4 -9 6.5 -16.5t2.5 -11.5q0 -2 -0.5 -4.5t-2.5 -5.5q-1 -2 -2.5 -4.5t-3.5 -4.5q-1 -1 -2.5 -2t-2.5 -2q-3 -2 -5.5 -3t-4.5 -1q-9 0 -27.5 16.5t-38.5 41.5q-10 11 -19 23.5t-17 25.5q-15 23 -29.5 51t-26.5 57q-5 13 -9.5 26t-8.5 25q-1 5 -2.5 9.5t-2.5 8.5
q-9 32 -13 65t-4 69v1z" />
    <glyph glyph-name="parenright" unicode=")" horiz-adv-x="356" 
d="M277 262q0 -32 -3 -61.5t-10 -58.5q-5 -24 -13.5 -48t-19.5 -50q-21 -49 -45.5 -88.5t-53.5 -70.5q-19 -20 -32 -31t-21 -11q-2 0 -4 1l-4 2q-3 2 -5 3.5t-4 3.5q-3 4 -4.5 8.5t-1.5 8.5t2 11.5t6 16.5q24 52 38.5 149.5t14.5 213.5t-14.5 214.5t-38.5 150.5
q-4 8 -6 15.5t-2 11.5q0 2 0.5 4.5t1.5 5.5q1 2 2.5 4.5t3.5 4.5q1 1 2.5 2t2.5 2q3 2 5.5 3t4.5 1q9 0 26.5 -15.5t37.5 -39.5q10 -12 20 -25t18 -27q15 -22 28.5 -49t25.5 -55q6 -14 11 -28t9 -27q3 -9 5.5 -18.5t4.5 -18.5q7 -28 9.5 -56t2.5 -60v1z" />
    <glyph glyph-name="asterisk" unicode="*" horiz-adv-x="487" 
d="M234 477l-8 -116q-1 -20 -10.5 -31t-23.5 -11q-11 0 -25 9t-31 28q-4 4 -7 8t-5 8q-2 5 -3.5 10t-1.5 11q0 12 6.5 22t17.5 15l91 47v0zM254 477l91 -46q11 -6 17.5 -16t6.5 -23q0 -3 -0.5 -6.5t-1.5 -7.5q-3 -7 -7.5 -13.5t-11.5 -14.5q-2 -2 -5 -4.5t-7 -5.5
q-1 -1 -2.5 -2t-2.5 -2q-5 -3 -9 -6t-7 -5q-4 -2 -6.5 -3t-4.5 -2t-4 -1h-5q-13 0 -22 11t-11 30l-8 117v0zM227 499l-96 -26l-11 -2q-14 -1 -24 10.5t-10 28.5q0 8 2 18.5t5 21.5q3 9 6.5 18t7.5 17q3 6 8.5 10.5t11.5 6.5q2 0 3.5 0.5t3.5 0.5q8 0 15 -4.5t14 -12.5
l64 -87v0zM260 499l65 88q6 7 13.5 11.5t15.5 4.5h2.5t2.5 -1q6 -1 12 -5.5t10 -11.5q1 -1 1.5 -2.5t1.5 -2.5q3 -7 6 -16l6 -18l4 -20t2 -17q0 -16 -10 -27.5t-24 -11.5l-11 3l-97 26v0zM244 513l-51 99q-2 4 -3.5 7.5t-1.5 7.5q-1 2 -1 4.5v5.5q0 20 13.5 31t39.5 11
q32 0 46.5 -10t14.5 -32v-5.5t-1 -4.5q0 -4 -1.5 -7.5t-4.5 -8.5l-50 -98v0z" />
    <glyph glyph-name="plus" unicode="+" horiz-adv-x="487" 
d="M291 283v-177q0 -12 -3.5 -16.5t-13.5 -4.5l-61 1q-10 -1 -13.5 3.5t-3.5 15.5v178h-148q-10 -1 -13.5 3.5t-3.5 15.5v64q0 10 3.5 14.5t13.5 4.5l148 1v176q0 10 3.5 14.5t13.5 4.5l61 1q10 -1 13.5 -5.5t3.5 -15.5v-175h147q11 -1 14 -5.5t3 -15.5v-62q0 -12 -3 -16.5
t-14 -4.5l-147 1v0z" />
    <glyph glyph-name="comma" unicode="," horiz-adv-x="283" 
d="M227 64q0 -7 -0.5 -13t-1.5 -12q-5 -41 -29.5 -81.5t-62.5 -70.5q-19 -14 -33 -21t-25 -7q-8 0 -13.5 6t-5.5 16q0 7 4.5 13t11.5 11q12 7 21.5 14t17.5 14l7 7t6 7q1 1 2 2.5t2 2.5q7 9 11.5 16.5t4.5 12.5t-2.5 7.5t-10.5 3.5l-5 1l-6 1q-26 4 -43 28.5t-17 58.5
q0 39 23 66t56 27q36 0 62 -32.5t26 -78.5v1z" />
    <glyph glyph-name="hyphen" unicode="-" horiz-adv-x="212" 
d="M212 365v-68q0 -12 -3.5 -16.5t-13.5 -4.5l-178 1q-10 -1 -13.5 3.5t-3.5 15.5v69q0 10 3.5 14.5t13.5 4.5l178 1q10 -1 13.5 -5.5t3.5 -15.5v1z" />
    <glyph glyph-name="period" unicode="." horiz-adv-x="276" 
d="M138 -13q-34 0 -58 27t-24 66q0 40 24 67.5t58 27.5t58 -27.5t24 -67.5q0 -39 -24 -66t-58 -27v0z" />
    <glyph glyph-name="slash" unicode="/" horiz-adv-x="282" 
d="M203 717h102l-237 -794h-102l237 794v0z" />
    <glyph glyph-name="zero" unicode="0" horiz-adv-x="487" 
d="M227 -8q-92 13 -148.5 107.5t-56.5 233.5t56.5 233t148.5 108v-50q-19 -8 -27 -23t-8 -47v-442q0 -32 8 -47t27 -23v-50v0zM259 -8v51q20 7 27.5 22t7.5 46v444q0 31 -7.5 46t-27.5 22v52q92 -15 148.5 -109t56.5 -233t-56.5 -233.5t-148.5 -107.5v0z" />
    <glyph glyph-name="one" unicode="1" horiz-adv-x="487" 
d="M323 667v-574q0 -19 4 -26t19 -12q2 -1 4 -1.5t5 -1.5q10 -2 14.5 -8.5t4.5 -16.5q0 -14 -8.5 -20.5t-27.5 -6.5h-14h-160h-13q-19 0 -28.5 6.5t-9.5 20.5q0 10 5.5 16.5t15.5 8.5q3 1 5.5 1.5t5.5 1.5q13 5 16.5 12t3.5 25v458q0 25 -4.5 36.5t-13.5 12.5l-15 4
q-9 1 -14 6.5t-5 15.5q0 15 8.5 22t29.5 8l172 12v0z" />
    <glyph glyph-name="two" unicode="2" horiz-adv-x="487" 
d="M360 153q19 -1 26.5 7.5t11.5 31.5q3 12 8 18t13 6q10 0 15.5 -9.5t5.5 -26.5q0 -14 -3.5 -30.5t-8.5 -33.5q-6 -18 -14.5 -35t-17.5 -31q-12 -18 -31.5 -32t-39.5 -20q-9 -3 -17 -4.5t-16 -1.5h-6h-6q-16 1 -37.5 6.5t-67.5 21.5q-22 8 -37.5 11.5t-24.5 3.5
q-3 0 -6 -0.5t-6 -1.5q-5 -2 -11 -6t-13 -11q-5 -5 -9 -8t-7 -4h-2h-2q-9 0 -14 7.5t-5 19.5q0 59 39 102.5t94 43.5h18h3q13 -1 28.5 -3t40.5 -7q33 -7 47 -9.5t24 -3.5h0.5h1.5q8 -1 14.5 -1.5t11.5 -0.5v1zM219 622v53h11q84 -1 138 -54.5t54 -136.5q0 -66 -33 -117
t-94 -80l-54 -24q-12 -7 -28.5 -17t-38.5 -24l-12 -7q-5 -1 -9.5 -1.5t-9.5 -0.5q-11 -2 -24 -7.5t-34 -16.5q3 4 5 7.5t5 7.5q3 5 7 10.5t8 10.5q9 11 21 22.5t29 27.5q26 24 39 37t21 24q2 2 3.5 4.5t3.5 5.5q1 1 1.5 2.5t1.5 2.5q13 24 18.5 54.5t5.5 76.5q0 68 -7.5 97
t-27.5 42v1zM182 674v-52q-12 -4 -18.5 -9t-6.5 -12q0 -1 0.5 -2.5t0.5 -2.5q1 -2 3.5 -4t6.5 -5q16 -10 25.5 -30t9.5 -43q0 -39 -23.5 -66t-57.5 -27t-58 29t-24 70q0 46 25.5 83.5t66.5 54.5q3 1 5.5 2t4.5 2l6 2l6 2q5 1 12 3t16 4v1z" />
    <glyph glyph-name="three" unicode="3" horiz-adv-x="487" 
d="M193 44v-52q-74 10 -115.5 49.5t-41.5 98.5q0 41 22.5 68.5t55.5 27.5q31 0 54.5 -25.5t23.5 -60.5q0 -20 -8 -39t-22 -31q-6 -7 -8.5 -10t-3.5 -6v-0.5v-0.5q0 -8 12 -14t31 -6v1zM230 623v52h10q86 -1 140.5 -49.5t54.5 -125.5q0 -34 -11.5 -63.5t-32.5 -52.5
l-3.5 -3.5t-2.5 -3.5q-9 -8 -18 -14t-22 -12q-6 -2 -13 -5t-15 -6q15 -5 26.5 -9.5t19.5 -8.5q9 -4 15.5 -8.5t12.5 -9.5q1 -1 2 -1.5t2 -1.5q23 -19 35.5 -52.5t12.5 -72.5q0 -82 -54 -133t-142 -51h-17v52q24 7 34 22.5t10 44.5v141q0 33 -11 49.5t-36 17.5q-17 1 -23.5 7
t-6.5 19t6.5 18.5t23.5 7.5q27 2 37 18t10 56v111q0 30 -9.5 44.5t-34.5 21.5v1zM193 673v-50q-16 -5 -23 -11.5t-7 -15.5q0 -3 1.5 -6.5t5.5 -8.5q9 -9 15 -15.5t10 -12.5q4 -7 5 -15.5t1 -20.5q0 -36 -21.5 -61t-52.5 -25t-51.5 26t-20.5 65q0 37 18.5 70t49.5 52
q2 2 4.5 3.5t5.5 2.5q13 8 27 13t33 9v1z" />
    <glyph glyph-name="four" unicode="4" horiz-adv-x="487" 
d="M227 542l66 105l4 6t4 5q5 5 11 6.5t18 1.5l37 1q14 -1 17 -6t3 -22v-435h52q11 -1 16 -7t5 -18q0 -13 -5.5 -19.5t-18.5 -6.5l-49 1v-61q0 -19 4 -26t19 -12q2 -1 4 -1.5t5 -1.5q9 -2 14 -8.5t5 -16.5q0 -14 -8.5 -20.5t-27.5 -6.5h-14h-162h-13q-19 0 -28 6.5t-9 20.5
q0 10 5 16.5t15 8.5q3 1 5.5 1.5t5.5 1.5q13 5 16.5 12t3.5 25v450v0zM194 488v-72l-130 -212h130v-50h-144q-18 -1 -24.5 5.5t-6.5 24.5q0 6 0.5 11.5t2.5 10.5t5 10.5t7 11.5l5 11l155 249v0z" />
    <glyph glyph-name="five" unicode="5" horiz-adv-x="487" 
d="M232 356v71q42 -1 72 -9t55 -26q42 -28 63 -73.5t21 -105.5q0 -52 -16 -96.5t-46 -72.5q-20 -19 -47 -31.5t-54 -17.5q-9 -1 -17 -2t-16 -1h-15v55q23 8 32 29.5t9 62.5v126q0 42 -8 61t-33 29v1zM198 47v-53q-65 4 -109.5 46t-44.5 99q0 42 22.5 70.5t56.5 28.5
q31 0 53 -24.5t22 -59.5v-4.5v-4.5q-2 -19 -10 -36.5t-19 -26.5q-4 -3 -6 -5t-3 -4q-1 -1 -1 -2.5v-2.5q0 -7 10.5 -13.5t28.5 -8.5v1zM80 477l39 -5l-7 -102q14 12 25.5 21.5t22.5 16.5q9 5 18.5 9t19.5 7v-68q-3 -2 -5.5 -2.5t-5.5 -1.5q-17 -5 -29.5 -10t-23.5 -13
q-3 -1 -5.5 -3t-5.5 -4q-10 -7 -15.5 -10.5t-10.5 -4.5h-2h-2q-10 0 -16.5 7.5t-6.5 18.5v15l10 129v0zM84 514l12 161l15 -2l84 -11q23 -4 49.5 -5.5t56.5 -1.5q31 0 52.5 2t40.5 7q7 2 14.5 4.5t14.5 5.5q-10 -38 -24 -64t-38 -49l-2 -2t-2 -1q-32 -31 -68 -43t-94 -12
q-27 0 -49.5 1.5t-44.5 5.5q-4 1 -8.5 1.5t-8.5 1.5v1z" />
    <glyph glyph-name="six" unicode="6" horiz-adv-x="487" 
d="M244 675v-49q-22 -9 -32 -25.5t-10 -46.5v-446q0 -36 5.5 -47.5t25.5 -17.5q0 -1 0.5 -1h1.5v-50q-92 11 -146.5 104.5t-54.5 240.5q0 83 20.5 150t60.5 115q29 35 60.5 53t68.5 19v1zM235 306v56q19 11 36 18t33 9q4 0 8.5 0.5t8.5 0.5q61 0 102.5 -49.5t41.5 -123.5
q0 -8 -0.5 -15.5t-1.5 -15.5q-5 -37 -19.5 -72t-34.5 -60q-20 -23 -47.5 -38.5t-57.5 -20.5q-7 -2 -14.5 -2.5t-14.5 -0.5h-9v51q16 4 22.5 15t6.5 31v184q0 22 -7 34t-21 12q-6 0 -13 -3t-19 -11v1zM276 626v49q66 -3 112.5 -45t46.5 -101q0 -40 -23 -67.5t-58 -27.5
q-31 0 -52.5 23.5t-21.5 57.5q0 7 1 13t3 13q2 6 5 12t8 13q7 10 9.5 16t3.5 11v1.5v1.5q0 12 -8 19t-26 10v1z" />
    <glyph glyph-name="seven" unicode="7" horiz-adv-x="487" 
d="M362 471q-10 -24 -17 -40.5t-12 -32.5q-2 -4 -3.5 -9t-2.5 -10q-3 -11 -6 -23t-5 -25q-5 -22 -7.5 -43t-2.5 -37l3 -38l8 -55q3 -14 4 -26.5t1 -24.5q0 -50 -25.5 -82.5t-64.5 -32.5q-40 0 -65.5 36t-25.5 94q0 32 9 66t27 68q8 15 21.5 34.5t40.5 55.5q33 44 48 67.5
t22 39.5q5 1 9.5 1.5t8.5 1.5q8 2 16 5.5t19 8.5v1zM56 454l26 208h31l-6 -57q16 18 31 31t30 22q14 8 29 12t31 4h10.5t8.5 -1q8 -1 17.5 -3.5t24.5 -7.5q4 -1 7.5 -2.5t7.5 -3.5q10 -3 18.5 -6.5t11.5 -4.5q13 -5 23.5 -8t16.5 -3q5 0 10 2.5t9 8.5l4 7q4 3 7.5 5t6.5 2
q6 0 10.5 -6t4.5 -14t-3.5 -22t-8.5 -29q-4 -11 -8.5 -21.5t-9.5 -18.5q-16 -28 -40.5 -42.5t-56.5 -14.5q-10 0 -20 1.5t-19 3.5q-4 1 -10.5 3t-23.5 6q-6 2 -11.5 3.5t-10.5 2.5q-26 8 -45.5 11.5t-30.5 3.5q-21 0 -30 -14t-10 -48v-10h-32v0z" />
    <glyph glyph-name="eight" unicode="8" horiz-adv-x="487" 
d="M229 628q-1 -2 -2.5 -3t-3.5 -2q-13 -9 -17 -22t-4 -42v-134q0 -22 7 -36t20 -20v-51q-15 -8 -21 -19.5t-6 -34.5v-166q0 -25 6.5 -38t20.5 -18v-50h-8q-49 2 -84.5 13t-57.5 33q-23 22 -35.5 54t-12.5 71q0 50 18.5 88.5t54.5 62.5q1 1 2.5 2t2.5 2q6 3 12 6.5t13 6.5
t15 6t19 7q-8 3 -14.5 5.5t-12.5 4.5q-15 6 -26 13t-21 15l-1.5 1.5l-1.5 1.5q-22 21 -33 50.5t-11 64.5q0 53 24.5 94t66.5 60q4 2 8.5 4t8.5 3q16 6 33.5 9t40.5 4v-46v0zM258 628v47q23 -2 40.5 -5t33.5 -9q4 -1 8.5 -3t8.5 -4q42 -19 66.5 -60t24.5 -94q0 -40 -15 -72.5
t-44 -53.5q-7 -6 -15.5 -11t-19.5 -9q-6 -3 -12.5 -5t-14.5 -5q10 -3 18 -6.5t15 -6.5q15 -6 25.5 -13t20.5 -16q29 -23 43.5 -59t14.5 -80q0 -45 -16 -80t-47 -58q-21 -15 -53.5 -23.5t-73.5 -9.5h-8v51q14 4 20.5 17t6.5 37v168q0 22 -6.5 33.5t-20.5 18.5v53
q14 5 20.5 19t6.5 35v136q0 28 -4 41t-17 22q-2 1 -3.5 2t-2.5 2v1z" />
    <glyph glyph-name="nine" unicode="9" horiz-adv-x="487" 
d="M212 41v-49q-67 2 -113.5 44t-46.5 100q0 41 24 68t58 27q31 0 52.5 -23.5t21.5 -57.5q0 -11 -2.5 -21t-7.5 -18l-14 -22q-1 -3 -2.5 -5t-1.5 -4q-1 -3 -1.5 -5t-0.5 -4q0 -12 9.5 -20.5t24.5 -10.5v1zM243 -8v49q22 7 32 24.5t10 45.5v452q0 33 -4.5 44t-23.5 18
q-1 0 -2 0.5t-2 0.5v49q92 -13 146.5 -106.5t54.5 -240.5q0 -82 -20.5 -149.5t-61.5 -115.5q-28 -35 -59.5 -52.5t-69.5 -18.5v0zM253 362v-57q-16 -11 -30.5 -17.5t-28.5 -9.5l-14 -2t-14 -1q-61 0 -102.5 50t-41.5 123q0 60 25.5 113t65.5 81q26 17 52 24.5t56 7.5v-47
q-15 -5 -22 -16t-7 -31v-186q0 -23 7.5 -35t20.5 -12h1.5h1.5q6 1 12.5 4t17.5 10v1z" />
    <glyph glyph-name="colon" unicode=":" horiz-adv-x="276" 
d="M138 -13q-34 0 -58 27t-24 66q0 40 24 67.5t58 27.5t58 -27.5t24 -67.5q0 -39 -24 -66t-58 -27v0zM138 306q-34 -1 -58 27t-24 67t24 66.5t58 27.5t58 -27.5t24 -66.5t-24 -67t-58 -28v1z" />
    <glyph glyph-name="semicolon" unicode=";" horiz-adv-x="283" 
d="M227 64q0 -7 -0.5 -13t-1.5 -12q-5 -41 -29.5 -81.5t-62.5 -70.5q-19 -14 -33 -21t-25 -7q-8 0 -13.5 6t-5.5 16q0 7 4.5 13t11.5 11q12 7 21.5 14t17.5 14l7 7t6 7q1 1 2 2.5t2 2.5q7 9 11.5 16.5t4.5 12.5t-2.5 7.5t-10.5 3.5l-5 1l-6 1q-26 4 -43 28.5t-17 58.5
q0 39 23 66t56 27q36 0 62 -32.5t26 -78.5v1zM145 306q-34 -1 -58 26.5t-24 66.5q0 40 24 67.5t58 27.5t57.5 -27.5t23.5 -67.5q0 -39 -23.5 -66.5t-57.5 -27.5v1z" />
    <glyph glyph-name="less" unicode="&#x3c;" horiz-adv-x="425" 
d="M391 639v-69l-201 -149l201 -162v-183l-359 291v9l359 263v0z" />
    <glyph glyph-name="equal" unicode="=" horiz-adv-x="487" 
d="M455 265v-64q0 -12 -3 -16.5t-14 -4.5l-390 1q-10 -1 -13.5 3.5t-3.5 15.5v65q0 10 3.5 14.5t13.5 4.5l390 1q11 -1 14 -5.5t3 -15.5v1zM455 467v-64q0 -12 -3 -16.5t-14 -4.5l-390 1q-10 -1 -13.5 3.5t-3.5 15.5v65q0 11 3.5 15t13.5 4l390 1q11 -1 14 -5t3 -16v1z" />
    <glyph glyph-name="greater" unicode="&#x3e;" horiz-adv-x="425" 
d="M32 76v69l202 149l-202 162v183l359 -291v-9l-359 -263v0z" />
    <glyph glyph-name="question" unicode="?" horiz-adv-x="459" 
d="M183 -13q-34 0 -57.5 27t-23.5 66q0 40 23.5 67.5t57.5 27.5t57.5 -27.5t23.5 -67.5q0 -39 -23.5 -66t-57.5 -27v0zM250 624v54q68 -11 110 -65.5t42 -130.5q0 -84 -49 -142.5t-129 -69.5q-20 -2 -25 -7t-6 -25q0 -16 -4.5 -23t-14.5 -7q-12 0 -17.5 7.5t-5.5 21.5v172
q0 14 4 17t22 4q44 2 71.5 34.5t27.5 84.5q0 26 -6 43.5t-20 30.5v1zM214 680v-54q-12 -2 -16.5 -6t-4.5 -14l3 -13l3 -12q2 -6 3 -11.5t1 -12.5q0 -33 -21 -55.5t-51 -22.5q-31 0 -53 24.5t-22 58.5q0 50 43.5 83.5t104.5 33.5l10 1v0z" />
    <glyph glyph-name="at" unicode="@" horiz-adv-x="600" 
d="M445 227q4 1 7.5 2t7.5 3q8 3 14 7t12 9q21 18 34.5 56t14.5 80v2.5v2.5q0 100 -61.5 165.5t-155.5 65.5q-107 0 -180 -85t-73 -211q0 -58 19 -111t54 -93t78 -58t107 -18q21 0 40.5 1.5t39.5 5.5q17 3 34.5 8t36.5 12l16 -52q-6 -4 -11.5 -6.5t-10.5 -4.5
q-4 -1 -8.5 -2.5t-9.5 -2.5q-3 -1 -6.5 -1.5t-7.5 -1.5q-16 -3 -35 -5.5t-38 -4.5q-13 -1 -26.5 -1.5t-25.5 -0.5q-62 0 -113.5 22t-91.5 66q-42 47 -65.5 113t-23.5 137q0 148 86.5 249.5t213.5 101.5q113 0 189.5 -83t76.5 -206q0 -59 -20 -109t-56 -79q-2 -1 -3.5 -2.5
t-3.5 -2.5q-11 -9 -23.5 -14.5t-30.5 -10.5q-2 -1 -4.5 -1.5t-5.5 -1.5l9 60v0zM283 382l-17 -87q-3 -15 -4.5 -26.5t-1.5 -19.5q0 -16 4 -24t13 -9q7 -1 9.5 -5t2.5 -15q0 -16 -15 -26.5t-40 -10.5q-32 0 -54 29t-22 73q0 14 1.5 28.5t4.5 28.5q6 32 18 63t28 55
q21 32 47 47.5t57 15.5q10 0 15 -3t5 -10l-1 -7l-4 -15q0 -2 -0.5 -2.5l-0.5 -0.5l-2 -4t-2 -3q-1 -2 -3.5 -4t-6.5 -5q-13 -10 -19.5 -24.5t-11.5 -39.5v1zM448 500l-42 -227l-4 -26q0 -13 4.5 -18t14.5 -4l-10 -59q-10 -4 -18 -5t-15 -2h-6.5h-6.5q-28 0 -45.5 16
t-17.5 43l4 32l43 225q2 13 6 18.5t10 5.5l28 1h55v0z" />
    <glyph glyph-name="A" unicode="A" horiz-adv-x="526" 
d="M171 542l21 -101l-73 -315q-1 -4 -1.5 -7.5t-0.5 -6.5q-1 -3 -1 -6.5v-6.5q0 -14 6 -25.5t19 -17.5l13 -7q7 -5 11 -11.5t4 -14.5q0 -11 -8 -17t-23 -6h-105q-15 0 -24 7t-9 19q0 8 4 14t14 11q26 14 38.5 32t21.5 56l93 403v0zM200 667h168l114 -574q0 -3 0.5 -5t1.5 -4
q4 -16 9 -23t14 -11q1 -1 2 -1.5t2 -0.5q8 -5 11.5 -10.5t3.5 -14.5q0 -11 -8 -17t-25 -6h-207q-12 0 -19.5 6.5t-7.5 18.5q0 6 1 10t4 7q2 2 5.5 4.5t7.5 5.5q1 1 2 1.5t2 0.5q6 5 8.5 10.5t2.5 14.5l-1 14l-14 71h-115l11 60h93l-76 395l10 48v0z" />
    <glyph glyph-name="B" unicode="B" horiz-adv-x="569" 
d="M261 667v-667h-185h-11q-16 0 -23.5 6.5t-7.5 19.5q0 9 4 15.5t13 9.5q4 1 6.5 2.5t5.5 2.5q8 5 10.5 11t2.5 21v490q0 14 -2.5 20t-10.5 11q-3 1 -5.5 2.5t-6.5 2.5q-9 3 -13 9.5t-4 15.5q0 14 8 20.5t23 6.5l11 1h185v0zM295 613v54h46q91 -1 141 -43.5t50 -118.5
q0 -39 -15 -72.5t-41 -52.5q-3 -2 -5.5 -3.5t-5.5 -3.5q-8 -5 -17 -9.5t-21 -8.5q-7 -3 -16.5 -5.5t-20.5 -5.5q13 -3 22.5 -5.5t17.5 -5.5q7 -2 13 -4.5t12 -5.5q4 -1 7.5 -3t7.5 -4q34 -20 52 -57t18 -85q0 -46 -15.5 -81.5t-46.5 -58.5q-2 -1 -3.5 -2t-3.5 -3
q-25 -16 -53.5 -22.5t-74.5 -6.5h-48v51q30 1 43 19t13 56v112q0 38 -13.5 57.5t-42.5 23.5v52q32 1 44 19.5t12 62.5v85q0 33 -14 52t-42 22v1z" />
    <glyph glyph-name="C" unicode="C" horiz-adv-x="496" 
d="M262 680v-59q-24 -5 -35.5 -26.5t-11.5 -59.5v-403v-21q1 -29 13 -46t34 -19v-59q-115 3 -180 92t-65 243q0 69 13.5 128t40.5 105q22 36 53 64.5t64 43.5q16 8 31.5 12t30.5 4l12 1v0zM296 -13v60q42 2 76.5 35t47.5 82q5 16 10 22.5t15 6.5t16.5 -8.5t6.5 -21.5
q0 -14 -5.5 -31.5t-15.5 -35.5q-8 -15 -18 -29t-21 -26q-25 -27 -52 -40t-60 -14v0zM296 621v58q2 -1 4 -1.5t4 -0.5q4 -1 7.5 -1.5t7.5 -1.5q9 -3 21 -7.5t34 -14.5q12 -5 18 -7t10 -2h2h2q4 1 8 4.5t6 8.5l5 13q3 4 8 7t11 3q11 0 17 -8t6 -23v-202q0 -18 -6 -28t-18 -10
q-10 0 -16 8t-9 24q-18 80 -49.5 126.5t-72.5 53.5v1z" />
    <glyph glyph-name="D" unicode="D" horiz-adv-x="550" 
d="M261 667v-667h-185h-11q-16 0 -23.5 6.5t-7.5 19.5q0 9 4 15.5t13 9.5q4 1 6.5 2.5t5.5 2.5q8 5 10.5 11t2.5 21v490q0 14 -2.5 20t-10.5 11q-3 1 -5.5 2.5t-6.5 2.5q-9 3 -13 9.5t-4 15.5q0 14 8 20.5t23 6.5l11 1h185v0zM295 612v55q25 -1 43 -4t35 -10q7 -3 14 -6.5
t14 -8.5q65 -40 99 -118t34 -185q0 -108 -36.5 -189.5t-103.5 -122.5q-7 -4 -13 -7t-11 -6q-16 -6 -32.5 -8t-42.5 -2v53q29 7 38.5 23.5t9.5 61.5v387q0 41 -11 61t-37 25v1z" />
    <glyph glyph-name="E" unicode="E" horiz-adv-x="498" 
d="M261 667v-667h-185h-11q-16 0 -23.5 6.5t-7.5 19.5q0 9 4 15.5t13 9.5q4 1 6.5 2.5t5.5 2.5q8 5 10.5 11t2.5 21v490q0 14 -2.5 20t-10.5 11q-3 1 -5.5 2.5t-6.5 2.5q-9 3 -13 9.5t-4 15.5q0 14 8 20.5t23 6.5l11 1h185v0zM296 0v53q50 7 81 38t48 89q1 4 2.5 7t2.5 6
q4 7 8 10.5t10 3.5q13 0 17.5 -7.5t4.5 -28.5v-171h-174v0zM296 311v57q24 13 35.5 28.5t16.5 42.5q4 19 9 26t16 7q12 0 16 -8.5t4 -32.5v-185q0 -24 -4.5 -32.5t-15.5 -8.5q-10 0 -15 6.5t-9 22.5q-7 34 -20 52t-33 24v1zM296 667h168v-174q0 -16 -4.5 -23t-15.5 -7
q-9 0 -13 3.5t-8 13.5q0 1 -0.5 2.5t-0.5 2.5q-16 58 -46.5 87.5t-79.5 35.5v59v0z" />
    <glyph glyph-name="F" unicode="F" horiz-adv-x="481" 
d="M261 667v-574q0 -19 4 -26t19 -12q2 -1 4 -1.5t5 -1.5q10 -2 14.5 -8.5t4.5 -16.5q0 -14 -8.5 -20.5t-27.5 -6.5h-14h-186h-11q-16 0 -23.5 6.5t-7.5 19.5q0 9 4 15.5t13 9.5q4 1 6.5 2.5t5.5 2.5q8 5 10.5 11t2.5 21v490q0 14 -2.5 20t-10.5 11q-3 1 -5.5 2.5t-6.5 2.5
q-9 3 -13 9.5t-4 15.5q0 14 8 20.5t23 6.5l11 1h185v0zM295 311v57q25 13 36 28.5t16 42.5q4 19 9.5 26t15.5 7q12 0 16 -8.5t4 -32.5v-185q0 -24 -4 -32.5t-16 -8.5q-9 0 -14.5 6.5t-8.5 22.5q-7 34 -20 52t-34 24v1zM295 667h169v-172q0 -17 -5 -24.5t-17 -7.5q-8 0 -13 5
t-8 17q-14 56 -45 86.5t-81 36.5v59v0z" />
    <glyph glyph-name="G" unicode="G" horiz-adv-x="527" 
d="M250 680v-54q-18 -5 -27 -22.5t-9 -46.5v-454q0 -28 6.5 -41t22.5 -21v-54h-5q-9 0 -22 3.5t-27 9.5q-9 2 -17 6t-15 9q-67 41 -103.5 121.5t-36.5 187.5q0 113 36 197t102 127q20 12 37.5 19.5t34.5 10.5q6 1 11.5 1h11.5v1zM277 -13v55q19 5 26.5 19t7.5 41v144
q0 16 -3.5 23t-16.5 12q-2 0 -5 1l-6 2q-10 2 -15 9t-5 17q0 14 9 20.5t28 6.5l14 1h153q19 -1 26.5 -7t7.5 -22q0 -6 -1.5 -11t-5.5 -10l-3 -3l-4 -4q-1 -1 -2.5 -2t-2.5 -2q-5 -4 -6.5 -10.5t-1.5 -19.5v-165q-4 -6 -9.5 -11.5t-11.5 -10.5q-9 -8 -19 -15.5t-20 -13.5
q-7 -5 -13.5 -9t-13.5 -8q-25 -13 -52 -19.5t-55 -7.5v0zM284 627v53q34 -5 61 -11t50 -17l19 -5q3 -1 5 -1t4 2q3 1 6.5 5.5t9.5 14.5q1 2 2 3l2 2q4 3 7.5 4.5t7.5 1.5q12 0 16.5 -7t4.5 -25v-190q0 -19 -6 -28.5t-17 -9.5q-10 0 -15.5 6t-10.5 22q0 2 -0.5 4t-1.5 4
q-2 12 -6.5 25t-9.5 26q-7 16 -14.5 31t-14.5 27q-4 6 -7.5 11.5t-7.5 10.5q-15 19 -35 29t-49 11v1z" />
    <glyph glyph-name="H" unicode="H" horiz-adv-x="641" 
d="M270 0h-185h-12q-16 0 -23.5 6.5t-7.5 19.5q0 9 4.5 15.5t12.5 9.5q4 1 7 2.5l5 2.5q9 5 11.5 11t2.5 21v490q0 14 -2.5 20t-11.5 11l-5 2.5t-7 2.5q-8 3 -12.5 9.5t-4.5 15.5q0 14 8 20.5t23 6.5l12 1h185h11q15 -2 22.5 -8t7.5 -19q0 -10 -4 -16.5t-13 -9.5l-12 -4
q-6 -3 -9 -11t-3 -22v-488q0 -14 3 -22.5t9 -10.5l12 -4q9 -4 13 -10.5t4 -16.5q0 -13 -7.5 -19t-22.5 -6h-11v0zM304 365h67v213q0 13 -3 21t-9 10l-14 6q-7 2 -11 8t-4 16q0 14 7.5 20.5t21.5 6.5l11 1h186h11q17 -2 24.5 -8t7.5 -20q0 -9 -4.5 -15.5t-12.5 -9.5
q-4 -1 -7 -2.5l-5 -2.5q-9 -5 -11.5 -11t-2.5 -21v-488q0 -16 2 -22t11 -11q3 -1 6 -2.5t7 -2.5q8 -3 12.5 -9.5t4.5 -15.5q0 -13 -8 -19.5t-24 -6.5h-11h-186h-11q-14 0 -21.5 6t-7.5 19q0 9 4 16t11 10l14 6q6 1 9 9.5t3 21.5v223h-67v54v0z" />
    <glyph glyph-name="I" unicode="I" horiz-adv-x="338" 
d="M261 0h-185h-11q-16 0 -23.5 6.5t-7.5 19.5q0 9 4 15.5t13 9.5q4 1 6.5 2.5t5.5 2.5q8 5 10.5 11t2.5 21v490q0 14 -2.5 20t-10.5 11q-3 1 -5.5 2.5t-6.5 2.5q-9 3 -13 9.5t-4 15.5q0 14 8 20.5t23 6.5l11 1h185h11q17 -2 24.5 -8t7.5 -20q0 -9 -4.5 -15.5t-12.5 -9.5
q-4 -1 -7 -2.5l-5 -2.5q-9 -5 -11.5 -11t-2.5 -21v-488q0 -16 2.5 -22t11.5 -11l5 -2.5t7 -2.5q8 -3 12.5 -9.5t4.5 -15.5q0 -13 -8 -19.5t-24 -6.5h-11v0z" />
    <glyph glyph-name="J" unicode="J" horiz-adv-x="457" 
d="M177 -13v57q17 7 23 22t6 44v463q0 15 -3 23.5t-11 10.5l-17 5q-10 2 -15 8.5t-5 16.5q0 14 9 20.5t28 7.5l14 1h186h11q16 -1 23.5 -7.5t7.5 -19.5q0 -10 -4 -16t-12 -10q-3 -1 -5.5 -2t-4.5 -2q-11 -4 -14 -10.5t-3 -22.5v-407q0 -87 -49 -135t-138 -48h-4h-4h-8t-11 1
v0zM141 44v-54q-28 5 -46.5 12.5t-35.5 20.5q-28 21 -43.5 53t-15.5 68q0 46 25.5 77.5t62.5 31.5q35 0 58.5 -28.5t23.5 -68.5q0 -29 -12.5 -51t-38.5 -37q-4 -2 -6 -4t-2 -4q0 -1 0.5 -2l1.5 -3q4 -3 11 -6.5t17 -5.5v1z" />
    <glyph glyph-name="K" unicode="K" horiz-adv-x="623" 
d="M270 0h-185h-12q-16 0 -23.5 6.5t-7.5 19.5q0 9 4.5 15.5t12.5 9.5q4 1 7 2.5l5 2.5q9 5 11.5 11t2.5 21v490q0 14 -2.5 20t-11.5 11l-5 2.5t-7 2.5q-8 3 -12.5 9.5t-4.5 15.5q0 14 8 20.5t23 6.5l12 1h185h11q16 -2 23.5 -8t7.5 -20q0 -9 -4.5 -15.5t-12.5 -9.5
q-4 -1 -7 -2.5l-5 -2.5q-9 -5 -11 -11t-2 -21v-488q0 -14 3 -22.5t9 -10.5l12 -4q9 -4 13 -10.5t4 -16.5q0 -13 -7.5 -19t-22.5 -6h-11v0zM434 473l125 -386q1 -4 2 -6t1 -5q5 -10 9.5 -16t11.5 -10l4 -2t3 -2q6 -4 8 -8.5t2 -12.5q0 -13 -7.5 -19t-23.5 -6h-208
q-16 0 -24 7t-8 20q0 8 4 14t12 11q4 2 7 4t5 4t3 5t1 6q0 2 -1 5.5t-3 9.5l-52 188q-4 11 -6 22.5t-2 20.5q0 4 0.5 8t1.5 8q1 5 4 10t7 11l98 165q3 4 6 9.5t4 11.5q3 7 4 13.5t1 12.5q0 14 -6.5 26t-16.5 16l-15 9q-7 3 -10.5 8.5t-3.5 13.5q0 14 7 20.5t20 6.5l148 1
q15 -1 23 -8.5t8 -21.5q0 -10 -5 -17.5t-14 -11.5l-22 -10q-4 -3 -11 -7.5t-14 -10.5q-3 -3 -6 -5.5t-5 -4.5l-2 -2l-2 -2q-7 -7 -15 -18t-19 -30l-28 -45v0z" />
    <glyph glyph-name="L" unicode="L" horiz-adv-x="452" 
d="M261 0h-185h-11q-16 0 -23.5 6.5t-7.5 19.5q0 9 4 15.5t13 9.5q4 1 6.5 2.5t5.5 2.5q8 5 10.5 11t2.5 21v490q0 14 -2.5 20t-10.5 11q-3 1 -5.5 2.5t-6.5 2.5q-9 3 -13 9.5t-4 15.5q0 14 8 20.5t23 6.5l11 1h186h14q19 -2 27.5 -8.5t8.5 -20.5q0 -10 -4.5 -16.5
t-14.5 -9.5l-6 -2t-5 -1q-14 -5 -17.5 -12t-3.5 -24v-573v0zM292 0v55q16 2 25.5 5.5t17.5 8.5l1.5 1.5t1.5 0.5q21 15 38 45.5t27 70.5q3 9 5 16t4 12q4 9 8.5 12t11.5 3q11 0 15.5 -7.5t4.5 -24.5v-198h-160v0z" />
    <glyph glyph-name="M" unicode="M" horiz-adv-x="665" 
d="M252 667l82 -274l35 148v-162l-96 -379h-21l-162 562l-2 6l-2 6q-5 17 -12 24.5t-19 10.5q-14 3 -20.5 10.5t-6.5 19.5q0 13 8 20t21 7l195 1v0zM90 442l44 -148v-147q0 -34 7.5 -54t24.5 -33l15 -10q8 -7 12.5 -13t4.5 -14q0 -12 -8 -17.5t-24 -5.5h-104q-15 0 -23 5.5
t-8 18.5q0 5 1 8.5t4 6.5q2 1 4 2.5t5 3.5q23 15 34 40t11 61v296v0zM403 667h186h11q16 -2 23.5 -8t7.5 -20q0 -9 -4 -15.5t-12 -9.5q-4 -1 -7 -2.5t-6 -2.5q-9 -5 -11 -11t-2 -21v-488q0 -16 2 -22t11 -11q3 -1 6 -2.5t7 -2.5q8 -3 12 -9.5t4 -15.5q0 -13 -7.5 -19.5
t-23.5 -6.5h-11h-186h-14q-19 0 -28 6.5t-9 20.5q0 10 5 16.5t15 8.5q3 1 5.5 1.5t5.5 1.5q13 5 16.5 12t3.5 25v575v0z" />
    <glyph glyph-name="N" unicode="N" horiz-adv-x="570" 
d="M95 496l43 -87v-262q0 -35 10 -57t31 -36l12 -7q5 -5 8 -10.5t3 -12.5q0 -13 -8 -18.5t-28 -5.5h-95q-19 0 -28 6t-9 19q0 4 0.5 7t2.5 5q2 3 6.5 6.5t11.5 8.5q20 14 30 37t10 57v350v0zM268 667l221 -451v-216h-113l-281 571q-5 9 -9 15.5t-8 10.5q-3 4 -6.5 6t-7.5 4
l-15 8q-7 1 -10.5 7.5t-3.5 14.5q0 9 4.5 16.5t11.5 9.5q4 2 12.5 2.5t22.5 0.5l182 1v0zM489 294l-43 87v135q0 40 -10 62t-36 37q-1 1 -2 1.5t-2 1.5q-7 4 -9 9t-2 14q0 13 7 19t23 6l104 1q18 -1 26 -7.5t8 -20.5q0 -5 -1 -8.5t-4 -7.5q-2 -3 -6.5 -6t-11.5 -7
q-20 -13 -30.5 -36t-10.5 -59v-221v0z" />
    <glyph glyph-name="O" unicode="O" horiz-adv-x="538" 
d="M252 627q-21 -9 -29.5 -24.5t-8.5 -44.5v-436q0 -41 8 -58t30 -24v-53q-109 10 -172 103.5t-63 241.5q0 149 65 245t170 102v-52v0zM286 627v53q106 -7 170.5 -103t64.5 -245q0 -148 -63.5 -241.5t-171.5 -103.5v54q21 5 29.5 24t8.5 56v438q0 28 -8.5 43.5t-29.5 23.5v1
z" />
    <glyph glyph-name="P" unicode="P" horiz-adv-x="540" 
d="M261 667v-574q0 -19 4 -26t19 -12q2 -1 4 -1.5t5 -1.5q10 -2 14.5 -8.5t4.5 -16.5q0 -14 -8.5 -20.5t-27.5 -6.5h-14h-186h-11q-16 0 -23.5 6.5t-7.5 19.5q0 9 4 15.5t13 9.5q4 1 6.5 2.5t5.5 2.5q8 5 10.5 11t2.5 21v490q0 14 -2.5 20t-10.5 11q-3 1 -5.5 2.5t-6.5 2.5
q-9 3 -13 9.5t-4 15.5q0 14 8 20.5t23 6.5l11 1h185v0zM295 614v53h7q4 -1 8.5 -1h8.5q19 -1 37.5 -3.5t33.5 -5.5q62 -13 97.5 -65.5t35.5 -129.5q0 -79 -37.5 -132.5t-102.5 -67.5q-19 -4 -41 -6t-47 -2v54q28 7 37.5 23t9.5 54v157q0 34 -10.5 50.5t-36.5 20.5v1z" />
    <glyph glyph-name="Q" unicode="Q" horiz-adv-x="544" 
d="M431 56q8 -10 18 -14t23 -4h3.5h3.5q5 1 10 2.5t9 3.5l15 6q5 -1 9.5 -7t4.5 -14q0 -2 -0.5 -4.5t-1.5 -5.5q-6 -18 -29.5 -33t-50.5 -19q-3 0 -6.5 -0.5t-7.5 -0.5q-24 0 -43 9t-35 26q-4 -1 -7.5 -2.5t-6.5 -2.5q-11 -3 -22.5 -5t-27.5 -4v54q7 1 11.5 3.5t7.5 6.5
l1.5 1.5l1.5 1.5l-3 5q-5 7 -9.5 12.5t-7.5 8.5q-4 3 -8.5 5t-9.5 3q-16 4 -21 9t-5 16q0 14 10 21.5t26 7.5q10 0 18 -1.5t15 -4.5q3 -2 5.5 -3.5t5.5 -3.5v430q0 28 -8.5 43.5t-29.5 23.5v54q106 -7 170.5 -103t64.5 -245q0 -90 -23 -159t-70 -118v1zM255 627
q-22 -10 -30.5 -25t-8.5 -44v-436q0 -41 8.5 -58t30.5 -24v-53q-109 10 -172.5 103.5t-63.5 241.5q0 149 65 245t171 102v-52v0z" />
    <glyph glyph-name="R" unicode="R" horiz-adv-x="594" 
d="M294 613v54h10q57 -1 86 -6t53 -19q3 -1 6.5 -3.5t6.5 -4.5q33 -22 49.5 -57.5t16.5 -80.5q0 -37 -12 -70t-34 -53q-9 -9 -18.5 -15.5t-22.5 -12.5q-9 -5 -21 -9.5t-27 -9.5q4 -1 7 -1.5t6 -0.5q25 -5 40.5 -10.5t28.5 -14.5q1 -1 2.5 -2t3.5 -2q21 -15 33 -38t12 -49
v-100q0 -8 2 -12t6 -4h2t2 1q2 1 4 3.5t4 6.5q2 2 3.5 4t3.5 4q4 3 7.5 5t6.5 2h2t2 -1q6 -2 11 -8t6 -12q1 -2 1 -3v-2q0 -8 -4 -19t-11 -22q-7 -12 -16.5 -23t-20.5 -20q-15 -10 -33 -15.5t-41 -5.5q-55 0 -86 36.5t-31 102.5v83q0 41 -11 61t-35 23v54q26 3 36 18t10 48
v130q0 30 -10 44.5t-36 24.5v1zM261 667v-574q0 -18 3.5 -25t17.5 -12q2 0 5 -1l6 -2q10 -3 14.5 -9.5t4.5 -16.5q0 -14 -8.5 -20.5t-27.5 -6.5h-14h-186h-11q-16 0 -23.5 6.5t-7.5 19.5q0 9 4 15.5t13 9.5q3 1 6 2.5l5 2.5q9 5 11.5 11.5t2.5 20.5v490q0 14 -2.5 20
t-10.5 11q-3 1 -5.5 2.5t-6.5 2.5q-9 4 -13 10t-4 16q0 13 8 19.5t23 6.5l11 1h185v0z" />
    <glyph glyph-name="S" unicode="S" horiz-adv-x="478" 
d="M226 680v-56q-26 -9 -40.5 -26t-14.5 -43q0 -23 10 -40.5t31 -32.5q7 -4 17.5 -10.5t35.5 -18.5l35 -18q16 -9 28 -16t22 -13q8 -6 15 -11.5t13 -11.5q3 -3 5 -5.5t5 -5.5q30 -32 44.5 -70t14.5 -85q0 -97 -58.5 -161.5t-150.5 -68.5v56q35 9 51 27t16 48q0 19 -6 33.5
t-21 27.5q-11 9 -26 18.5t-37 20.5q-40 20 -65 35t-42 28q-38 33 -57.5 77t-19.5 99q0 97 52.5 157t142.5 65v1zM204 43v-56q-13 0 -25.5 3t-24.5 8q-6 2 -12.5 4.5t-12.5 6.5q-13 7 -19 10t-11 4h-2h-2q-3 0 -5.5 -0.5t-4.5 -2.5q-3 -2 -6.5 -6t-8.5 -11l-2 -2l-2 -2
q-2 -3 -5 -4.5t-7 -1.5q-11 0 -17 11t-6 31v178q0 13 7 22.5t17 9.5q9 0 14 -6.5t9 -22.5q9 -40 24.5 -73t38.5 -61q2 -2 3.5 -4t2.5 -3q13 -14 26.5 -21.5t30.5 -11.5v1zM260 624v54q9 -2 16 -3t14 -3q12 -3 26.5 -9t36.5 -17l14 -3q4 -1 7 1t5 5l9 15q3 5 7 7.5t9 2.5
q11 0 16 -9.5t5 -29.5v-160q0 -15 -6.5 -24.5t-17.5 -9.5q-10 0 -16.5 8t-9.5 27q-10 55 -41 95t-74 52v1z" />
    <glyph glyph-name="T" unicode="T" horiz-adv-x="504" 
d="M345 667v-574q0 -19 3.5 -26t18.5 -12q2 -1 4 -1.5t5 -1.5q10 -2 15 -8.5t5 -16.5q0 -14 -8.5 -20.5t-28.5 -6.5h-14h-186h-14q-19 0 -28 6.5t-9 20.5q0 10 5 16.5t15 8.5q3 1 5.5 1.5t5.5 1.5q13 5 16.5 12t3.5 25v575h186v0zM17 667h108v-60q-21 -15 -34.5 -43.5
t-19.5 -70.5l-4 -29q-2 -16 -8.5 -24t-17.5 -8q-10 0 -17 9t-7 23v203v0zM487 667v-202q0 -15 -6.5 -24t-17.5 -9q-10 0 -17 8.5t-10 22.5l-4 31q-5 41 -18.5 69.5t-34.5 42.5v61h108v0z" />
    <glyph glyph-name="U" unicode="U" horiz-adv-x="575" 
d="M305 51v-64h-13q-37 0 -63 4.5t-51 14.5q-5 2 -10 4.5t-10 5.5q-49 28 -69 67.5t-20 110.5v384q0 14 -2 20t-11 11l-5 2.5t-7 2.5q-8 3 -12.5 9.5t-4.5 15.5q0 13 8 20t22 7l12 1h186h11q15 -1 23 -7.5t8 -20.5q0 -9 -4.5 -15.5t-12.5 -9.5q-4 -1 -7 -2.5l-5 -2.5
q-9 -5 -11 -11t-2 -21v-409q0 -38 1 -54t6 -28v-0.5v-0.5q6 -16 14.5 -23t28.5 -12v1zM338 -13v64q47 7 73 46.5t26 103.5v319q0 33 -10.5 56t-31.5 36q-5 3 -8.5 6t-6.5 5q-3 4 -4.5 8.5t-1.5 10.5q0 13 8 18.5t25 5.5l103 1q12 -1 17 -1.5t8 -2.5q0 -1 0.5 -1h0.5
q5 -4 8 -9t3 -11q0 -5 -0.5 -8.5t-3.5 -6.5q-2 -3 -7 -7t-14 -10q-18 -12 -28.5 -36t-10.5 -55v-317q0 -89 -38 -145.5t-107 -69.5v0z" />
    <glyph glyph-name="V" unicode="V" horiz-adv-x="512" 
d="M344 171l-39 -171h-110l-147 584l-2 6t-2 5q-2 6 -4.5 8.5t-7.5 4.5q-4 2 -7 4l-6 4q-5 4 -6.5 8.5t-1.5 11.5q0 15 9.5 22.5t30.5 7.5l184 1q17 -1 22.5 -2t9.5 -3q5 -3 8.5 -9.5t3.5 -14.5t-3 -14.5t-11 -10.5q-11 -6 -15 -13t-4 -19l2 -12l96 -398v0zM360 241l-22 92
l47 205l3 23q0 17 -6.5 29.5t-17.5 17.5l-13 6q-7 2 -11.5 9t-4.5 15q0 14 9.5 21t25.5 7l101 1q20 -1 27.5 -7t7.5 -20q0 -9 -3 -14t-11 -10l-22 -11q-13 -8 -24.5 -30t-19.5 -50l-66 -284v0z" />
    <glyph glyph-name="W" unicode="W" horiz-adv-x="697" 
d="M323 237l-51 -237h-90l-132 574q-1 2 -1.5 4.5t-1.5 4.5q-3 13 -7.5 18.5t-11.5 8.5q-9 5 -13 11t-4 16q0 14 10 21.5t29 7.5l194 1q18 -1 25.5 -7t7.5 -20q0 -7 -3 -13.5t-10 -11.5q-5 -4 -9 -7t-6 -5q-3 -4 -4 -8t-1 -11l1 -10l78 -337v0zM362 667h85l101 -445
l-49 -222h-90l-97 429l50 238v0zM563 301l-22 99l31 144l3 27q0 13 -7 23.5t-22 19.5q-3 2 -5.5 4t-4.5 4q-5 4 -7 8.5t-2 11.5q0 13 7.5 18.5t21.5 5.5l99 1q17 -1 23.5 -6.5t6.5 -19.5q0 -7 -3 -12t-12 -10q-23 -13 -35.5 -32t-20.5 -54l-51 -232v0z" />
    <glyph glyph-name="X" unicode="X" horiz-adv-x="516" 
d="M260 581l209 -499q1 -4 2 -6l2 -4q3 -5 6 -8t7 -6l1.5 -1.5t1.5 -0.5q4 -3 7 -5.5t5 -4.5q4 -4 5.5 -8.5t1.5 -10.5q0 -15 -8.5 -21t-29.5 -6h-195q-14 0 -20.5 0.5t-10.5 2.5q-1 1 -2 1.5t-2 1.5q-4 4 -6 9.5t-2 11.5q0 3 0.5 6t2.5 6q1 2 4 5t7 6q3 3 6 5.5t4 5.5
q2 3 3 5.5t1 5.5q0 2 -1.5 7t-3.5 10q-1 2 -1.5 4t-1.5 4l-204 484q-5 12 -11 19t-15 12q-8 5 -11.5 11t-3.5 15q0 16 9 22t32 6l193 1q22 -1 31 -7.5t9 -20.5q0 -6 -2 -10.5t-6 -8.5q-1 -2 -2.5 -3t-3.5 -3q-3 -2 -4.5 -4t-2.5 -4q-2 -2 -2.5 -5t-0.5 -6q0 -4 1 -7.5
t2 -7.5v1zM158 238l22 -55l-26 -50q-8 -17 -11 -26t-3 -17q0 -13 5.5 -21.5t17.5 -13.5q2 -1 3.5 -2t3.5 -1q8 -5 11.5 -11t3.5 -14q0 -15 -8.5 -21t-28.5 -6h-106q-14 0 -21.5 6t-7.5 18q0 10 5 16t16 11q17 7 28.5 18.5t20.5 27.5l75 141v0zM353 446l-23 54l23 47
q3 4 4.5 10.5t1.5 13.5q0 13 -5.5 23t-13.5 15l-14 9q-3 1 -5.5 6t-3.5 10q-1 2 -1 3.5v2.5q0 12 7 19t18 7l121 1q11 -1 18.5 -7.5t7.5 -16.5q0 -6 -1 -10t-4 -7q-2 -3 -7 -6.5t-12 -8.5q-15 -10 -27 -23.5t-23 -31.5l-61 -110v0z" />
    <glyph glyph-name="Y" unicode="Y" horiz-adv-x="507" 
d="M341 306v-213q0 -19 4 -26t19 -12q2 -1 4 -1.5t5 -1.5q9 -2 14 -8.5t5 -17.5q0 -14 -8 -20t-28 -6h-14h-187h-14q-19 0 -27.5 6.5t-8.5 20.5q0 10 5 16.5t14 8.5q3 1 6 1.5t5 1.5q14 5 17.5 12t3.5 25v166l-117 329q-4 10 -8.5 16t-10.5 11q-4 3 -7.5 5.5t-5.5 4.5
q-3 4 -4 7.5t-1 9.5q0 13 8 19t24 6l204 1q17 -1 25 -7t8 -20q0 -7 -3.5 -13t-8.5 -11l-12 -8q-4 -3 -6 -7.5t-2 -9.5q0 -2 0.5 -5.5t1.5 -6.5v-1.5v-1.5q1 -2 1.5 -4.5t0.5 -4.5l98 -261v0zM357 352l-24 64l43 115q2 4 3.5 9.5t2.5 10.5q0 5 0.5 9t0.5 8q0 15 -6.5 25.5
t-20.5 17.5q-5 2 -8.5 4t-6.5 4q-5 4 -7 8t-2 11q0 16 9 22t31 6l103 1q14 -1 21.5 -8t7.5 -21q0 -7 -2 -11.5t-7 -8.5q-2 -1 -4.5 -2.5t-5.5 -3.5q-19 -10 -30.5 -23.5t-19.5 -33.5l-10 -24l-68 -179v0z" />
    <glyph glyph-name="Z" unicode="Z" horiz-adv-x="444" 
d="M427 667v-56l-229 -611h-181v49l230 618h180v0zM427 0h-194l19 49q55 14 80.5 36.5t44.5 77.5q2 4 3.5 8.5t2.5 8.5t2.5 7t2.5 6q4 8 8 11t10 3q10 0 15.5 -8.5t5.5 -25.5v-173v0zM31 667h180l-21 -56q-43 -8 -73.5 -39.5t-42.5 -81.5q-3 -15 -8 -21t-15 -6t-15 8t-5 21
v175v0z" />
    <glyph glyph-name="bracketleft" unicode="[" horiz-adv-x="333" 
d="M239 -144h-160q-9 0 -11.5 3t-2.5 14v777q0 10 2.5 13t11.5 3l160 1q33 -1 44.5 -7.5t11.5 -26.5q0 -13 -5.5 -20t-20.5 -11q-37 -9 -48.5 -24.5t-11.5 -59.5v-514q0 -44 11.5 -59.5t48.5 -24.5q15 -4 20.5 -10.5t5.5 -19.5q0 -20 -11.5 -27t-44.5 -7v0z" />
    <glyph glyph-name="backslash" unicode="\" horiz-adv-x="425" 
d="M129 750l259 -833h-106l-260 833h107v0z" />
    <glyph glyph-name="bracketright" unicode="]" horiz-adv-x="333" 
d="M93 667h161q9 -1 11 -4t2 -14v-776q0 -11 -2 -14t-11 -3h-161q-32 0 -44 7t-12 26q0 13 6.5 20t19.5 11q38 9 49 24.5t11 58.5v516q0 43 -11 58.5t-49 24.5q-13 4 -19.5 11t-6.5 20q0 20 12 26.5t44 6.5v1z" />
    <glyph glyph-name="asciicircum" unicode="^" horiz-adv-x="425" 
d="M451 277h-59l-126 238l-138 -238h-155l247 423h7l224 -423v0z" />
    <glyph glyph-name="underscore" unicode="_" horiz-adv-x="425" 
d="M4 -93h415v-81h-415v81v0z" />
    <glyph glyph-name="grave" unicode="`" horiz-adv-x="425" 
d="M91 851h84q8 -1 12 -2t7 -5q2 -2 4 -5t5 -7l62 -112l1 -6q0 -5 -3 -7t-8 -2l-31 1q-1 -1 -1.5 -1h-1.5q-2 1 -4.5 2.5t-5.5 4.5l-7 8l-115 104q-5 4 -7 7t-3 5v1.5v0.5q0 5 4 8.5t8 3.5v1z" />
    <glyph glyph-name="a" unicode="a" horiz-adv-x="526" 
d="M171 542l21 -101l-73 -315q-1 -4 -1.5 -7.5t-0.5 -6.5q-1 -3 -1 -6.5v-6.5q0 -14 6 -25.5t19 -17.5l13 -7q7 -5 11 -11.5t4 -14.5q0 -11 -8 -17t-23 -6h-105q-15 0 -24 7t-9 19q0 8 4 14t14 11q26 14 38.5 32t21.5 56l93 403v0zM200 667h168l114 -574q0 -3 0.5 -5t1.5 -4
q4 -16 9 -23t14 -11q1 -1 2 -1.5t2 -0.5q8 -5 11.5 -10.5t3.5 -14.5q0 -11 -8 -17t-25 -6h-207q-12 0 -19.5 6.5t-7.5 18.5q0 6 1 10t4 7q2 2 5.5 4.5t7.5 5.5q1 1 2 1.5t2 0.5q6 5 8.5 10.5t2.5 14.5l-1 14l-14 71h-115l11 60h93l-76 395l10 48v0z" />
    <glyph glyph-name="b" unicode="b" horiz-adv-x="569" 
d="M261 667v-667h-185h-11q-16 0 -23.5 6.5t-7.5 19.5q0 9 4 15.5t13 9.5q4 1 6.5 2.5t5.5 2.5q8 5 10.5 11t2.5 21v490q0 14 -2.5 20t-10.5 11q-3 1 -5.5 2.5t-6.5 2.5q-9 3 -13 9.5t-4 15.5q0 14 8 20.5t23 6.5l11 1h185v0zM295 613v54h46q91 -1 141 -43.5t50 -118.5
q0 -39 -15 -72.5t-41 -52.5q-3 -2 -5.5 -3.5t-5.5 -3.5q-8 -5 -17 -9.5t-21 -8.5q-7 -3 -16.5 -5.5t-20.5 -5.5q13 -3 22.5 -5.5t17.5 -5.5q7 -2 13 -4.5t12 -5.5q4 -1 7.5 -3t7.5 -4q34 -20 52 -57t18 -85q0 -46 -15.5 -81.5t-46.5 -58.5q-2 -1 -3.5 -2t-3.5 -3
q-25 -16 -53.5 -22.5t-74.5 -6.5h-48v51q30 1 43 19t13 56v112q0 38 -13.5 57.5t-42.5 23.5v52q32 1 44 19.5t12 62.5v85q0 33 -14 52t-42 22v1z" />
    <glyph glyph-name="c" unicode="c" horiz-adv-x="496" 
d="M262 680v-59q-24 -5 -35.5 -26.5t-11.5 -59.5v-403v-21q1 -29 13 -46t34 -19v-59q-115 3 -180 92t-65 243q0 69 13.5 128t40.5 105q22 36 53 64.5t64 43.5q16 8 31.5 12t30.5 4l12 1v0zM296 -13v60q42 2 76.5 35t47.5 82q5 16 10 22.5t15 6.5t16.5 -8.5t6.5 -21.5
q0 -14 -5.5 -31.5t-15.5 -35.5q-8 -15 -18 -29t-21 -26q-25 -27 -52 -40t-60 -14v0zM296 621v58q2 -1 4 -1.5t4 -0.5q4 -1 7.5 -1.5t7.5 -1.5q9 -3 21 -7.5t34 -14.5q12 -5 18 -7t10 -2h2h2q4 1 8 4.5t6 8.5l5 13q3 4 8 7t11 3q11 0 17 -8t6 -23v-202q0 -18 -6 -28t-18 -10
q-10 0 -16 8t-9 24q-18 80 -49.5 126.5t-72.5 53.5v1z" />
    <glyph glyph-name="d" unicode="d" horiz-adv-x="550" 
d="M261 667v-667h-185h-11q-16 0 -23.5 6.5t-7.5 19.5q0 9 4 15.5t13 9.5q4 1 6.5 2.5t5.5 2.5q8 5 10.5 11t2.5 21v490q0 14 -2.5 20t-10.5 11q-3 1 -5.5 2.5t-6.5 2.5q-9 3 -13 9.5t-4 15.5q0 14 8 20.5t23 6.5l11 1h185v0zM295 612v55q25 -1 43 -4t35 -10q7 -3 14 -6.5
t14 -8.5q65 -40 99 -118t34 -185q0 -108 -36.5 -189.5t-103.5 -122.5q-7 -4 -13 -7t-11 -6q-16 -6 -32.5 -8t-42.5 -2v53q29 7 38.5 23.5t9.5 61.5v387q0 41 -11 61t-37 25v1z" />
    <glyph glyph-name="e" unicode="e" horiz-adv-x="498" 
d="M261 667v-667h-185h-11q-16 0 -23.5 6.5t-7.5 19.5q0 9 4 15.5t13 9.5q4 1 6.5 2.5t5.5 2.5q8 5 10.5 11t2.5 21v490q0 14 -2.5 20t-10.5 11q-3 1 -5.5 2.5t-6.5 2.5q-9 3 -13 9.5t-4 15.5q0 14 8 20.5t23 6.5l11 1h185v0zM296 0v53q50 7 81 38t48 89q1 4 2.5 7t2.5 6
q4 7 8 10.5t10 3.5q13 0 17.5 -7.5t4.5 -28.5v-171h-174v0zM296 311v57q24 13 35.5 28.5t16.5 42.5q4 19 9 26t16 7q12 0 16 -8.5t4 -32.5v-185q0 -24 -4.5 -32.5t-15.5 -8.5q-10 0 -15 6.5t-9 22.5q-7 34 -20 52t-33 24v1zM296 667h168v-174q0 -16 -4.5 -23t-15.5 -7
q-9 0 -13 3.5t-8 13.5q0 1 -0.5 2.5t-0.5 2.5q-16 58 -46.5 87.5t-79.5 35.5v59v0z" />
    <glyph glyph-name="f" unicode="f" horiz-adv-x="481" 
d="M261 667v-574q0 -19 4 -26t19 -12q2 -1 4 -1.5t5 -1.5q10 -2 14.5 -8.5t4.5 -16.5q0 -14 -8.5 -20.5t-27.5 -6.5h-14h-186h-11q-16 0 -23.5 6.5t-7.5 19.5q0 9 4 15.5t13 9.5q4 1 6.5 2.5t5.5 2.5q8 5 10.5 11t2.5 21v490q0 14 -2.5 20t-10.5 11q-3 1 -5.5 2.5t-6.5 2.5
q-9 3 -13 9.5t-4 15.5q0 14 8 20.5t23 6.5l11 1h185v0zM295 311v57q25 13 36 28.5t16 42.5q4 19 9.5 26t15.5 7q12 0 16 -8.5t4 -32.5v-185q0 -24 -4 -32.5t-16 -8.5q-9 0 -14.5 6.5t-8.5 22.5q-7 34 -20 52t-34 24v1zM295 667h169v-172q0 -17 -5 -24.5t-17 -7.5q-8 0 -13 5
t-8 17q-14 56 -45 86.5t-81 36.5v59v0z" />
    <glyph glyph-name="g" unicode="g" horiz-adv-x="527" 
d="M250 680v-54q-18 -5 -27 -22.5t-9 -46.5v-454q0 -28 6.5 -41t22.5 -21v-54h-5q-9 0 -22 3.5t-27 9.5q-9 2 -17 6t-15 9q-67 41 -103.5 121.5t-36.5 187.5q0 113 36 197t102 127q20 12 37.5 19.5t34.5 10.5q6 1 11.5 1h11.5v1zM277 -13v55q19 5 26.5 19t7.5 41v144
q0 16 -3.5 23t-16.5 12q-2 0 -5 1l-6 2q-10 2 -15 9t-5 17q0 14 9 20.5t28 6.5l14 1h153q19 -1 26.5 -7t7.5 -22q0 -6 -1.5 -11t-5.5 -10l-3 -3l-4 -4q-1 -1 -2.5 -2t-2.5 -2q-5 -4 -6.5 -10.5t-1.5 -19.5v-165q-4 -6 -9.5 -11.5t-11.5 -10.5q-9 -8 -19 -15.5t-20 -13.5
q-7 -5 -13.5 -9t-13.5 -8q-25 -13 -52 -19.5t-55 -7.5v0zM284 627v53q34 -5 61 -11t50 -17l19 -5q3 -1 5 -1t4 2q3 1 6.5 5.5t9.5 14.5q1 2 2 3l2 2q4 3 7.5 4.5t7.5 1.5q12 0 16.5 -7t4.5 -25v-190q0 -19 -6 -28.5t-17 -9.5q-10 0 -15.5 6t-10.5 22q0 2 -0.5 4t-1.5 4
q-2 12 -6.5 25t-9.5 26q-7 16 -14.5 31t-14.5 27q-4 6 -7.5 11.5t-7.5 10.5q-15 19 -35 29t-49 11v1z" />
    <glyph glyph-name="h" unicode="h" horiz-adv-x="641" 
d="M270 0h-185h-12q-16 0 -23.5 6.5t-7.5 19.5q0 9 4.5 15.5t12.5 9.5q4 1 7 2.5l5 2.5q9 5 11.5 11t2.5 21v490q0 14 -2.5 20t-11.5 11l-5 2.5t-7 2.5q-8 3 -12.5 9.5t-4.5 15.5q0 14 8 20.5t23 6.5l12 1h185h11q15 -2 22.5 -8t7.5 -19q0 -10 -4 -16.5t-13 -9.5l-12 -4
q-6 -3 -9 -11t-3 -22v-488q0 -14 3 -22.5t9 -10.5l12 -4q9 -4 13 -10.5t4 -16.5q0 -13 -7.5 -19t-22.5 -6h-11v0zM304 365h67v213q0 13 -3 21t-9 10l-14 6q-7 2 -11 8t-4 16q0 14 7.5 20.5t21.5 6.5l11 1h186h11q17 -2 24.5 -8t7.5 -20q0 -9 -4.5 -15.5t-12.5 -9.5
q-4 -1 -7 -2.5l-5 -2.5q-9 -5 -11.5 -11t-2.5 -21v-488q0 -16 2 -22t11 -11q3 -1 6 -2.5t7 -2.5q8 -3 12.5 -9.5t4.5 -15.5q0 -13 -8 -19.5t-24 -6.5h-11h-186h-11q-14 0 -21.5 6t-7.5 19q0 9 4 16t11 10l14 6q6 1 9 9.5t3 21.5v223h-67v54v0z" />
    <glyph glyph-name="i" unicode="i" horiz-adv-x="338" 
d="M261 0h-185h-11q-16 0 -23.5 6.5t-7.5 19.5q0 9 4 15.5t13 9.5q4 1 6.5 2.5t5.5 2.5q8 5 10.5 11t2.5 21v490q0 14 -2.5 20t-10.5 11q-3 1 -5.5 2.5t-6.5 2.5q-9 3 -13 9.5t-4 15.5q0 14 8 20.5t23 6.5l11 1h185h11q17 -2 24.5 -8t7.5 -20q0 -9 -4.5 -15.5t-12.5 -9.5
q-4 -1 -7 -2.5l-5 -2.5q-9 -5 -11.5 -11t-2.5 -21v-488q0 -16 2.5 -22t11.5 -11l5 -2.5t7 -2.5q8 -3 12.5 -9.5t4.5 -15.5q0 -13 -8 -19.5t-24 -6.5h-11v0z" />
    <glyph glyph-name="j" unicode="j" horiz-adv-x="457" 
d="M177 -13v57q17 7 23 22t6 44v463q0 15 -3 23.5t-11 10.5l-17 5q-10 2 -15 8.5t-5 16.5q0 14 9 20.5t28 7.5l14 1h186h11q16 -1 23.5 -7.5t7.5 -19.5q0 -10 -4 -16t-12 -10q-3 -1 -5.5 -2t-4.5 -2q-11 -4 -14 -10.5t-3 -22.5v-407q0 -87 -49 -135t-138 -48h-4h-4h-8t-11 1
v0zM141 44v-54q-28 5 -46.5 12.5t-35.5 20.5q-28 21 -43.5 53t-15.5 68q0 46 25.5 77.5t62.5 31.5q35 0 58.5 -28.5t23.5 -68.5q0 -29 -12.5 -51t-38.5 -37q-4 -2 -6 -4t-2 -4q0 -1 0.5 -2l1.5 -3q4 -3 11 -6.5t17 -5.5v1z" />
    <glyph glyph-name="k" unicode="k" horiz-adv-x="623" 
d="M270 0h-185h-12q-16 0 -23.5 6.5t-7.5 19.5q0 9 4.5 15.5t12.5 9.5q4 1 7 2.5l5 2.5q9 5 11.5 11t2.5 21v490q0 14 -2.5 20t-11.5 11l-5 2.5t-7 2.5q-8 3 -12.5 9.5t-4.5 15.5q0 14 8 20.5t23 6.5l12 1h185h11q16 -2 23.5 -8t7.5 -20q0 -9 -4.5 -15.5t-12.5 -9.5
q-4 -1 -7 -2.5l-5 -2.5q-9 -5 -11 -11t-2 -21v-488q0 -14 3 -22.5t9 -10.5l12 -4q9 -4 13 -10.5t4 -16.5q0 -13 -7.5 -19t-22.5 -6h-11v0zM434 473l125 -386q1 -4 2 -6t1 -5q5 -10 9.5 -16t11.5 -10l4 -2t3 -2q6 -4 8 -8.5t2 -12.5q0 -13 -7.5 -19t-23.5 -6h-208
q-16 0 -24 7t-8 20q0 8 4 14t12 11q4 2 7 4t5 4t3 5t1 6q0 2 -1 5.5t-3 9.5l-52 188q-4 11 -6 22.5t-2 20.5q0 4 0.5 8t1.5 8q1 5 4 10t7 11l98 165q3 4 6 9.5t4 11.5q3 7 4 13.5t1 12.5q0 14 -6.5 26t-16.5 16l-15 9q-7 3 -10.5 8.5t-3.5 13.5q0 14 7 20.5t20 6.5l148 1
q15 -1 23 -8.5t8 -21.5q0 -10 -5 -17.5t-14 -11.5l-22 -10q-4 -3 -11 -7.5t-14 -10.5q-3 -3 -6 -5.5t-5 -4.5l-2 -2l-2 -2q-7 -7 -15 -18t-19 -30l-28 -45v0z" />
    <glyph glyph-name="l" unicode="l" horiz-adv-x="452" 
d="M261 0h-185h-11q-16 0 -23.5 6.5t-7.5 19.5q0 9 4 15.5t13 9.5q4 1 6.5 2.5t5.5 2.5q8 5 10.5 11t2.5 21v490q0 14 -2.5 20t-10.5 11q-3 1 -5.5 2.5t-6.5 2.5q-9 3 -13 9.5t-4 15.5q0 14 8 20.5t23 6.5l11 1h186h14q19 -2 27.5 -8.5t8.5 -20.5q0 -10 -4.5 -16.5
t-14.5 -9.5l-6 -2t-5 -1q-14 -5 -17.5 -12t-3.5 -24v-573v0zM292 0v55q16 2 25.5 5.5t17.5 8.5l1.5 1.5t1.5 0.5q21 15 38 45.5t27 70.5q3 9 5 16t4 12q4 9 8.5 12t11.5 3q11 0 15.5 -7.5t4.5 -24.5v-198h-160v0z" />
    <glyph glyph-name="m" unicode="m" horiz-adv-x="665" 
d="M252 667l82 -274l35 148v-162l-96 -379h-21l-162 562l-2 6l-2 6q-5 17 -12 24.5t-19 10.5q-14 3 -20.5 10.5t-6.5 19.5q0 13 8 20t21 7l195 1v0zM90 442l44 -148v-147q0 -34 7.5 -54t24.5 -33l15 -10q8 -7 12.5 -13t4.5 -14q0 -12 -8 -17.5t-24 -5.5h-104q-15 0 -23 5.5
t-8 18.5q0 5 1 8.5t4 6.5q2 1 4 2.5t5 3.5q23 15 34 40t11 61v296v0zM403 667h186h11q16 -2 23.5 -8t7.5 -20q0 -9 -4 -15.5t-12 -9.5q-4 -1 -7 -2.5t-6 -2.5q-9 -5 -11 -11t-2 -21v-488q0 -16 2 -22t11 -11q3 -1 6 -2.5t7 -2.5q8 -3 12 -9.5t4 -15.5q0 -13 -7.5 -19.5
t-23.5 -6.5h-11h-186h-14q-19 0 -28 6.5t-9 20.5q0 10 5 16.5t15 8.5q3 1 5.5 1.5t5.5 1.5q13 5 16.5 12t3.5 25v575v0z" />
    <glyph glyph-name="n" unicode="n" horiz-adv-x="570" 
d="M95 496l43 -87v-262q0 -35 10 -57t31 -36l12 -7q5 -5 8 -10.5t3 -12.5q0 -13 -8 -18.5t-28 -5.5h-95q-19 0 -28 6t-9 19q0 4 0.5 7t2.5 5q2 3 6.5 6.5t11.5 8.5q20 14 30 37t10 57v350v0zM268 667l221 -451v-216h-113l-281 571q-5 9 -9 15.5t-8 10.5q-3 4 -6.5 6t-7.5 4
l-15 8q-7 1 -10.5 7.5t-3.5 14.5q0 9 4.5 16.5t11.5 9.5q4 2 12.5 2.5t22.5 0.5l182 1v0zM489 294l-43 87v135q0 40 -10 62t-36 37q-1 1 -2 1.5t-2 1.5q-7 4 -9 9t-2 14q0 13 7 19t23 6l104 1q18 -1 26 -7.5t8 -20.5q0 -5 -1 -8.5t-4 -7.5q-2 -3 -6.5 -6t-11.5 -7
q-20 -13 -30.5 -36t-10.5 -59v-221v0z" />
    <glyph glyph-name="o" unicode="o" horiz-adv-x="538" 
d="M252 627q-21 -9 -29.5 -24.5t-8.5 -44.5v-436q0 -41 8 -58t30 -24v-53q-109 10 -172 103.5t-63 241.5q0 149 65 245t170 102v-52v0zM286 627v53q106 -7 170.5 -103t64.5 -245q0 -148 -63.5 -241.5t-171.5 -103.5v54q21 5 29.5 24t8.5 56v438q0 28 -8.5 43.5t-29.5 23.5v1
z" />
    <glyph glyph-name="p" unicode="p" horiz-adv-x="540" 
d="M261 667v-574q0 -19 4 -26t19 -12q2 -1 4 -1.5t5 -1.5q10 -2 14.5 -8.5t4.5 -16.5q0 -14 -8.5 -20.5t-27.5 -6.5h-14h-186h-11q-16 0 -23.5 6.5t-7.5 19.5q0 9 4 15.5t13 9.5q4 1 6.5 2.5t5.5 2.5q8 5 10.5 11t2.5 21v490q0 14 -2.5 20t-10.5 11q-3 1 -5.5 2.5t-6.5 2.5
q-9 3 -13 9.5t-4 15.5q0 14 8 20.5t23 6.5l11 1h185v0zM295 614v53h7q4 -1 8.5 -1h8.5q19 -1 37.5 -3.5t33.5 -5.5q62 -13 97.5 -65.5t35.5 -129.5q0 -79 -37.5 -132.5t-102.5 -67.5q-19 -4 -41 -6t-47 -2v54q28 7 37.5 23t9.5 54v157q0 34 -10.5 50.5t-36.5 20.5v1z" />
    <glyph glyph-name="q" unicode="q" horiz-adv-x="544" 
d="M431 56q8 -10 18 -14t23 -4h3.5h3.5q5 1 10 2.5t9 3.5l15 6q5 -1 9.5 -7t4.5 -14q0 -2 -0.5 -4.5t-1.5 -5.5q-6 -18 -29.5 -33t-50.5 -19q-3 0 -6.5 -0.5t-7.5 -0.5q-24 0 -43 9t-35 26q-4 -1 -7.5 -2.5t-6.5 -2.5q-11 -3 -22.5 -5t-27.5 -4v54q7 1 11.5 3.5t7.5 6.5
l1.5 1.5l1.5 1.5l-3 5q-5 7 -9.5 12.5t-7.5 8.5q-4 3 -8.5 5t-9.5 3q-16 4 -21 9t-5 16q0 14 10 21.5t26 7.5q10 0 18 -1.5t15 -4.5q3 -2 5.5 -3.5t5.5 -3.5v430q0 28 -8.5 43.5t-29.5 23.5v54q106 -7 170.5 -103t64.5 -245q0 -90 -23 -159t-70 -118v1zM255 627
q-22 -10 -30.5 -25t-8.5 -44v-436q0 -41 8.5 -58t30.5 -24v-53q-109 10 -172.5 103.5t-63.5 241.5q0 149 65 245t171 102v-52v0z" />
    <glyph glyph-name="r" unicode="r" horiz-adv-x="594" 
d="M294 613v54h10q57 -1 86 -6t53 -19q3 -1 6.5 -3.5t6.5 -4.5q33 -22 49.5 -57.5t16.5 -80.5q0 -37 -12 -70t-34 -53q-9 -9 -18.5 -15.5t-22.5 -12.5q-9 -5 -21 -9.5t-27 -9.5q4 -1 7 -1.5t6 -0.5q25 -5 40.5 -10.5t28.5 -14.5q1 -1 2.5 -2t3.5 -2q21 -15 33 -38t12 -49
v-100q0 -8 2 -12t6 -4h2t2 1q2 1 4 3.5t4 6.5q2 2 3.5 4t3.5 4q4 3 7.5 5t6.5 2h2t2 -1q6 -2 11 -8t6 -12q1 -2 1 -3v-2q0 -8 -4 -19t-11 -22q-7 -12 -16.5 -23t-20.5 -20q-15 -10 -33 -15.5t-41 -5.5q-55 0 -86 36.5t-31 102.5v83q0 41 -11 61t-35 23v54q26 3 36 18t10 48
v130q0 30 -10 44.5t-36 24.5v1zM261 667v-574q0 -18 3.5 -25t17.5 -12q2 0 5 -1l6 -2q10 -3 14.5 -9.5t4.5 -16.5q0 -14 -8.5 -20.5t-27.5 -6.5h-14h-186h-11q-16 0 -23.5 6.5t-7.5 19.5q0 9 4 15.5t13 9.5q3 1 6 2.5l5 2.5q9 5 11.5 11.5t2.5 20.5v490q0 14 -2.5 20
t-10.5 11q-3 1 -5.5 2.5t-6.5 2.5q-9 4 -13 10t-4 16q0 13 8 19.5t23 6.5l11 1h185v0z" />
    <glyph glyph-name="s" unicode="s" horiz-adv-x="478" 
d="M226 680v-56q-26 -9 -40.5 -26t-14.5 -43q0 -23 10 -40.5t31 -32.5q7 -4 17.5 -10.5t35.5 -18.5l35 -18q16 -9 28 -16t22 -13q8 -6 15 -11.5t13 -11.5q3 -3 5 -5.5t5 -5.5q30 -32 44.5 -70t14.5 -85q0 -97 -58.5 -161.5t-150.5 -68.5v56q35 9 51 27t16 48q0 19 -6 33.5
t-21 27.5q-11 9 -26 18.5t-37 20.5q-40 20 -65 35t-42 28q-38 33 -57.5 77t-19.5 99q0 97 52.5 157t142.5 65v1zM204 43v-56q-13 0 -25.5 3t-24.5 8q-6 2 -12.5 4.5t-12.5 6.5q-13 7 -19 10t-11 4h-2h-2q-3 0 -5.5 -0.5t-4.5 -2.5q-3 -2 -6.5 -6t-8.5 -11l-2 -2l-2 -2
q-2 -3 -5 -4.5t-7 -1.5q-11 0 -17 11t-6 31v178q0 13 7 22.5t17 9.5q9 0 14 -6.5t9 -22.5q9 -40 24.5 -73t38.5 -61q2 -2 3.5 -4t2.5 -3q13 -14 26.5 -21.5t30.5 -11.5v1zM260 624v54q9 -2 16 -3t14 -3q12 -3 26.5 -9t36.5 -17l14 -3q4 -1 7 1t5 5l9 15q3 5 7 7.5t9 2.5
q11 0 16 -9.5t5 -29.5v-160q0 -15 -6.5 -24.5t-17.5 -9.5q-10 0 -16.5 8t-9.5 27q-10 55 -41 95t-74 52v1z" />
    <glyph glyph-name="t" unicode="t" horiz-adv-x="504" 
d="M345 667v-574q0 -19 3.5 -26t18.5 -12q2 -1 4 -1.5t5 -1.5q10 -2 15 -8.5t5 -16.5q0 -14 -8.5 -20.5t-28.5 -6.5h-14h-186h-14q-19 0 -28 6.5t-9 20.5q0 10 5 16.5t15 8.5q3 1 5.5 1.5t5.5 1.5q13 5 16.5 12t3.5 25v575h186v0zM17 667h108v-60q-21 -15 -34.5 -43.5
t-19.5 -70.5l-4 -29q-2 -16 -8.5 -24t-17.5 -8q-10 0 -17 9t-7 23v203v0zM487 667v-202q0 -15 -6.5 -24t-17.5 -9q-10 0 -17 8.5t-10 22.5l-4 31q-5 41 -18.5 69.5t-34.5 42.5v61h108v0z" />
    <glyph glyph-name="u" unicode="u" horiz-adv-x="575" 
d="M305 51v-64h-13q-37 0 -63 4.5t-51 14.5q-5 2 -10 4.5t-10 5.5q-49 28 -69 67.5t-20 110.5v384q0 14 -2 20t-11 11l-5 2.5t-7 2.5q-8 3 -12.5 9.5t-4.5 15.5q0 13 8 20t22 7l12 1h186h11q15 -1 23 -7.5t8 -20.5q0 -9 -4.5 -15.5t-12.5 -9.5q-4 -1 -7 -2.5l-5 -2.5
q-9 -5 -11 -11t-2 -21v-409q0 -38 1 -54t6 -28v-0.5v-0.5q6 -16 14.5 -23t28.5 -12v1zM338 -13v64q47 7 73 46.5t26 103.5v319q0 33 -10.5 56t-31.5 36q-5 3 -8.5 6t-6.5 5q-3 4 -4.5 8.5t-1.5 10.5q0 13 8 18.5t25 5.5l103 1q12 -1 17 -1.5t8 -2.5q0 -1 0.5 -1h0.5
q5 -4 8 -9t3 -11q0 -5 -0.5 -8.5t-3.5 -6.5q-2 -3 -7 -7t-14 -10q-18 -12 -28.5 -36t-10.5 -55v-317q0 -89 -38 -145.5t-107 -69.5v0z" />
    <glyph glyph-name="v" unicode="v" horiz-adv-x="512" 
d="M344 171l-39 -171h-110l-147 584l-2 6t-2 5q-2 6 -4.5 8.5t-7.5 4.5q-4 2 -7 4l-6 4q-5 4 -6.5 8.5t-1.5 11.5q0 15 9.5 22.5t30.5 7.5l184 1q17 -1 22.5 -2t9.5 -3q5 -3 8.5 -9.5t3.5 -14.5t-3 -14.5t-11 -10.5q-11 -6 -15 -13t-4 -19l2 -12l96 -398v0zM360 241l-22 92
l47 205l3 23q0 17 -6.5 29.5t-17.5 17.5l-13 6q-7 2 -11.5 9t-4.5 15q0 14 9.5 21t25.5 7l101 1q20 -1 27.5 -7t7.5 -20q0 -9 -3 -14t-11 -10l-22 -11q-13 -8 -24.5 -30t-19.5 -50l-66 -284v0z" />
    <glyph glyph-name="w" unicode="w" horiz-adv-x="697" 
d="M323 237l-51 -237h-90l-132 574q-1 2 -1.5 4.5t-1.5 4.5q-3 13 -7.5 18.5t-11.5 8.5q-9 5 -13 11t-4 16q0 14 10 21.5t29 7.5l194 1q18 -1 25.5 -7t7.5 -20q0 -7 -3 -13.5t-10 -11.5q-5 -4 -9 -7t-6 -5q-3 -4 -4 -8t-1 -11l1 -10l78 -337v0zM362 667h85l101 -445
l-49 -222h-90l-97 429l50 238v0zM563 301l-22 99l31 144l3 27q0 13 -7 23.5t-22 19.5q-3 2 -5.5 4t-4.5 4q-5 4 -7 8.5t-2 11.5q0 13 7.5 18.5t21.5 5.5l99 1q17 -1 23.5 -6.5t6.5 -19.5q0 -7 -3 -12t-12 -10q-23 -13 -35.5 -32t-20.5 -54l-51 -232v0z" />
    <glyph glyph-name="x" unicode="x" horiz-adv-x="516" 
d="M260 581l209 -499q1 -4 2 -6l2 -4q3 -5 6 -8t7 -6l1.5 -1.5t1.5 -0.5q4 -3 7 -5.5t5 -4.5q4 -4 5.5 -8.5t1.5 -10.5q0 -15 -8.5 -21t-29.5 -6h-195q-14 0 -20.5 0.5t-10.5 2.5q-1 1 -2 1.5t-2 1.5q-4 4 -6 9.5t-2 11.5q0 3 0.5 6t2.5 6q1 2 4 5t7 6q3 3 6 5.5t4 5.5
q2 3 3 5.5t1 5.5q0 2 -1.5 7t-3.5 10q-1 2 -1.5 4t-1.5 4l-204 484q-5 12 -11 19t-15 12q-8 5 -11.5 11t-3.5 15q0 16 9 22t32 6l193 1q22 -1 31 -7.5t9 -20.5q0 -6 -2 -10.5t-6 -8.5q-1 -2 -2.5 -3t-3.5 -3q-3 -2 -4.5 -4t-2.5 -4q-2 -2 -2.5 -5t-0.5 -6q0 -4 1 -7.5
t2 -7.5v1zM158 238l22 -55l-26 -50q-8 -17 -11 -26t-3 -17q0 -13 5.5 -21.5t17.5 -13.5q2 -1 3.5 -2t3.5 -1q8 -5 11.5 -11t3.5 -14q0 -15 -8.5 -21t-28.5 -6h-106q-14 0 -21.5 6t-7.5 18q0 10 5 16t16 11q17 7 28.5 18.5t20.5 27.5l75 141v0zM353 446l-23 54l23 47
q3 4 4.5 10.5t1.5 13.5q0 13 -5.5 23t-13.5 15l-14 9q-3 1 -5.5 6t-3.5 10q-1 2 -1 3.5v2.5q0 12 7 19t18 7l121 1q11 -1 18.5 -7.5t7.5 -16.5q0 -6 -1 -10t-4 -7q-2 -3 -7 -6.5t-12 -8.5q-15 -10 -27 -23.5t-23 -31.5l-61 -110v0z" />
    <glyph glyph-name="y" unicode="y" horiz-adv-x="507" 
d="M341 306v-213q0 -19 4 -26t19 -12q2 -1 4 -1.5t5 -1.5q9 -2 14 -8.5t5 -17.5q0 -14 -8 -20t-28 -6h-14h-187h-14q-19 0 -27.5 6.5t-8.5 20.5q0 10 5 16.5t14 8.5q3 1 6 1.5t5 1.5q14 5 17.5 12t3.5 25v166l-117 329q-4 10 -8.5 16t-10.5 11q-4 3 -7.5 5.5t-5.5 4.5
q-3 4 -4 7.5t-1 9.5q0 13 8 19t24 6l204 1q17 -1 25 -7t8 -20q0 -7 -3.5 -13t-8.5 -11l-12 -8q-4 -3 -6 -7.5t-2 -9.5q0 -2 0.5 -5.5t1.5 -6.5v-1.5v-1.5q1 -2 1.5 -4.5t0.5 -4.5l98 -261v0zM357 352l-24 64l43 115q2 4 3.5 9.5t2.5 10.5q0 5 0.5 9t0.5 8q0 15 -6.5 25.5
t-20.5 17.5q-5 2 -8.5 4t-6.5 4q-5 4 -7 8t-2 11q0 16 9 22t31 6l103 1q14 -1 21.5 -8t7.5 -21q0 -7 -2 -11.5t-7 -8.5q-2 -1 -4.5 -2.5t-5.5 -3.5q-19 -10 -30.5 -23.5t-19.5 -33.5l-10 -24l-68 -179v0z" />
    <glyph glyph-name="z" unicode="z" horiz-adv-x="444" 
d="M427 667v-56l-229 -611h-181v49l230 618h180v0zM427 0h-194l19 49q55 14 80.5 36.5t44.5 77.5q2 4 3.5 8.5t2.5 8.5t2.5 7t2.5 6q4 8 8 11t10 3q10 0 15.5 -8.5t5.5 -25.5v-173v0zM31 667h180l-21 -56q-43 -8 -73.5 -39.5t-42.5 -81.5q-3 -15 -8 -21t-15 -6t-15 8t-5 21
v175v0z" />
    <glyph glyph-name="braceleft" unicode="{" horiz-adv-x="368" 
d="M161 262q38 -9 55.5 -19t27.5 -28q4 -7 6.5 -17t3.5 -24v-16.5v-32.5v-126q0 -40 11.5 -55t47.5 -24q15 -4 21 -10.5t6 -19.5q0 -20 -12 -27t-45 -7h-40q-39 0 -65 10t-40 30q-2 3 -3.5 5.5t-2.5 4.5q-10 19 -12.5 44.5t-2.5 87.5v75l-3 49q0 19 -2 29t-7 18q-1 0 -1.5 1
t-1.5 2l-2.5 2.5l-2.5 2.5q-7 7 -16 11t-24 5q-13 2 -18.5 8.5t-5.5 19.5q0 14 5.5 20.5t18.5 7.5q28 4 42 18t15 40v16l3 48v74q0 42 0.5 60.5t2.5 32.5q0 2 0.5 4.5t1.5 5.5q8 42 37 60t84 18l58 1q20 -1 29.5 -9t9.5 -25q0 -13 -6 -20t-21 -11q-7 -2 -12 -3t-9 -2
q-4 -2 -7 -3t-5 -3q-1 -1 -1.5 -1t-1.5 -1q-8 -6 -14 -16t-7 -21l-1 -15l-1 -17v-121v-42.5t-2 -19.5v-1.5v-0.5q-4 -31 -23 -47t-68 -27v1z" />
    <glyph glyph-name="bar" unicode="|" horiz-adv-x="425" 
d="M166 666h93v-833h-93v833v0z" />
    <glyph glyph-name="braceright" unicode="}" horiz-adv-x="368" 
d="M207 261q-37 7 -55 17t-28 28q-4 8 -6.5 18t-3.5 23v17.5v31.5v128q0 39 -11.5 54.5t-47.5 23.5q-14 4 -20.5 11t-6.5 20q0 20 12 26.5t45 6.5l39 1q40 -1 66.5 -11t39.5 -30q2 -3 3.5 -5.5t2.5 -4.5q10 -19 13 -44.5t3 -88.5v-73l2 -49q1 -21 2.5 -31t7.5 -18l0.5 -1
t1.5 -2q8 -10 18 -14.5t27 -6.5q13 -1 18.5 -7.5t5.5 -20.5q0 -13 -5.5 -19.5t-18.5 -8.5q-28 -3 -42 -17.5t-15 -40.5v-13l-2 -49v-74q0 -43 -1 -61.5t-3 -32.5q0 -2 -0.5 -4.5t-1.5 -5.5q-8 -41 -37 -59.5t-85 -18.5h-57q-19 0 -29 8t-10 25q0 13 6.5 20t20.5 11q7 2 12 3
t9 2l7 3.5t6 3.5l0.5 0.5l0.5 0.5q9 6 15 16t7 21l1 16l1 17v121v40.5t2 19.5v1.5v0.5q4 32 23 47.5t68 26.5v1z" />
    <glyph glyph-name="asciitilde" unicode="~" horiz-adv-x="566" 
d="M427 734l21 -15q-9 -23 -21 -42.5t-26 -37.5q-4 -4 -7.5 -8t-6.5 -7q-12 -11 -24.5 -15.5t-28.5 -4.5q-11 0 -25 4t-36 13l-24 12q-5 2 -11.5 4t-12.5 3q-6 2 -12.5 2.5t-11.5 0.5q-9 0 -16.5 -2t-14.5 -7q-6 -4 -11.5 -10t-12.5 -15l-7 -8l-20 15q10 21 19.5 38t18.5 30
q17 24 34.5 34.5t37.5 10.5h1.5h0.5q12 0 25.5 -4t40.5 -15q25 -10 40.5 -15t25.5 -5q18 0 33.5 10.5t30.5 32.5v1z" />
    <glyph glyph-name="exclamdown" unicode="&#xa1;" horiz-adv-x="459" 
d="M244 -13v54q12 1 16.5 5t4.5 13l-3 16l-3 11q-2 4 -3 10t-1 12q0 33 21 55.5t51 22.5q31 0 53 -24t22 -59q0 -49 -43 -82.5t-105 -33.5h-10v0zM209 44v-55q-67 10 -110 64.5t-43 130.5q0 83 49 141.5t129 69.5h1.5h1.5q18 3 23 8.5t5 24.5q1 16 5.5 22.5t14.5 6.5
q11 0 16.5 -7.5t5.5 -21.5v-170q0 -15 -4 -18.5t-22 -4.5q-44 -1 -71.5 -34t-27.5 -85q0 -25 6.5 -42.5t20.5 -30.5v1zM275 680q34 -1 58 -28.5t24 -66.5t-24 -66.5t-58 -27.5t-57.5 27.5t-23.5 66.5t24 66.5t57 27.5v1z" />
    <glyph glyph-name="cent" unicode="&#xa2;" horiz-adv-x="487" 
d="M276 650v-77q30 -3 50 -9t38 -18q2 -1 4 -2.5t4 -2.5q24 -19 36 -41.5t12 -50.5q0 -37 -19.5 -62t-49.5 -25t-51 25t-21 59q0 4 0.5 8t1.5 8q1 5 3 10t5 11q3 8 4 11.5t1 6.5q0 8 -7 13t-20 5q-25 0 -33.5 -17t-8.5 -65v-192q0 -44 11.5 -63.5t35.5 -19.5h5.5t4.5 1
q23 3 45 18.5t40 41.5q6 10 10.5 14.5t8.5 6.5q2 1 4 1.5t4 0.5q10 0 16 -7t6 -18q0 -17 -12 -37t-35 -42l-3.5 -3.5t-3.5 -2.5q-19 -17 -39.5 -26.5t-46.5 -13.5v-96h-38v94q-23 3 -41 10t-34 18l-8 6l-8 6q-40 34 -60 81t-20 108q0 100 47 168t124 79v80h38v0z" />
    <glyph glyph-name="sterling" unicode="&#xa3;" horiz-adv-x="487" 
d="M175 35l-10 -6l-22 -19q-10 -9 -21.5 -13t-23.5 -4q-27 0 -43 18.5t-16 52.5q0 54 38 92t92 38q11 0 24.5 -1.5t27.5 -4.5q3 0 5.5 -0.5t5.5 -1.5q11 -2 26 -5.5t32 -7.5q27 -7 43 -9.5t29 -2.5q17 0 26 5.5t13 16.5l8 27q2 4 7 7.5t11 3.5q11 0 15.5 -9.5t4.5 -30.5
q0 -34 -7 -64.5t-21 -59.5q-17 -33 -47 -51t-66 -18q-8 0 -17 1t-19 3q-18 4 -35 10.5t-31 15.5q-11 8 -18.5 12t-10.5 4v1zM262 678v-58q-19 -11 -27.5 -30.5t-8.5 -52.5q0 -15 1.5 -30.5t4.5 -31.5q2 -10 4 -19.5t5 -18.5l13 -43q1 -5 2 -9l2 -8q1 -11 2 -21.5t2 -24.5
l94 1v-56h-102l-5 -15l-4 -12v-0.5t-1 -1.5q-2 -6 -4.5 -12.5t-5.5 -15.5l-56 3l3 31v23h-94v56h77l-4 4l-3 3l-1.5 1.5l-0.5 0.5q-3 4 -7 7.5l-12 10.5q-38 32 -55.5 66t-17.5 73q0 83 48.5 131t131.5 48l19 1v0zM286 677q36 -6 59.5 -17t42.5 -32q19 -19 30 -44t13 -51
v-4.5v-4.5q0 -41 -26 -71t-61 -30q-31 0 -54.5 26t-23.5 61q0 10 2 19.5t6 18.5t10.5 18t15.5 19q4 5 6 8.5t2 5.5q0 6 -5 10t-17 7v61v0z" />
    <glyph glyph-name="currency" unicode="&#xa4;" horiz-adv-x="566" 
d="M165 128l-71 -84q-5 -7 -8 -10t-5 -4h-2h-2h-2h-1q-3 1 -6 4t-8 9l-26 31q-5 5 -7.5 8.5t-2.5 6.5q-1 1 -1 2v2v2t1 2q0 3 2.5 6.5t7.5 9.5l72 85q-6 9 -11 19t-9 20q-9 23 -13.5 46.5t-4.5 49.5q0 24 3.5 46t11.5 43q4 12 10 24t13 24l-38 46l-34 39q-5 5 -7.5 8.5
t-2.5 6.5q-1 1 -1 2v2v1.5v1.5q1 3 3.5 6t7.5 10l26 32l8 8t6 4h1h2h2h2q2 -1 5 -4t8 -9l27 -31l44 -52q11 7 20 13t18 11q8 4 17 7t20 6q5 1 8 2t6 1q3 1 5.5 1.5t6.5 0.5v-115q-1 -1 -1.5 -1h-1.5q-1 -1 -2 -1t-4 -1h-0.5t-0.5 -1h-1h-1l-1 -0.5t-3 -0.5q-1 -1 -2.5 -1
t-2.5 -1h-0.5h-0.5q-1 -1 -2.5 -1.5t-3.5 -1.5q-3 -2 -5.5 -3t-4.5 -3q-1 -1 -2.5 -1.5t-2.5 -1.5q-3 -2 -6.5 -5t-8.5 -8q-20 -21 -30 -47t-10 -56q0 -29 10 -55t30 -48q5 -4 8.5 -7t6.5 -5l1.5 -1.5t1.5 -0.5q2 -2 5 -4t7 -4q2 -1 3.5 -1.5t2.5 -0.5q1 -1 2.5 -1.5
t3.5 -1.5h5l2 -1l3 -1.5t2 -0.5h1v0q1 0 1.5 -0.5t1.5 -0.5v-114q-1 -1 -2 -1t-1 1h-2h-2q-3 0 -6.5 0.5t-9.5 1.5q-2 1 -3.5 1t-2.5 1h-0.5h-0.5l-6 2t-7 2q-5 2 -9 4t-7 3q-1 1 -2 1.5t-2 0.5q-4 2 -8.5 4.5t-9.5 5.5q-2 1 -3.5 2t-2.5 2v0.5t-1 0.5q-2 2 -5 4t-8 6v1z
M402 541l71 84l8 8t6 4h1h2h2h2q2 -1 5 -4t8 -9l25 -30q6 -8 8.5 -11t3.5 -6v-1.5v-1.5v-2t-1 -2q0 -3 -3 -6.5t-8 -9.5l-71 -83q7 -13 12.5 -25t10.5 -24q7 -21 11 -43t4 -46q0 -26 -4.5 -49.5t-13.5 -46.5q-4 -10 -9 -20t-11 -20l71 -83q5 -7 8 -10.5t3 -6.5q1 -1 1 -2v-2
v-2t-1 -2q0 -3 -3 -6.5t-8 -9.5l-25 -29q-5 -7 -8 -10t-5 -4h-2h-2h-2h-1q-3 1 -6 4t-8 9l-71 85q-11 -10 -21.5 -16.5t-20.5 -11.5q-13 -7 -27.5 -10.5t-32.5 -5.5v26v5v61v5v19q2 -1 3 -0.5t2 0.5l1.5 0.5t2.5 0.5t1.5 0.5t1.5 0.5q1 1 2 1h3l3 1.5t2 0.5h1v0q1 1 2 1t2 1
q34 18 53.5 51.5t19.5 74.5q0 42 -19.5 75.5t-53.5 50.5q-1 1 -2 1.5t-2 0.5q-1 1 -2.5 1.5t-3.5 0.5q-1 0 -2.5 0.5l-1.5 0.5h-1v0q-1 0 -1.5 0.5t-1.5 0.5t-2.5 0.5l-1.5 0.5q-1 1 -2 1h-3v21v5v61v4v26q5 -1 8 -1.5t6 -1.5q3 0 5 -0.5t5 -1.5q2 0 3 -0.5t3 -0.5
q2 -1 5 -1.5t7 -2.5q5 -2 9 -3.5t8 -3.5l8 -4t7 -4q7 -4 13.5 -8.5t14.5 -10.5v1z" />
    <glyph glyph-name="yen" unicode="&#xa5;" horiz-adv-x="487" 
d="M334 258v-165q0 -16 3 -25t10 -11l15 -4q9 -3 13 -10t4 -17q0 -14 -7 -20t-26 -6h-12h-169h-12q-17 0 -25 6.5t-8 20.5q0 10 4.5 16.5t13.5 8.5l15 6q6 1 9.5 10t3.5 24v166h-107v48h94l-34 99h-80v48h64l-39 114q-3 6 -5 12t-4 10q-4 7 -8.5 11.5t-11.5 7.5
q-1 1 -2.5 1.5t-2.5 0.5q-10 6 -13.5 12t-3.5 17q0 14 7.5 19.5t24.5 6.5l11 2h184q15 -1 22.5 -7.5t7.5 -20.5q0 -7 -3 -12.5t-8 -10.5l-11 -8q-4 -3 -5 -7.5t-1 -9.5v-5.5t1 -6.5q0 -3 0.5 -6.5t1.5 -5.5l89 -261h100v-48h-100v0zM385 453h57v-48h-76l-21 -55l-23 66
l44 115q2 4 3 8.5t2 9.5q1 4 1.5 9t0.5 9q0 16 -7 26.5t-21 17.5q-3 1 -5.5 2.5t-4.5 2.5q-9 4 -11.5 9.5t-2.5 13.5q0 14 8.5 20.5t26.5 6.5l108 1q11 -1 17 -8t6 -19q0 -7 -2.5 -12.5t-8.5 -10.5q-1 -1 -2.5 -2t-3.5 -2q-4 -2 -7 -4t-5 -3q-8 -5 -12.5 -10.5t-9.5 -14.5
q-3 -5 -5.5 -11.5t-5.5 -14.5l-11 -24l-29 -78v0z" />
    <glyph glyph-name="brokenbar" unicode="&#xa6;" 
 />
    <glyph glyph-name="section" unicode="&#xa7;" horiz-adv-x="425" 
d="M77 388l44 -36l-3 -13.5t-1 -8.5v-3.5t1 -2.5q2 -12 23 -28.5t89 -60.5q42 -28 64.5 -44.5t36.5 -30.5q2 -2 3.5 -4t3.5 -4q21 -23 33 -56.5t12 -68.5q0 -74 -42.5 -118.5t-114.5 -44.5h-8h-8q-15 2 -31 5t-33 9l-25 5l-14 -3l-12 -5l-11 -2q-10 0 -13.5 8t-3.5 27v92
q0 19 8.5 31.5t21.5 12.5q11 0 17.5 -7t11.5 -25q15 -45 34 -64t50 -19q25 0 40 13t15 35q0 13 -6 22t-20 18q-1 1 -3 2l-4 2l-58 34q-33 18 -57.5 34t-39.5 29q-24 22 -39 58t-15 75q0 17 2.5 31.5t7.5 29.5q6 17 17 35.5t27 39.5v1zM356 179l-46 35q2 5 3 9t1 7t-0.5 6.5
t-1.5 6.5q-5 10 -18 21.5t-40 28.5q-7 5 -15.5 10.5t-17.5 11.5q-13 8 -25 15.5t-20 13.5q-27 17 -43.5 30t-27.5 24q-3 3 -5.5 6t-5.5 6q-19 23 -28.5 49t-9.5 59q0 69 42 112.5t109 43.5q10 0 19 -1t18 -3l37 -8l16 -2l25 3l14 3q9 -1 12.5 -8t3.5 -24v-95
q0 -20 -6.5 -29.5t-18.5 -9.5q-10 0 -16 5.5t-11 17.5l-11 34q-11 28 -26.5 41t-39.5 13q-19 0 -31.5 -11t-12.5 -28q0 -11 4.5 -19.5t15.5 -16.5q3 -2 6.5 -4.5t7.5 -4.5q44 -24 76.5 -44.5t50.5 -35.5q27 -23 44 -60.5t18 -78.5v-2.5v-3.5q0 -19 -3 -36t-11 -34
q-5 -13 -13 -26.5t-19 -27.5v1z" />
    <glyph glyph-name="dieresis" unicode="&#xa8;" horiz-adv-x="425" 
d="M133 850q26 -1 44 -21.5t18 -50.5q0 -29 -18 -50t-44 -21q-25 0 -43.5 21t-18.5 50q0 30 18.5 50.5t43.5 20.5v1zM291 850q26 -1 44.5 -21.5t18.5 -50.5q0 -29 -18.5 -50t-44.5 -21q-25 0 -43.5 21t-18.5 50q0 30 18.5 50.5t43.5 20.5v1z" />
    <glyph glyph-name="copyright" unicode="&#xa9;" horiz-adv-x="619" 
d="M310 678q121 -1 206.5 -102t85.5 -244q0 -142 -85.5 -243t-206.5 -101t-207 101t-86 243q0 143 85.5 244t207.5 101v1zM310 622q-100 -1 -171 -85.5t-71 -204.5q0 -119 71 -203.5t171 -84.5t170.5 84.5t70.5 203.5t-70.5 204t-170.5 85v1zM317 538v-35q-16 -4 -23 -16
t-7 -35v-235v-12q1 -18 9 -27.5t21 -11.5v-34q-73 1 -114.5 53t-41.5 142q0 41 9 75.5t26 61.5q14 22 34.5 39t42.5 26q10 4 19 6t18 2l7 1v0zM339 132v35q26 1 48 20.5t30 47.5q3 10 6.5 13.5t9.5 3.5t10 -5t4 -13t-4 -18.5t-10 -21.5q-5 -8 -11 -16t-13 -15q-3 -3 -6.5 -6
t-6.5 -5q-13 -10 -26.5 -15t-30.5 -6v1zM339 503v34q9 -2 16 -4t13 -5l20 -6q7 -4 11 -5.5t7 -1.5h1.5t1.5 1q3 1 5 3t3 4l3 8q2 2 5 4t7 2q8 0 11.5 -5t3.5 -14v-117q0 -11 -4 -17t-12 -6q-5 0 -9 4.5t-7 14.5q-10 47 -30 74t-46 31v1z" />
    <glyph glyph-name="ordfeminine" unicode="&#xaa;" horiz-adv-x="325" 
d="M290 329v-30q0 -6 -3.5 -8t-14.5 -2l-203 1q-10 -1 -14 1t-4 7v31q0 4 4 6t14 2l203 1q11 -1 14.5 -3t3.5 -7v1zM126 509v-45q0 -20 5.5 -30t16.5 -10q8 -1 12 -4.5t4 -9.5q0 -7 -11.5 -11.5t-30.5 -4.5q-37 0 -60 23.5t-23 61.5q0 42 26 65.5t71 23.5q11 0 14.5 -2.5
t3.5 -10.5q0 -3 -0.5 -5.5t-3.5 -4.5q-1 -2 -2.5 -3t-4.5 -2q-9 -4 -13 -11.5t-4 -20.5v1zM265 587v-100q0 -20 4 -29.5t11 -9.5q2 0 3.5 0.5t3.5 2.5q1 1 2.5 3t3.5 5q2 2 3 3.5t3 2.5q1 1 2.5 1.5t2.5 0.5q5 0 7.5 -3.5t2.5 -8.5q0 -24 -21 -42.5t-50 -18.5
q-34 0 -51.5 19t-17.5 55v186q0 11 3 15t12 4q35 0 55.5 -23t20.5 -64v1zM84 580q-16 -1 -24.5 8.5t-8.5 25.5q0 26 23 42.5t58 16.5q11 0 16 -2.5t5 -7.5q0 -3 -1.5 -5.5t-4.5 -3.5l-10 -2q-7 -3 -12 -9t-6 -13v-1v-2v-3v-4q0 -21 -9 -31t-26 -10v1z" />
    <glyph glyph-name="guillemotleft" unicode="&#xab;" horiz-adv-x="459" 
d="M186 524l35 -34q3 -4 5 -6.5t3 -4.5q2 -2 2.5 -4.5t0.5 -5.5q0 -8 -6.5 -19t-21.5 -30q-17 -21 -29.5 -38t-20.5 -28q-4 -7 -5.5 -10.5t-1.5 -6.5q0 -1 1 -4t3 -6q0 -1 0.5 -1.5l1.5 -1.5l21 -31l27 -39q21 -30 26.5 -39.5t5.5 -15.5v-1.5v-1.5v-3.5t-1 -3.5
q-1 -3 -5 -7.5t-12 -10.5l-32 -23q-1 -2 -3 -3l-4 -2l-4.5 -1.5t-3.5 -0.5q-4 0 -8 4t-10 14l-78 133q-7 10 -10.5 16.5t-4.5 12.5q-1 3 -1 5.5v5.5q0 8 1.5 14.5t4.5 10.5l11 20l77 135l9 16l5 2.5t6 1.5h2t2 -1q2 0 5 -2.5t7 -5.5v1zM356 524l35 -34q3 -4 5 -6.5t3 -4.5
q2 -2 2.5 -4.5t0.5 -5.5q0 -8 -6.5 -19t-21.5 -30q-17 -21 -29.5 -38t-20.5 -28q-4 -7 -5.5 -10.5t-1.5 -6.5q0 -1 1 -4t3 -6q0 -1 0.5 -1.5l1.5 -1.5l21 -31l27 -39q21 -30 26.5 -39.5t5.5 -15.5v-1.5v-1.5v-3.5t-1 -3.5q-1 -3 -5 -7.5t-12 -10.5l-32 -23q-1 -2 -3 -3
l-4 -2l-4.5 -1.5t-3.5 -0.5q-4 0 -8 4t-10 14l-78 133q-7 10 -10.5 16.5t-4.5 12.5q-1 3 -1 5.5v5.5q0 8 1.5 14.5t4.5 10.5l11 20l77 135l9 16l5 2.5t6 1.5h2t2 -1q2 0 5 -2.5t7 -5.5v1z" />
    <glyph glyph-name="logicalnot" unicode="&#xac;" horiz-adv-x="425" 
d="M250 0v192h-227v75h377v-267h-150v0z" />
    <glyph glyph-name="sfthyphen" unicode="&#xad;" 
 />
    <glyph glyph-name="registered" unicode="&#xae;" horiz-adv-x="619" 
d="M310 678q121 -1 206.5 -102t85.5 -244q0 -142 -85.5 -243t-206.5 -101t-207 101t-86 243q0 143 85.5 244t207.5 101v1zM310 622q-100 -1 -171 -85.5t-71 -204.5q0 -119 71 -203.5t171 -84.5t170.5 84.5t70.5 203.5t-70.5 204t-170.5 85v1zM312 498v31h7q36 -1 54 -4
t32 -11l4 -2l4 -2q20 -13 30.5 -33t10.5 -46q0 -22 -7.5 -40.5t-21.5 -29.5l-0.5 -0.5l-1.5 -1.5q-4 -4 -9 -7t-12 -6q-5 -3 -13 -6t-18 -6q5 -1 9.5 -2t8.5 -1q9 -2 15.5 -4.5t12.5 -4.5q2 -1 4 -2.5t4 -2.5q13 -9 20 -22t7 -28v-57q0 -5 1 -7t5 -2h1h1q1 1 2 2.5t2 3.5
q4 5 7.5 7t6.5 2h1.5h0.5q3 -1 6 -4.5t4 -7.5q1 -1 1 -2v-2q0 -5 -2.5 -11t-7.5 -12q-4 -7 -10 -13t-12 -11q-9 -7 -20.5 -10t-25.5 -3q-34 0 -53 21.5t-19 58.5v48q0 23 -6.5 34.5t-22.5 13.5v30q17 2 23 10.5t6 27.5v74q0 16 -6 25t-23 14v1zM293 529v-327q0 -11 2 -15
t10 -7q2 0 3 -0.5t3 -0.5q7 -1 10 -5.5t3 -9.5q0 -8 -5.5 -12t-17.5 -4l-8 1h-115h-7q-10 -1 -14.5 3t-4.5 11q0 5 2.5 9t7.5 6q1 0 2 0.5l1 0.5q9 3 11 6.5t2 13.5v279q0 9 -2 12.5t-11 6.5l-1 0.5t-2 0.5q-5 2 -7.5 6t-2.5 9q0 8 4.5 11.5t14.5 3.5l7 1h115v0z" />
    <glyph glyph-name="overstore" unicode="&#xaf;" 
 />
    <glyph glyph-name="glyph113" unicode="&#xb0;" 
 />
    <glyph glyph-name="plusminus" unicode="&#xb1;" horiz-adv-x="487" 
d="M455 41v-68q0 -11 -3 -15.5t-14 -4.5h-390q-10 0 -13.5 4.5t-3.5 15.5v68q0 10 3.5 14.5t13.5 4.5l390 1q11 -1 14 -5.5t3 -15.5v1zM291 282v-156q0 -13 -3.5 -17t-13.5 -4l-61 1q-10 -1 -13.5 3t-3.5 16v157h-148q-10 -1 -13.5 3.5t-3.5 15.5v64q0 10 3.5 14.5t13.5 4.5
l148 1v177q0 10 3.5 14.5t13.5 4.5l61 1q10 -1 13.5 -5.5t3.5 -15.5v-176h147q11 -1 14 -5.5t3 -15.5v-62q0 -12 -3 -16.5t-14 -4.5l-147 1v0z" />
    <glyph glyph-name="twosuperior" unicode="&#xb2;" 
 />
    <glyph glyph-name="threesuperior" unicode="&#xb3;" 
 />
    <glyph glyph-name="acute" unicode="&#xb4;" horiz-adv-x="425" 
d="M334 824l-113 -104l-8 -7q-3 -3 -5 -4.5t-4 -2.5q-1 -1 -2 -1h-3l-29 1q-5 -1 -8.5 1t-3.5 6l1 7l62 113q3 3 5 6t4 5q3 4 7 5t12 1l83 1q6 -1 9.5 -4t3.5 -8v-2t-1 -2q0 -2 -2.5 -5t-7.5 -7v1z" />
    <glyph glyph-name="mu" unicode="&#xb5;" horiz-adv-x="474" 
d="M415 457v-322q0 -52 7 -68.5t27 -16.5h1h1q4 0 8.5 0.5t13.5 2.5v-19l-117 -46l-5 -1h-2.5t-3.5 1q-7 1 -13.5 5.5t-10.5 9.5l-0.5 0.5t-0.5 1.5q-2 3 -4 6.5t-4 7.5q-3 6 -5.5 14t-6.5 20q-9 -13 -15 -20.5t-11 -13.5l-2.5 -2.5l-2.5 -2.5q-15 -14 -33 -22t-38 -8
q-34 0 -54 18t-37 64v-14q0 -8 0.5 -15t0.5 -13q1 -11 3.5 -22t6.5 -25q2 -7 4 -16t5 -19q1 -2 1.5 -4t1.5 -4q1 -6 3 -11.5t3 -10.5q5 -16 8 -30t3 -24q0 -23 -16.5 -39.5t-39.5 -16.5q-28 0 -45 16t-17 44q0 11 2.5 29t5.5 38q7 37 12.5 82t9.5 92q2 34 3.5 67.5t1.5 63.5
v223h123v-288q0 -62 10.5 -91.5t32.5 -29.5q7 0 13 1.5t11 5.5q9 5 18.5 15.5t20.5 26.5v360h122v0z" />
    <glyph glyph-name="paragraph" unicode="&#xb6;" horiz-adv-x="742" 
d="M419 -144h-144h-13q-18 0 -26.5 7t-8.5 21q0 10 5 16.5t14 8.5l15 5q8 2 11.5 11t3.5 24v718h143v-53q-13 -5 -17 -12.5t-4 -27.5v-625q0 -21 4 -28.5t17 -11.5v-53v0zM451 -144v53q12 4 16 12t4 28v626q0 19 -4 26.5t-16 11.5v54h144v-718q0 -15 3.5 -24t9.5 -11l15 -5
q10 -2 15 -9t5 -17q0 -14 -9 -20.5t-27 -6.5h-156v0zM244 614q-25 -5 -35.5 -21t-10.5 -51v-156q0 -38 10 -54.5t36 -24.5v-51h-6q-23 -1 -43.5 0.5t-37.5 5.5q-67 15 -103.5 68t-36.5 132q0 77 35.5 129.5t98.5 66.5q18 5 41 6.5t52 1.5v-52v0zM725 667v-183
q0 -14 -6 -22.5t-17 -8.5q-9 0 -15 7.5t-8 20.5l-4 29q-5 37 -17.5 63t-31.5 39v55h99v0z" />
    <glyph glyph-name="middot" unicode="&#xb7;" 
 />
    <glyph glyph-name="cedilla" unicode="&#xb8;" horiz-adv-x="425" 
d="M214 -43q35 0 60.5 -36.5t25.5 -83.5q0 -45 -30 -77t-74 -32q-18 0 -28 7t-10 20q0 8 5 14t13 5h13q23 -1 37.5 11.5t14.5 32.5q0 16 -8.5 24.5t-28.5 11.5q-19 3 -28.5 16t-9.5 36q0 24 13 37.5t35 13.5v0z" />
    <glyph glyph-name="onesuperior" unicode="&#xb9;" 
 />
    <glyph glyph-name="ordmasculine" unicode="&#xba;" horiz-adv-x="325" 
d="M284 329v-30q0 -6 -3.5 -8t-14.5 -2l-203 1q-10 -1 -14 1t-4 7v31q0 4 4 6t14 2l203 1q11 -1 14.5 -3t3.5 -7v1zM127 606v-141v-19q1 -10 3.5 -15t9.5 -9q3 -2 5.5 -3.5t3.5 -3.5q2 -2 2.5 -4t0.5 -5q0 -6 -3 -9t-8 -3q-8 0 -17 2.5t-19 7.5q-5 3 -11 7t-11 8
q-25 21 -37 48.5t-12 66.5q0 41 13.5 70t42.5 50q4 3 8.5 6t9.5 5q9 4 17.5 6.5t15.5 2.5q5 0 8 -2.5t3 -9.5q0 -3 -0.5 -5t-2.5 -4q-1 -2 -3.5 -3.5t-5.5 -3.5q-7 -4 -10 -9t-3 -14v-17v0zM197 465v141v18q-1 9 -3.5 13.5t-9.5 8.5q-3 2 -5.5 3.5t-3.5 3.5q-2 2 -2.5 4
t-0.5 5q0 6 2.5 9t7.5 3q8 0 17 -2.5t19 -7.5q5 -3 11 -6.5t11 -8.5q26 -21 38 -48.5t12 -66.5q0 -40 -14 -69.5t-43 -50.5q-4 -3 -8.5 -6t-8.5 -5q-9 -4 -17.5 -6.5t-16.5 -2.5q-5 0 -7.5 3t-2.5 9q0 3 0.5 5t2.5 4q1 2 3.5 3.5t5.5 3.5q7 4 10 9.5t3 13.5v20v0z" />
    <glyph glyph-name="guillemotright" unicode="&#xbb;" horiz-adv-x="459" 
d="M139 512l76 -135l12 -19q3 -7 4 -13t1 -13v-5.5t-1 -5.5q-1 -6 -4 -12.5t-9 -17.5l-79 -131q-4 -7 -7 -11t-5 -6l-3 -1.5t-3 -0.5q-1 0 -3.5 0.5t-4.5 1.5l-4 2t-3 2l-32 25q-8 5 -12 9.5t-5 7.5q-1 2 -1 3.5v3.5v1.5v1.5q1 6 6.5 15.5t25.5 38.5l27 40l21 32
q4 4 5.5 7.5t1.5 4.5q0 3 -1.5 6.5t-6.5 10.5q-8 11 -20.5 28t-29.5 38q-15 19 -21.5 30t-6.5 18q0 4 1.5 7.5t3.5 6.5q1 2 2.5 3.5l3.5 3.5l35 35q4 2 7 4.5t5 2.5q1 1 2 1h2q4 0 7 -1.5t4 -3.5l9 -15v0zM309 512l76 -135l12 -19q3 -7 4 -13t1 -13v-5.5t-1 -5.5
q-1 -6 -4 -12.5t-9 -17.5l-79 -131q-4 -7 -7 -11t-5 -6l-3 -1.5t-3 -0.5q-1 0 -3.5 0.5t-4.5 1.5l-4 2t-3 2l-32 25q-8 5 -12 9.5t-5 7.5q-1 2 -1 3.5v3.5v1.5v1.5q1 6 6.5 15.5t25.5 38.5l27 40l21 32q4 4 5.5 7.5t1.5 4.5q0 3 -1.5 6.5t-6.5 10.5q-8 11 -20.5 28t-29.5 38
q-15 19 -21.5 30t-6.5 18q0 4 1.5 7.5t3.5 6.5q1 2 2.5 3.5l3.5 3.5l35 35q4 2 7 4.5t5 2.5q1 1 2 1h2q4 0 7 -1.5t4 -3.5l9 -15v0z" />
    <glyph glyph-name="onequarter" unicode="&#xbc;" 
 />
    <glyph glyph-name="onehalf" unicode="&#xbd;" 
 />
    <glyph glyph-name="threequarters" unicode="&#xbe;" 
 />
    <glyph glyph-name="questiondown" unicode="&#xbf;" horiz-adv-x="286" 
d="M56 107v3.5v5.5q1 20 6.5 44t16.5 65q17 63 26 106.5t10 82.5q1 20 6.5 28t17.5 8q11 0 16.5 -7t6.5 -23q0 -5 0.5 -9.5t0.5 -8.5q1 -10 1.5 -16.5t1.5 -13.5q1 -6 2 -12.5t3 -16.5q5 -26 12 -53t16 -57q6 -19 10.5 -34t6.5 -25q2 -7 3.5 -13.5t2.5 -13.5q3 -12 4 -24
t1 -22q0 -49 -24 -81.5t-62 -32.5q-37 0 -61 33.5t-24 85.5v1zM141 680q35 -1 58.5 -28.5t23.5 -66.5t-23.5 -66.5t-58.5 -27.5q-34 0 -57 27.5t-23 66.5t23.5 66.5t56.5 27.5v1z" />
    <glyph glyph-name="Agrave" unicode="&#xc0;" horiz-adv-x="526" 
d="M171 542l21 -101l-73 -315q-1 -4 -1.5 -7.5t-0.5 -6.5q-1 -3 -1 -6.5v-6.5q0 -14 6 -25.5t19 -17.5l13 -7q7 -5 11 -11.5t4 -14.5q0 -11 -8 -17t-23 -6h-105q-15 0 -24 7t-9 19q0 8 4 14t14 11q26 14 38.5 32t21.5 56l93 403v0zM200 667h168l114 -574q0 -3 0.5 -5t1.5 -4
q4 -16 9 -23t14 -11q1 -1 2 -1.5t2 -0.5q8 -5 11.5 -10.5t3.5 -14.5q0 -11 -8 -17t-25 -6h-207q-12 0 -19.5 6.5t-7.5 18.5q0 6 1 10t4 7q2 2 5.5 4.5t7.5 5.5q1 1 2 1.5t2 0.5q6 5 8.5 10.5t2.5 14.5l-1 14l-14 71h-115l11 60h93l-76 395l10 48v0zM156 852h83q8 -1 12.5 -2
t8.5 -6q1 -2 3 -4.5t4 -6.5l62 -112l2 -6q0 -5 -3.5 -7t-8.5 -2l-30 1q-2 -1 -3 -0.5t-2 0.5q-2 1 -3.5 2.5t-4.5 3.5l-8 8l-115 104q-4 4 -6.5 7t-3.5 5v1.5v0.5q0 5 4 8.5t9 3.5v1z" />
    <glyph glyph-name="Aacute" unicode="&#xc1;" horiz-adv-x="526" 
d="M171 542l21 -101l-73 -315q-1 -4 -1.5 -7.5t-0.5 -6.5q-1 -3 -1 -6.5v-6.5q0 -14 6 -25.5t19 -17.5l13 -7q7 -5 11 -11.5t4 -14.5q0 -11 -8 -17t-23 -6h-105q-15 0 -24 7t-9 19q0 8 4 14t14 11q26 14 38.5 32t21.5 56l93 403v0zM200 667h168l114 -574q0 -3 0.5 -5t1.5 -4
q4 -16 9 -23t14 -11q1 -1 2 -1.5t2 -0.5q8 -5 11.5 -10.5t3.5 -14.5q0 -11 -8 -17t-25 -6h-207q-12 0 -19.5 6.5t-7.5 18.5q0 6 1 10t4 7q2 2 5.5 4.5t7.5 5.5q1 1 2 1.5t2 0.5q6 5 8.5 10.5t2.5 14.5l-1 14l-14 71h-115l11 60h93l-76 395l10 48v0zM385 825l-113 -104l-8 -7
q-3 -3 -5 -4.5t-4 -2.5q-1 -1 -2 -1h-3l-29 1q-5 -1 -8.5 1t-3.5 6l1 7l62 113q3 3 5 6t4 5q3 4 7 5t12 1l83 1q6 -1 9.5 -4t3.5 -8v-2t-1 -2q0 -2 -2.5 -5t-7.5 -7v1z" />
    <glyph glyph-name="Acircumflex" unicode="&#xc2;" horiz-adv-x="526" 
d="M171 542l21 -101l-73 -315q-1 -4 -1.5 -7.5t-0.5 -6.5q-1 -3 -1 -6.5v-6.5q0 -14 6 -25.5t19 -17.5l13 -7q7 -5 11 -11.5t4 -14.5q0 -11 -8 -17t-23 -6h-105q-15 0 -24 7t-9 19q0 8 4 14t14 11q26 14 38.5 32t21.5 56l93 403v0zM200 667h168l114 -574q0 -3 0.5 -5t1.5 -4
q4 -16 9 -23t14 -11q1 -1 2 -1.5t2 -0.5q8 -5 11.5 -10.5t3.5 -14.5q0 -11 -8 -17t-25 -6h-207q-12 0 -19.5 6.5t-7.5 18.5q0 6 1 10t4 7q2 2 5.5 4.5t7.5 5.5q1 1 2 1.5t2 0.5q6 5 8.5 10.5t2.5 14.5l-1 14l-14 71h-115l11 60h93l-76 395l10 48v0zM275 760l-20 -38l-5 -9
q0 -1 -0.5 -1.5l-0.5 -0.5q-3 -3 -6.5 -4t-13.5 -1l-59 1q-10 -1 -14.5 1.5t-4.5 8.5v2t1 3q0 2 2 4.5t4 5.5l80 100q6 7 11 11t10 6q2 1 3.5 1h3.5l21 1q5 -1 10 -3.5t10 -6.5q2 -2 5 -4.5t5 -5.5l82 -98l6 -8l3 -8q0 -7 -3.5 -9t-11.5 -2l-68 1q-13 -1 -19.5 2.5
t-11.5 11.5l-19 39v0z" />
    <glyph glyph-name="Atilde" unicode="&#xc3;" horiz-adv-x="526" 
d="M171 542l21 -101l-73 -315q-1 -4 -1.5 -7.5t-0.5 -6.5q-1 -3 -1 -6.5v-6.5q0 -14 6 -25.5t19 -17.5l13 -7q7 -5 11 -11.5t4 -14.5q0 -11 -8 -17t-23 -6h-105q-15 0 -24 7t-9 19q0 8 4 14t14 11q26 14 38.5 32t21.5 56l93 403v0zM200 667h168l114 -574q0 -3 0.5 -5t1.5 -4
q4 -16 9 -23t14 -11q1 -1 2 -1.5t2 -0.5q8 -5 11.5 -10.5t3.5 -14.5q0 -11 -8 -17t-25 -6h-207q-12 0 -19.5 6.5t-7.5 18.5q0 6 1 10t4 7q2 2 5.5 4.5t7.5 5.5q1 1 2 1.5t2 0.5q6 5 8.5 10.5t2.5 14.5l-1 14l-14 71h-115l11 60h93l-76 395l10 48v0zM227 851q2 -1 4 -1h4
q12 -2 25.5 -8t34.5 -19q18 -11 34 -17t28 -6q8 0 13.5 6.5t8.5 21.5q1 2 1.5 4t0.5 3q3 7 5.5 9.5t6.5 2.5q11 0 15 -5.5t4 -19.5q0 -8 -1.5 -17t-3.5 -19q-3 -10 -6.5 -19t-7.5 -17q-11 -22 -28 -33t-37 -11h-4h-4q-11 1 -23.5 6t-30.5 15l-28 17q-14 7 -23 10.5t-16 3.5
q-8 0 -14 -6.5t-10 -20.5q-1 -5 -2.5 -8.5t-2.5 -5.5q-2 -3 -4 -4.5t-5 -1.5q-9 0 -14 6.5t-5 18.5q0 8 1.5 17.5t4.5 18.5q3 12 8 22.5t10 19.5q11 18 27 27t34 9v1z" />
    <glyph glyph-name="Adieresis" unicode="&#xc4;" horiz-adv-x="526" 
d="M171 542l21 -101l-73 -315q-1 -4 -1.5 -7.5t-0.5 -6.5q-1 -3 -1 -6.5v-6.5q0 -14 6 -25.5t19 -17.5l13 -7q7 -5 11 -11.5t4 -14.5q0 -11 -8 -17t-23 -6h-105q-15 0 -24 7t-9 19q0 8 4 14t14 11q26 14 38.5 32t21.5 56l93 403v0zM200 667h168l114 -574q0 -3 0.5 -5t1.5 -4
q4 -16 9 -23t14 -11q1 -1 2 -1.5t2 -0.5q8 -5 11.5 -10.5t3.5 -14.5q0 -11 -8 -17t-25 -6h-207q-12 0 -19.5 6.5t-7.5 18.5q0 6 1 10t4 7q2 2 5.5 4.5t7.5 5.5q1 1 2 1.5t2 0.5q6 5 8.5 10.5t2.5 14.5l-1 14l-14 71h-115l11 60h93l-76 395l10 48v0zM200 850q26 -1 44 -21.5
t18 -50.5q0 -29 -18 -50t-44 -21q-25 0 -43.5 21t-18.5 50q0 30 18.5 50.5t43.5 20.5v1zM358 850q26 -1 44.5 -21.5t18.5 -50.5q0 -29 -18.5 -50t-44.5 -21q-25 0 -43.5 21t-18.5 50q0 30 18.5 50.5t43.5 20.5v1z" />
    <glyph glyph-name="Aring" unicode="&#xc5;" horiz-adv-x="526" 
d="M171 542l21 -101l-73 -315q-1 -4 -1.5 -7.5t-0.5 -6.5q-1 -3 -1 -6.5v-6.5q0 -14 6 -25.5t19 -17.5l13 -7q7 -5 11 -11.5t4 -14.5q0 -11 -8 -17t-23 -6h-105q-15 0 -24 7t-9 19q0 8 4 14t14 11q26 14 38.5 32t21.5 56l93 403v0zM200 667h168l114 -574q0 -3 0.5 -5t1.5 -4
q4 -16 9 -23t14 -11q1 -1 2 -1.5t2 -0.5q8 -5 11.5 -10.5t3.5 -14.5q0 -11 -8 -17t-25 -6h-207q-12 0 -19.5 6.5t-7.5 18.5q0 6 1 10t4 7q2 2 5.5 4.5t7.5 5.5q1 1 2 1.5t2 0.5q6 5 8.5 10.5t2.5 14.5l-1 14l-14 71h-115l11 60h93l-76 395l10 48v0zM265 697q-37 9 -57.5 37
t-20.5 68q0 41 20.5 68.5t57.5 37.5v-63q-13 -8 -18.5 -18.5t-5.5 -24.5t5.5 -24t18.5 -18v-63v0zM295 909q38 -11 58.5 -38.5t20.5 -68.5q0 -40 -20.5 -68t-58.5 -38v65q13 7 18.5 17t5.5 24t-6 24t-18 18v65v0z" />
    <glyph glyph-name="AE" unicode="&#xc6;" horiz-adv-x="748" 
d="M297 560v-91l-183 -350q-5 -11 -7.5 -18.5t-2.5 -14.5q0 -11 6.5 -19t19.5 -15l10 -5t7 -4q6 -4 7.5 -8.5t1.5 -11.5q0 -11 -6 -17t-17 -6h-122q-9 0 -15 6.5t-6 16.5t4.5 16t11.5 10q5 2 9.5 4t7.5 4q6 4 10.5 8t8.5 10q2 3 4 7.5t5 9.5l246 468v0zM510 667v-667h-185
h-11q-15 0 -23 6.5t-8 19.5q0 9 4.5 15.5t12.5 9.5q4 1 7 2.5l5 2.5q9 5 11 11t2 21v77h-156l27 58h129v355q0 14 -2 20t-11 11l-5 2.5t-7 2.5q-8 3 -12.5 9.5t-4.5 15.5q0 14 8 20.5t23 6.5l11 1h185v0zM544 0v53q50 7 82.5 39t48.5 88q1 2 1.5 4t1.5 4q3 11 7.5 15t11.5 4
q13 0 17.5 -8t4.5 -31v-168h-175v0zM544 311v57q25 13 36.5 28.5t16.5 42.5q4 19 9 26t16 7t15.5 -8.5t4.5 -32.5v-185q0 -24 -4.5 -32.5t-15.5 -8.5q-10 0 -15 6.5t-9 22.5q-7 34 -20 52t-34 24v1zM544 667h170v-174q0 -15 -6 -22.5t-17 -7.5q-7 0 -11 3.5t-7 12.5
q-1 1 -1.5 2.5t-0.5 3.5q-16 58 -46.5 87.5t-80.5 35.5v59v0z" />
    <glyph glyph-name="Ccedilla" unicode="&#xc7;" horiz-adv-x="496" 
d="M249 -43q35 0 61 -36.5t26 -83.5q0 -45 -30.5 -77t-73.5 -32q-18 0 -28 7t-10 20q0 8 5 14t12 5h14q23 -1 37.5 11.5t14.5 32.5q0 16 -9 24.5t-29 11.5q-18 3 -27.5 16t-9.5 36q0 24 12.5 37.5t34.5 13.5v0zM262 680v-59q-24 -5 -35.5 -26.5t-11.5 -59.5v-403v-21
q1 -29 13 -46t34 -19v-59q-115 3 -180 92t-65 243q0 69 13.5 128t40.5 105q22 36 53 64.5t64 43.5q16 8 31.5 12t30.5 4l12 1v0zM296 -13v60q42 2 76.5 35t47.5 82q5 16 10 22.5t15 6.5t16.5 -8.5t6.5 -21.5q0 -14 -5.5 -31.5t-15.5 -35.5q-8 -15 -18 -29t-21 -26
q-25 -27 -52 -40t-60 -14v0zM296 621v58q2 -1 4 -1.5t4 -0.5q4 -1 7.5 -1.5t7.5 -1.5q9 -3 21 -7.5t34 -14.5q12 -5 18 -7t10 -2h2h2q4 1 8 4.5t6 8.5l5 13q3 4 8 7t11 3q11 0 17 -8t6 -23v-202q0 -18 -6 -28t-18 -10q-10 0 -16 8t-9 24q-18 80 -49.5 126.5t-72.5 53.5v1z
" />
    <glyph glyph-name="Egrave" unicode="&#xc8;" horiz-adv-x="498" 
d="M261 667v-667h-185h-11q-16 0 -23.5 6.5t-7.5 19.5q0 9 4 15.5t13 9.5q4 1 6.5 2.5t5.5 2.5q8 5 10.5 11t2.5 21v490q0 14 -2.5 20t-10.5 11q-3 1 -5.5 2.5t-6.5 2.5q-9 3 -13 9.5t-4 15.5q0 14 8 20.5t23 6.5l11 1h185v0zM296 0v53q50 7 81 38t48 89q1 4 2.5 7t2.5 6
q4 7 8 10.5t10 3.5q13 0 17.5 -7.5t4.5 -28.5v-171h-174v0zM296 311v57q24 13 35.5 28.5t16.5 42.5q4 19 9 26t16 7q12 0 16 -8.5t4 -32.5v-185q0 -24 -4.5 -32.5t-15.5 -8.5q-10 0 -15 6.5t-9 22.5q-7 34 -20 52t-33 24v1zM296 667h168v-174q0 -16 -4.5 -23t-15.5 -7
q-9 0 -13 3.5t-8 13.5q0 1 -0.5 2.5t-0.5 2.5q-16 58 -46.5 87.5t-79.5 35.5v59v0zM142 852h84q8 -1 12 -2t7 -5q2 -2 4 -5t5 -7l62 -112l1 -6q0 -5 -3 -7t-8 -2l-31 1q-1 -1 -1.5 -1h-1.5q-2 1 -4.5 2.5t-5.5 4.5l-7 8l-115 104q-5 4 -7 7t-3 5v1.5v0.5q0 5 4 8.5t8 3.5v1z
" />
    <glyph glyph-name="Eacute" unicode="&#xc9;" horiz-adv-x="498" 
d="M261 667v-667h-185h-11q-16 0 -23.5 6.5t-7.5 19.5q0 9 4 15.5t13 9.5q4 1 6.5 2.5t5.5 2.5q8 5 10.5 11t2.5 21v490q0 14 -2.5 20t-10.5 11q-3 1 -5.5 2.5t-6.5 2.5q-9 3 -13 9.5t-4 15.5q0 14 8 20.5t23 6.5l11 1h185v0zM296 0v53q50 7 81 38t48 89q1 4 2.5 7t2.5 6
q4 7 8 10.5t10 3.5q13 0 17.5 -7.5t4.5 -28.5v-171h-174v0zM296 311v57q24 13 35.5 28.5t16.5 42.5q4 19 9 26t16 7q12 0 16 -8.5t4 -32.5v-185q0 -24 -4.5 -32.5t-15.5 -8.5q-10 0 -15 6.5t-9 22.5q-7 34 -20 52t-33 24v1zM296 667h168v-174q0 -16 -4.5 -23t-15.5 -7
q-9 0 -13 3.5t-8 13.5q0 1 -0.5 2.5t-0.5 2.5q-16 58 -46.5 87.5t-79.5 35.5v59v0zM372 825l-114 -104l-8 -7l-4.5 -4.5t-3.5 -2.5q-1 0 -2 -0.5t-3 -0.5l-30 1q-5 -1 -8.5 1t-3.5 6l2 7l62 113q2 3 4 5.5t3 4.5q4 5 8.5 6t12.5 1l82 1q6 -1 10 -4t4 -8v-2t-1 -2
q-1 -2 -3.5 -5t-6.5 -7v1z" />
    <glyph glyph-name="Ecircumflex" unicode="&#xca;" horiz-adv-x="498" 
d="M261 667v-667h-185h-11q-16 0 -23.5 6.5t-7.5 19.5q0 9 4 15.5t13 9.5q4 1 6.5 2.5t5.5 2.5q8 5 10.5 11t2.5 21v490q0 14 -2.5 20t-10.5 11q-3 1 -5.5 2.5t-6.5 2.5q-9 3 -13 9.5t-4 15.5q0 14 8 20.5t23 6.5l11 1h185v0zM296 0v53q50 7 81 38t48 89q1 4 2.5 7t2.5 6
q4 7 8 10.5t10 3.5q13 0 17.5 -7.5t4.5 -28.5v-171h-174v0zM296 311v57q24 13 35.5 28.5t16.5 42.5q4 19 9 26t16 7q12 0 16 -8.5t4 -32.5v-185q0 -24 -4.5 -32.5t-15.5 -8.5q-10 0 -15 6.5t-9 22.5q-7 34 -20 52t-33 24v1zM296 667h168v-174q0 -16 -4.5 -23t-15.5 -7
q-9 0 -13 3.5t-8 13.5q0 1 -0.5 2.5t-0.5 2.5q-16 58 -46.5 87.5t-79.5 35.5v59v0zM244 760l-20 -38l-4 -9q-1 -2 -1.5 -2.5l-0.5 -0.5q-3 -2 -7 -3t-13 -1l-58 1q-10 -1 -15 1.5t-5 8.5v2t1 3q0 2 2 4.5t4 5.5l81 100l10 10t8 6q3 1 5 1.5t4 0.5l21 1q3 -1 5.5 -1.5
t4.5 -1.5q5 -2 10.5 -6.5t9.5 -10.5l82 -98l6 -8l3 -8q0 -7 -3 -9t-12 -2l-68 1q-13 -1 -19.5 2.5t-10.5 11.5l-20 39v0z" />
    <glyph glyph-name="Edieresis" unicode="&#xcb;" horiz-adv-x="498" 
d="M261 667v-667h-185h-11q-16 0 -23.5 6.5t-7.5 19.5q0 9 4 15.5t13 9.5q4 1 6.5 2.5t5.5 2.5q8 5 10.5 11t2.5 21v490q0 14 -2.5 20t-10.5 11q-3 1 -5.5 2.5t-6.5 2.5q-9 3 -13 9.5t-4 15.5q0 14 8 20.5t23 6.5l11 1h185v0zM296 0v53q50 7 81 38t48 89q1 4 2.5 7t2.5 6
q4 7 8 10.5t10 3.5q13 0 17.5 -7.5t4.5 -28.5v-171h-174v0zM296 311v57q24 13 35.5 28.5t16.5 42.5q4 19 9 26t16 7q12 0 16 -8.5t4 -32.5v-185q0 -24 -4.5 -32.5t-15.5 -8.5q-10 0 -15 6.5t-9 22.5q-7 34 -20 52t-33 24v1zM296 667h168v-174q0 -16 -4.5 -23t-15.5 -7
q-9 0 -13 3.5t-8 13.5q0 1 -0.5 2.5t-0.5 2.5q-16 58 -46.5 87.5t-79.5 35.5v59v0zM170 850q26 -1 44 -21.5t18 -50.5q0 -29 -18 -50t-44 -21q-25 0 -44 21t-19 50q0 30 19 50.5t44 20.5v1zM328 850q26 -1 44.5 -21.5t18.5 -50.5q0 -29 -18.5 -50t-44.5 -21q-25 0 -43.5 21
t-18.5 50q0 30 18.5 50.5t43.5 20.5v1z" />
    <glyph glyph-name="Igrave" unicode="&#xcc;" horiz-adv-x="338" 
d="M261 0h-185h-11q-16 0 -23.5 6.5t-7.5 19.5q0 9 4 15.5t13 9.5q4 1 6.5 2.5t5.5 2.5q8 5 10.5 11t2.5 21v490q0 14 -2.5 20t-10.5 11q-3 1 -5.5 2.5t-6.5 2.5q-9 3 -13 9.5t-4 15.5q0 14 8 20.5t23 6.5l11 1h185h11q17 -2 24.5 -8t7.5 -20q0 -9 -4.5 -15.5t-12.5 -9.5
q-4 -1 -7 -2.5l-5 -2.5q-9 -5 -11.5 -11t-2.5 -21v-488q0 -16 2.5 -22t11.5 -11l5 -2.5t7 -2.5q8 -3 12.5 -9.5t4.5 -15.5q0 -13 -8 -19.5t-24 -6.5h-11v0zM48 852h83q8 -1 12.5 -2t8.5 -6q1 -2 3 -4.5t4 -6.5l62 -112l2 -6q0 -5 -3.5 -7t-8.5 -2l-30 1q-2 -1 -3 -0.5
t-2 0.5q-2 1 -3.5 2.5t-4.5 3.5l-8 8l-115 104q-4 4 -6.5 7t-3.5 5v1.5v0.5q0 5 4 8.5t9 3.5v1z" />
    <glyph glyph-name="Iacute" unicode="&#xcd;" horiz-adv-x="338" 
d="M261 0h-185h-11q-16 0 -23.5 6.5t-7.5 19.5q0 9 4 15.5t13 9.5q4 1 6.5 2.5t5.5 2.5q8 5 10.5 11t2.5 21v490q0 14 -2.5 20t-10.5 11q-3 1 -5.5 2.5t-6.5 2.5q-9 3 -13 9.5t-4 15.5q0 14 8 20.5t23 6.5l11 1h185h11q17 -2 24.5 -8t7.5 -20q0 -9 -4.5 -15.5t-12.5 -9.5
q-4 -1 -7 -2.5l-5 -2.5q-9 -5 -11.5 -11t-2.5 -21v-488q0 -16 2.5 -22t11.5 -11l5 -2.5t7 -2.5q8 -3 12.5 -9.5t4.5 -15.5q0 -13 -8 -19.5t-24 -6.5h-11v0zM291 825l-114 -104l-7 -7q-3 -3 -5 -4.5t-4 -2.5q-1 -1 -2 -1h-3l-30 1q-5 -1 -8.5 1t-3.5 6l2 7l62 113q2 3 4 5.5
t3 4.5q4 5 8.5 6t12.5 1l83 1q5 -1 9 -4t4 -8v-2t-1 -2q0 -2 -2.5 -5t-7.5 -7v1z" />
    <glyph glyph-name="Icircumflex" unicode="&#xce;" horiz-adv-x="338" 
d="M261 0h-185h-11q-16 0 -23.5 6.5t-7.5 19.5q0 9 4 15.5t13 9.5q4 1 6.5 2.5t5.5 2.5q8 5 10.5 11t2.5 21v490q0 14 -2.5 20t-10.5 11q-3 1 -5.5 2.5t-6.5 2.5q-9 3 -13 9.5t-4 15.5q0 14 8 20.5t23 6.5l11 1h185h11q17 -2 24.5 -8t7.5 -20q0 -9 -4.5 -15.5t-12.5 -9.5
q-4 -1 -7 -2.5l-5 -2.5q-9 -5 -11.5 -11t-2.5 -21v-488q0 -16 2.5 -22t11.5 -11l5 -2.5t7 -2.5q8 -3 12.5 -9.5t4.5 -15.5q0 -13 -8 -19.5t-24 -6.5h-11v0zM164 760l-20 -38l-4 -9q-3 -5 -7 -6t-14 -1l-59 1q-10 -1 -15 1.5t-5 8.5v2t1 3q0 2 2 4.5t4 5.5l81 100
q8 10 14.5 14t12.5 4l21 1q3 -1 5.5 -1.5t4.5 -1.5q5 -2 10.5 -6.5t9.5 -10.5l83 -98l5 -8l3 -8q0 -7 -3 -9t-11 -2l-68 1q-13 -1 -20 2.5t-11 11.5l-20 39v0z" />
    <glyph glyph-name="Idieresis" unicode="&#xcf;" horiz-adv-x="338" 
d="M261 0h-185h-11q-16 0 -23.5 6.5t-7.5 19.5q0 9 4 15.5t13 9.5q4 1 6.5 2.5t5.5 2.5q8 5 10.5 11t2.5 21v490q0 14 -2.5 20t-10.5 11q-3 1 -5.5 2.5t-6.5 2.5q-9 3 -13 9.5t-4 15.5q0 14 8 20.5t23 6.5l11 1h185h11q17 -2 24.5 -8t7.5 -20q0 -9 -4.5 -15.5t-12.5 -9.5
q-4 -1 -7 -2.5l-5 -2.5q-9 -5 -11.5 -11t-2.5 -21v-488q0 -16 2.5 -22t11.5 -11l5 -2.5t7 -2.5q8 -3 12.5 -9.5t4.5 -15.5q0 -13 -8 -19.5t-24 -6.5h-11v0zM90 850q26 -1 44 -21.5t18 -50.5q0 -29 -18 -50t-44 -21q-25 0 -43.5 21t-18.5 50q0 30 18.5 50.5t43.5 20.5v1z
M248 850q26 -1 44.5 -21.5t18.5 -50.5q0 -29 -18.5 -50t-44.5 -21q-25 0 -43.5 21t-18.5 50q0 30 18.5 50.5t43.5 20.5v1z" />
    <glyph glyph-name="Eth" unicode="&#xd0;" 
 />
    <glyph glyph-name="Ntilde" unicode="&#xd1;" horiz-adv-x="570" 
d="M95 496l43 -87v-262q0 -35 10 -57t31 -36l12 -7q5 -5 8 -10.5t3 -12.5q0 -13 -8 -18.5t-28 -5.5h-95q-19 0 -28 6t-9 19q0 4 0.5 7t2.5 5q2 3 6.5 6.5t11.5 8.5q20 14 30 37t10 57v350v0zM268 667l221 -451v-216h-113l-281 571q-5 9 -9 15.5t-8 10.5q-3 4 -6.5 6t-7.5 4
l-15 8q-7 1 -10.5 7.5t-3.5 14.5q0 9 4.5 16.5t11.5 9.5q4 2 12.5 2.5t22.5 0.5l182 1v0zM489 294l-43 87v135q0 40 -10 62t-36 37q-1 1 -2 1.5t-2 1.5q-7 4 -9 9t-2 14q0 13 7 19t23 6l104 1q18 -1 26 -7.5t8 -20.5q0 -5 -1 -8.5t-4 -7.5q-2 -3 -6.5 -6t-11.5 -7
q-20 -13 -30.5 -36t-10.5 -59v-221v0zM235 851q2 -1 4 -1h4q12 -2 25.5 -8t34.5 -19q18 -11 34 -17t27 -6q8 0 14 6.5t9 21.5q1 2 1.5 4t0.5 3q3 7 5.5 9.5t6.5 2.5q10 0 14 -5.5t4 -19.5q0 -8 -1.5 -17t-3.5 -19t-5.5 -19t-7.5 -17q-12 -22 -29 -33t-37 -11h-5t-5 1
q-11 1 -22.5 5.5t-28.5 14.5l-28 17q-15 7 -24 10.5t-15 3.5q-8 0 -14.5 -6.5t-10.5 -20.5q-2 -5 -3 -8.5t-2 -6.5q-2 -3 -3.5 -4t-4.5 -1q-9 0 -14 6.5t-5 18.5q0 8 1.5 17.5t4.5 18.5q3 12 8 22.5t10 19.5q11 18 26.5 27t34.5 9v1z" />
    <glyph glyph-name="Ograve" unicode="&#xd2;" horiz-adv-x="538" 
d="M252 627q-21 -9 -29.5 -24.5t-8.5 -44.5v-436q0 -41 8 -58t30 -24v-53q-109 10 -172 103.5t-63 241.5q0 149 65 245t170 102v-52v0zM286 627v53q106 -7 170.5 -103t64.5 -245q0 -148 -63.5 -241.5t-171.5 -103.5v54q21 5 29.5 24t8.5 56v438q0 28 -8.5 43.5t-29.5 23.5v1
zM148 852h84q8 -1 12 -2t7 -5q2 -2 4 -5t5 -7l62 -112l1 -6q0 -5 -3.5 -7t-8.5 -2l-30 1q-1 -1 -1.5 -1h-1.5q-2 1 -4.5 2.5t-5.5 4.5l-8 8l-114 104q-5 4 -7 7t-3 5v1.5v0.5q0 5 3.5 8.5t8.5 3.5v1z" />
    <glyph glyph-name="Oacute" unicode="&#xd3;" horiz-adv-x="538" 
d="M252 627q-21 -9 -29.5 -24.5t-8.5 -44.5v-436q0 -41 8 -58t30 -24v-53q-109 10 -172 103.5t-63 241.5q0 149 65 245t170 102v-52v0zM286 627v53q106 -7 170.5 -103t64.5 -245q0 -148 -63.5 -241.5t-171.5 -103.5v54q21 5 29.5 24t8.5 56v438q0 28 -8.5 43.5t-29.5 23.5v1
zM391 825l-114 -104l-7 -7q-3 -3 -5 -4.5t-4 -2.5q-1 -1 -2 -1h-3l-30 1q-4 -1 -7.5 1t-3.5 6l1 7l62 113q3 3 5 6t4 5q3 4 7 5t12 1l83 1q5 -1 9 -4t4 -8v-2t-1 -2q0 -2 -2.5 -5t-7.5 -7v1z" />
    <glyph glyph-name="Ocircumflex" unicode="&#xd4;" horiz-adv-x="538" 
d="M252 627q-21 -9 -29.5 -24.5t-8.5 -44.5v-436q0 -41 8 -58t30 -24v-53q-109 10 -172 103.5t-63 241.5q0 149 65 245t170 102v-52v0zM286 627v53q106 -7 170.5 -103t64.5 -245q0 -148 -63.5 -241.5t-171.5 -103.5v54q21 5 29.5 24t8.5 56v438q0 28 -8.5 43.5t-29.5 23.5v1
zM265 760l-21 -38l-4 -9q-3 -5 -7 -6t-14 -1l-59 1q-10 -1 -14.5 1.5t-4.5 8.5v2v3q1 2 2.5 4.5t3.5 5.5l81 100q8 10 14.5 14t12.5 4l22 1q3 -1 7 -2.5t8 -3.5q3 -2 7 -5.5t7 -8.5l83 -98l6 -8l2 -8q0 -7 -3 -9t-11 -2l-68 1q-13 -1 -20 2.5t-11 11.5l-19 39v0z" />
    <glyph glyph-name="Otilde" unicode="&#xd5;" horiz-adv-x="538" 
d="M252 627q-21 -9 -29.5 -24.5t-8.5 -44.5v-436q0 -41 8 -58t30 -24v-53q-109 10 -172 103.5t-63 241.5q0 149 65 245t170 102v-52v0zM286 627v53q106 -7 170.5 -103t64.5 -245q0 -148 -63.5 -241.5t-171.5 -103.5v54q21 5 29.5 24t8.5 56v438q0 28 -8.5 43.5t-29.5 23.5v1
zM220 851q1 -1 1.5 -1h1.5q13 -1 27.5 -6.5t37.5 -20.5q17 -11 33.5 -17t27.5 -6q8 0 14 6.5t9 21.5q2 11 5.5 15t7.5 4q11 0 15 -5.5t4 -19.5q0 -8 -1.5 -17t-3.5 -19q-3 -10 -6.5 -19t-7.5 -17q-11 -22 -28 -33t-37 -11h-5t-5 1q-11 1 -22.5 5.5t-28.5 14.5l-28 17
q-15 7 -24 10.5t-15 3.5q-8 0 -14.5 -6.5t-10.5 -20.5q-1 -5 -2.5 -8.5t-2.5 -5.5q-2 -3 -4 -4.5t-5 -1.5q-9 0 -13.5 6.5t-4.5 18.5q0 8 1.5 17.5t4.5 18.5q3 12 7.5 22.5t9.5 19.5q12 18 27.5 27t34.5 9v1z" />
    <glyph glyph-name="Odieresis" unicode="&#xd6;" horiz-adv-x="538" 
d="M252 627q-21 -9 -29.5 -24.5t-8.5 -44.5v-436q0 -41 8 -58t30 -24v-53q-109 10 -172 103.5t-63 241.5q0 149 65 245t170 102v-52v0zM286 627v53q106 -7 170.5 -103t64.5 -245q0 -148 -63.5 -241.5t-171.5 -103.5v54q21 5 29.5 24t8.5 56v438q0 28 -8.5 43.5t-29.5 23.5v1
zM190 850q26 -1 44 -21.5t18 -50.5q0 -29 -18 -50t-44 -21q-25 0 -43.5 21t-18.5 50q0 30 18.5 50.5t43.5 20.5v1zM348 850q26 -1 44.5 -21.5t18.5 -50.5q0 -29 -18.5 -50t-44.5 -21q-25 0 -43.5 21t-18.5 50q0 30 18.5 50.5t43.5 20.5v1z" />
    <glyph glyph-name="multiply" unicode="&#xd7;" 
 />
    <glyph glyph-name="Oslash" unicode="&#xd8;" horiz-adv-x="538" 
d="M252 277l-38 -61v-94q0 -41 8 -58t30 -24v-53q-45 4 -81.5 22.5t-68.5 53.5l-52 -76l-28 30l55 79q-28 42 -44 103.5t-16 132.5q0 149 65 245t170 102v-52q-21 -9 -29.5 -24.5t-8.5 -44.5v-270l38 61v-72v0zM457 577l2 -2q31 -48 46.5 -108.5t15.5 -134.5
q0 -148 -63.5 -241.5t-171.5 -103.5v54q21 5 29.5 24t8.5 56v271l-38 -60v71l38 60v96q0 28 -8.5 43.5t-29.5 23.5v54q43 -3 79 -21t66 -51l50 72l28 -27l-52 -76v0z" />
    <glyph glyph-name="Ugrave" unicode="&#xd9;" horiz-adv-x="575" 
d="M305 51v-64h-13q-37 0 -63 4.5t-51 14.5q-5 2 -10 4.5t-10 5.5q-49 28 -69 67.5t-20 110.5v384q0 14 -2 20t-11 11l-5 2.5t-7 2.5q-8 3 -12.5 9.5t-4.5 15.5q0 13 8 20t22 7l12 1h186h11q15 -1 23 -7.5t8 -20.5q0 -9 -4.5 -15.5t-12.5 -9.5q-4 -1 -7 -2.5l-5 -2.5
q-9 -5 -11 -11t-2 -21v-409q0 -38 1 -54t6 -28v-0.5v-0.5q6 -16 14.5 -23t28.5 -12v1zM338 -13v64q47 7 73 46.5t26 103.5v319q0 33 -10.5 56t-31.5 36q-5 3 -8.5 6t-6.5 5q-3 4 -4.5 8.5t-1.5 10.5q0 13 8 18.5t25 5.5l103 1q12 -1 17 -1.5t8 -2.5q0 -1 0.5 -1h0.5
q5 -4 8 -9t3 -11q0 -5 -0.5 -8.5t-3.5 -6.5q-2 -3 -7 -7t-14 -10q-18 -12 -28.5 -36t-10.5 -55v-317q0 -89 -38 -145.5t-107 -69.5v0zM184 852h83q8 -1 12.5 -2t8.5 -6q1 -2 3 -4.5t4 -6.5l62 -112l2 -6q0 -5 -3.5 -7t-8.5 -2l-30 1q-2 -1 -3 -0.5t-2 0.5q-2 1 -3.5 2.5
t-4.5 3.5l-8 8l-115 104q-4 4 -6.5 7t-3.5 5v1.5v0.5q0 5 4 8.5t9 3.5v1z" />
    <glyph glyph-name="Uacute" unicode="&#xda;" horiz-adv-x="575" 
d="M305 51v-64h-13q-37 0 -63 4.5t-51 14.5q-5 2 -10 4.5t-10 5.5q-49 28 -69 67.5t-20 110.5v384q0 14 -2 20t-11 11l-5 2.5t-7 2.5q-8 3 -12.5 9.5t-4.5 15.5q0 13 8 20t22 7l12 1h186h11q15 -1 23 -7.5t8 -20.5q0 -9 -4.5 -15.5t-12.5 -9.5q-4 -1 -7 -2.5l-5 -2.5
q-9 -5 -11 -11t-2 -21v-409q0 -38 1 -54t6 -28v-0.5v-0.5q6 -16 14.5 -23t28.5 -12v1zM338 -13v64q47 7 73 46.5t26 103.5v319q0 33 -10.5 56t-31.5 36q-5 3 -8.5 6t-6.5 5q-3 4 -4.5 8.5t-1.5 10.5q0 13 8 18.5t25 5.5l103 1q12 -1 17 -1.5t8 -2.5q0 -1 0.5 -1h0.5
q5 -4 8 -9t3 -11q0 -5 -0.5 -8.5t-3.5 -6.5q-2 -3 -7 -7t-14 -10q-18 -12 -28.5 -36t-10.5 -55v-317q0 -89 -38 -145.5t-107 -69.5v0zM410 825l-114 -104l-7 -7q-3 -3 -5 -4.5t-4 -2.5q-1 -1 -2 -1h-3l-30 1q-5 -1 -8.5 1t-3.5 6l2 7l62 113q2 3 4 5.5t3 4.5q4 5 8.5 6
t12.5 1l83 1q5 -1 9 -4t4 -8v-2t-1 -2q0 -2 -2.5 -5t-7.5 -7v1z" />
    <glyph glyph-name="Ucircumflex" unicode="&#xdb;" horiz-adv-x="575" 
d="M305 51v-64h-13q-37 0 -63 4.5t-51 14.5q-5 2 -10 4.5t-10 5.5q-49 28 -69 67.5t-20 110.5v384q0 14 -2 20t-11 11l-5 2.5t-7 2.5q-8 3 -12.5 9.5t-4.5 15.5q0 13 8 20t22 7l12 1h186h11q15 -1 23 -7.5t8 -20.5q0 -9 -4.5 -15.5t-12.5 -9.5q-4 -1 -7 -2.5l-5 -2.5
q-9 -5 -11 -11t-2 -21v-409q0 -38 1 -54t6 -28v-0.5v-0.5q6 -16 14.5 -23t28.5 -12v1zM338 -13v64q47 7 73 46.5t26 103.5v319q0 33 -10.5 56t-31.5 36q-5 3 -8.5 6t-6.5 5q-3 4 -4.5 8.5t-1.5 10.5q0 13 8 18.5t25 5.5l103 1q12 -1 17 -1.5t8 -2.5q0 -1 0.5 -1h0.5
q5 -4 8 -9t3 -11q0 -5 -0.5 -8.5t-3.5 -6.5q-2 -3 -7 -7t-14 -10q-18 -12 -28.5 -36t-10.5 -55v-317q0 -89 -38 -145.5t-107 -69.5v0zM297 760l-20 -38l-5 -9q0 -1 -0.5 -1.5l-0.5 -0.5q-3 -3 -6.5 -4t-13.5 -1l-59 1q-10 -1 -14.5 1.5t-4.5 8.5v2t1 3q0 2 2 4.5t4 5.5
l80 100q6 7 11 11t10 6q1 0 3 0.5t4 0.5l21 1q5 -1 10 -3.5t10 -6.5q2 -2 5 -4.5t5 -5.5l82 -98l6 -8l3 -8q0 -7 -3.5 -9t-11.5 -2l-68 1q-13 -1 -19.5 2.5t-10.5 11.5l-20 39v0z" />
    <glyph glyph-name="Udieresis" unicode="&#xdc;" horiz-adv-x="575" 
d="M305 51v-64h-13q-37 0 -63 4.5t-51 14.5q-5 2 -10 4.5t-10 5.5q-49 28 -69 67.5t-20 110.5v384q0 14 -2 20t-11 11l-5 2.5t-7 2.5q-8 3 -12.5 9.5t-4.5 15.5q0 13 8 20t22 7l12 1h186h11q15 -1 23 -7.5t8 -20.5q0 -9 -4.5 -15.5t-12.5 -9.5q-4 -1 -7 -2.5l-5 -2.5
q-9 -5 -11 -11t-2 -21v-409q0 -38 1 -54t6 -28v-0.5v-0.5q6 -16 14.5 -23t28.5 -12v1zM338 -13v64q47 7 73 46.5t26 103.5v319q0 33 -10.5 56t-31.5 36q-5 3 -8.5 6t-6.5 5q-3 4 -4.5 8.5t-1.5 10.5q0 13 8 18.5t25 5.5l103 1q12 -1 17 -1.5t8 -2.5q0 -1 0.5 -1h0.5
q5 -4 8 -9t3 -11q0 -5 -0.5 -8.5t-3.5 -6.5q-2 -3 -7 -7t-14 -10q-18 -12 -28.5 -36t-10.5 -55v-317q0 -89 -38 -145.5t-107 -69.5v0zM209 850q26 -1 44 -21.5t18 -50.5q0 -29 -18 -50t-44 -21q-25 0 -43.5 21t-18.5 50q0 30 18.5 50.5t43.5 20.5v1zM367 850
q26 -1 44.5 -21.5t18.5 -50.5q0 -29 -18.5 -50t-44.5 -21q-25 0 -43.5 21t-18.5 50q0 30 18.5 50.5t43.5 20.5v1z" />
    <glyph glyph-name="Yacute" unicode="&#xdd;" horiz-adv-x="507" 
d="M341 306v-213q0 -19 4 -26t19 -12q2 -1 4 -1.5t5 -1.5q9 -2 14 -8.5t5 -17.5q0 -14 -8 -20t-28 -6h-14h-187h-14q-19 0 -27.5 6.5t-8.5 20.5q0 10 5 16.5t14 8.5q3 1 6 1.5t5 1.5q14 5 17.5 12t3.5 25v166l-117 329q-4 10 -8.5 16t-10.5 11q-4 3 -7.5 5.5t-5.5 4.5
q-3 4 -4 7.5t-1 9.5q0 13 8 19t24 6l204 1q17 -1 25 -7t8 -20q0 -7 -3.5 -13t-8.5 -11l-12 -8q-4 -3 -6 -7.5t-2 -9.5q0 -2 0.5 -5.5t1.5 -6.5v-1.5v-1.5q1 -2 1.5 -4.5t0.5 -4.5l98 -261v0zM357 352l-24 64l43 115q2 4 3.5 9.5t2.5 10.5q0 5 0.5 9t0.5 8q0 15 -6.5 25.5
t-20.5 17.5q-5 2 -8.5 4t-6.5 4q-5 4 -7 8t-2 11q0 16 9 22t31 6l103 1q14 -1 21.5 -8t7.5 -21q0 -7 -2 -11.5t-7 -8.5q-2 -1 -4.5 -2.5t-5.5 -3.5q-19 -10 -30.5 -23.5t-19.5 -33.5l-10 -24l-68 -179v0zM376 825l-114 -104l-7 -7q-3 -3 -5 -4.5t-4 -2.5q-1 -1 -2 -1h-3
l-30 1q-5 -1 -8.5 1t-3.5 6l2 7l62 113q2 3 4 5.5t3 4.5q4 5 8.5 6t12.5 1l83 1q5 -1 9 -4t4 -8v-2t-1 -2q0 -2 -2.5 -5t-7.5 -7v1z" />
    <glyph glyph-name="Thorn" unicode="&#xde;" 
 />
    <glyph glyph-name="germandbls" unicode="&#xdf;" 
 />
    <glyph glyph-name="agrave" unicode="&#xe0;" horiz-adv-x="526" 
d="M171 542l21 -101l-73 -315q-1 -4 -1.5 -7.5t-0.5 -6.5q-1 -3 -1 -6.5v-6.5q0 -14 6 -25.5t19 -17.5l13 -7q7 -5 11 -11.5t4 -14.5q0 -11 -8 -17t-23 -6h-105q-15 0 -24 7t-9 19q0 8 4 14t14 11q26 14 38.5 32t21.5 56l93 403v0zM200 667h168l114 -574q0 -3 0.5 -5t1.5 -4
q4 -16 9 -23t14 -11q1 -1 2 -1.5t2 -0.5q8 -5 11.5 -10.5t3.5 -14.5q0 -11 -8 -17t-25 -6h-207q-12 0 -19.5 6.5t-7.5 18.5q0 6 1 10t4 7q2 2 5.5 4.5t7.5 5.5q1 1 2 1.5t2 0.5q6 5 8.5 10.5t2.5 14.5l-1 14l-14 71h-115l11 60h93l-76 395l10 48v0zM156 852h83q8 -1 12.5 -2
t8.5 -6q1 -2 3 -4.5t4 -6.5l62 -112l2 -6q0 -5 -3.5 -7t-8.5 -2l-30 1q-2 -1 -3 -0.5t-2 0.5q-2 1 -3.5 2.5t-4.5 3.5l-8 8l-115 104q-4 4 -6.5 7t-3.5 5v1.5v0.5q0 5 4 8.5t9 3.5v1z" />
    <glyph glyph-name="aacute" unicode="&#xe1;" horiz-adv-x="526" 
d="M171 542l21 -101l-73 -315q-1 -4 -1.5 -7.5t-0.5 -6.5q-1 -3 -1 -6.5v-6.5q0 -14 6 -25.5t19 -17.5l13 -7q7 -5 11 -11.5t4 -14.5q0 -11 -8 -17t-23 -6h-105q-15 0 -24 7t-9 19q0 8 4 14t14 11q26 14 38.5 32t21.5 56l93 403v0zM200 667h168l114 -574q0 -3 0.5 -5t1.5 -4
q4 -16 9 -23t14 -11q1 -1 2 -1.5t2 -0.5q8 -5 11.5 -10.5t3.5 -14.5q0 -11 -8 -17t-25 -6h-207q-12 0 -19.5 6.5t-7.5 18.5q0 6 1 10t4 7q2 2 5.5 4.5t7.5 5.5q1 1 2 1.5t2 0.5q6 5 8.5 10.5t2.5 14.5l-1 14l-14 71h-115l11 60h93l-76 395l10 48v0zM385 825l-113 -104l-8 -7
q-3 -3 -5 -4.5t-4 -2.5q-1 -1 -2 -1h-3l-29 1q-5 -1 -8.5 1t-3.5 6l1 7l62 113q3 3 5 6t4 5q3 4 7 5t12 1l83 1q6 -1 9.5 -4t3.5 -8v-2t-1 -2q0 -2 -2.5 -5t-7.5 -7v1z" />
    <glyph glyph-name="acircumflex" unicode="&#xe2;" horiz-adv-x="526" 
d="M171 542l21 -101l-73 -315q-1 -4 -1.5 -7.5t-0.5 -6.5q-1 -3 -1 -6.5v-6.5q0 -14 6 -25.5t19 -17.5l13 -7q7 -5 11 -11.5t4 -14.5q0 -11 -8 -17t-23 -6h-105q-15 0 -24 7t-9 19q0 8 4 14t14 11q26 14 38.5 32t21.5 56l93 403v0zM200 667h168l114 -574q0 -3 0.5 -5t1.5 -4
q4 -16 9 -23t14 -11q1 -1 2 -1.5t2 -0.5q8 -5 11.5 -10.5t3.5 -14.5q0 -11 -8 -17t-25 -6h-207q-12 0 -19.5 6.5t-7.5 18.5q0 6 1 10t4 7q2 2 5.5 4.5t7.5 5.5q1 1 2 1.5t2 0.5q6 5 8.5 10.5t2.5 14.5l-1 14l-14 71h-115l11 60h93l-76 395l10 48v0zM275 760l-20 -38l-5 -9
q0 -1 -0.5 -1.5l-0.5 -0.5q-3 -3 -6.5 -4t-13.5 -1l-59 1q-10 -1 -14.5 1.5t-4.5 8.5v2t1 3q0 2 2 4.5t4 5.5l80 100q6 7 11 11t10 6q2 1 3.5 1h3.5l21 1q5 -1 10 -3.5t10 -6.5q2 -2 5 -4.5t5 -5.5l82 -98l6 -8l3 -8q0 -7 -3.5 -9t-11.5 -2l-68 1q-13 -1 -19.5 2.5
t-11.5 11.5l-19 39v0z" />
    <glyph glyph-name="atilde" unicode="&#xe3;" horiz-adv-x="526" 
d="M171 542l21 -101l-73 -315q-1 -4 -1.5 -7.5t-0.5 -6.5q-1 -3 -1 -6.5v-6.5q0 -14 6 -25.5t19 -17.5l13 -7q7 -5 11 -11.5t4 -14.5q0 -11 -8 -17t-23 -6h-105q-15 0 -24 7t-9 19q0 8 4 14t14 11q26 14 38.5 32t21.5 56l93 403v0zM200 667h168l114 -574q0 -3 0.5 -5t1.5 -4
q4 -16 9 -23t14 -11q1 -1 2 -1.5t2 -0.5q8 -5 11.5 -10.5t3.5 -14.5q0 -11 -8 -17t-25 -6h-207q-12 0 -19.5 6.5t-7.5 18.5q0 6 1 10t4 7q2 2 5.5 4.5t7.5 5.5q1 1 2 1.5t2 0.5q6 5 8.5 10.5t2.5 14.5l-1 14l-14 71h-115l11 60h93l-76 395l10 48v0zM227 851q2 -1 4 -1h4
q12 -2 25.5 -8t34.5 -19q18 -11 34 -17t28 -6q8 0 13.5 6.5t8.5 21.5q1 2 1.5 4t0.5 3q3 7 5.5 9.5t6.5 2.5q11 0 15 -5.5t4 -19.5q0 -8 -1.5 -17t-3.5 -19q-3 -10 -6.5 -19t-7.5 -17q-11 -22 -28 -33t-37 -11h-4h-4q-11 1 -23.5 6t-30.5 15l-28 17q-14 7 -23 10.5t-16 3.5
q-8 0 -14 -6.5t-10 -20.5q-1 -5 -2.5 -8.5t-2.5 -5.5q-2 -3 -4 -4.5t-5 -1.5q-9 0 -14 6.5t-5 18.5q0 8 1.5 17.5t4.5 18.5q3 12 8 22.5t10 19.5q11 18 27 27t34 9v1z" />
    <glyph glyph-name="adieresis" unicode="&#xe4;" horiz-adv-x="526" 
d="M171 542l21 -101l-73 -315q-1 -4 -1.5 -7.5t-0.5 -6.5q-1 -3 -1 -6.5v-6.5q0 -14 6 -25.5t19 -17.5l13 -7q7 -5 11 -11.5t4 -14.5q0 -11 -8 -17t-23 -6h-105q-15 0 -24 7t-9 19q0 8 4 14t14 11q26 14 38.5 32t21.5 56l93 403v0zM200 667h168l114 -574q0 -3 0.5 -5t1.5 -4
q4 -16 9 -23t14 -11q1 -1 2 -1.5t2 -0.5q8 -5 11.5 -10.5t3.5 -14.5q0 -11 -8 -17t-25 -6h-207q-12 0 -19.5 6.5t-7.5 18.5q0 6 1 10t4 7q2 2 5.5 4.5t7.5 5.5q1 1 2 1.5t2 0.5q6 5 8.5 10.5t2.5 14.5l-1 14l-14 71h-115l11 60h93l-76 395l10 48v0zM200 850q26 -1 44 -21.5
t18 -50.5q0 -29 -18 -50t-44 -21q-25 0 -43.5 21t-18.5 50q0 30 18.5 50.5t43.5 20.5v1zM358 850q26 -1 44.5 -21.5t18.5 -50.5q0 -29 -18.5 -50t-44.5 -21q-25 0 -43.5 21t-18.5 50q0 30 18.5 50.5t43.5 20.5v1z" />
    <glyph glyph-name="aring" unicode="&#xe5;" horiz-adv-x="526" 
d="M171 542l21 -101l-73 -315q-1 -4 -1.5 -7.5t-0.5 -6.5q-1 -3 -1 -6.5v-6.5q0 -14 6 -25.5t19 -17.5l13 -7q7 -5 11 -11.5t4 -14.5q0 -11 -8 -17t-23 -6h-105q-15 0 -24 7t-9 19q0 8 4 14t14 11q26 14 38.5 32t21.5 56l93 403v0zM200 667h168l114 -574q0 -3 0.5 -5t1.5 -4
q4 -16 9 -23t14 -11q1 -1 2 -1.5t2 -0.5q8 -5 11.5 -10.5t3.5 -14.5q0 -11 -8 -17t-25 -6h-207q-12 0 -19.5 6.5t-7.5 18.5q0 6 1 10t4 7q2 2 5.5 4.5t7.5 5.5q1 1 2 1.5t2 0.5q6 5 8.5 10.5t2.5 14.5l-1 14l-14 71h-115l11 60h93l-76 395l10 48v0zM265 697q-37 9 -57.5 37
t-20.5 68q0 41 20.5 68.5t57.5 37.5v-63q-13 -8 -18.5 -18.5t-5.5 -24.5t5.5 -24t18.5 -18v-63v0zM295 909q38 -11 58.5 -38.5t20.5 -68.5q0 -40 -20.5 -68t-58.5 -38v65q13 7 18.5 17t5.5 24t-6 24t-18 18v65v0z" />
    <glyph glyph-name="ae" unicode="&#xe6;" horiz-adv-x="748" 
d="M297 560v-91l-183 -350q-5 -11 -7.5 -18.5t-2.5 -14.5q0 -11 6.5 -19t19.5 -15l10 -5t7 -4q6 -4 7.5 -8.5t1.5 -11.5q0 -11 -6 -17t-17 -6h-122q-9 0 -15 6.5t-6 16.5t4.5 16t11.5 10q5 2 9.5 4t7.5 4q6 4 10.5 8t8.5 10q2 3 4 7.5t5 9.5l246 468v0zM510 667v-667h-185
h-11q-15 0 -23 6.5t-8 19.5q0 9 4.5 15.5t12.5 9.5q4 1 7 2.5l5 2.5q9 5 11 11t2 21v77h-156l27 58h129v355q0 14 -2 20t-11 11l-5 2.5t-7 2.5q-8 3 -12.5 9.5t-4.5 15.5q0 14 8 20.5t23 6.5l11 1h185v0zM544 0v53q50 7 82.5 39t48.5 88q1 2 1.5 4t1.5 4q3 11 7.5 15t11.5 4
q13 0 17.5 -8t4.5 -31v-168h-175v0zM544 311v57q25 13 36.5 28.5t16.5 42.5q4 19 9 26t16 7t15.5 -8.5t4.5 -32.5v-185q0 -24 -4.5 -32.5t-15.5 -8.5q-10 0 -15 6.5t-9 22.5q-7 34 -20 52t-34 24v1zM544 667h170v-174q0 -15 -6 -22.5t-17 -7.5q-7 0 -11 3.5t-7 12.5
q-1 1 -1.5 2.5t-0.5 3.5q-16 58 -46.5 87.5t-80.5 35.5v59v0z" />
    <glyph glyph-name="ccedilla" unicode="&#xe7;" horiz-adv-x="496" 
d="M249 -43q35 0 61 -36.5t26 -83.5q0 -45 -30.5 -77t-73.5 -32q-18 0 -28 7t-10 20q0 8 5 14t12 5h14q23 -1 37.5 11.5t14.5 32.5q0 16 -9 24.5t-29 11.5q-18 3 -27.5 16t-9.5 36q0 24 12.5 37.5t34.5 13.5v0zM262 680v-59q-24 -5 -35.5 -26.5t-11.5 -59.5v-403v-21
q1 -29 13 -46t34 -19v-59q-115 3 -180 92t-65 243q0 69 13.5 128t40.5 105q22 36 53 64.5t64 43.5q16 8 31.5 12t30.5 4l12 1v0zM296 -13v60q42 2 76.5 35t47.5 82q5 16 10 22.5t15 6.5t16.5 -8.5t6.5 -21.5q0 -14 -5.5 -31.5t-15.5 -35.5q-8 -15 -18 -29t-21 -26
q-25 -27 -52 -40t-60 -14v0zM296 621v58q2 -1 4 -1.5t4 -0.5q4 -1 7.5 -1.5t7.5 -1.5q9 -3 21 -7.5t34 -14.5q12 -5 18 -7t10 -2h2h2q4 1 8 4.5t6 8.5l5 13q3 4 8 7t11 3q11 0 17 -8t6 -23v-202q0 -18 -6 -28t-18 -10q-10 0 -16 8t-9 24q-18 80 -49.5 126.5t-72.5 53.5v1z
" />
    <glyph glyph-name="egrave" unicode="&#xe8;" horiz-adv-x="498" 
d="M261 667v-667h-185h-11q-16 0 -23.5 6.5t-7.5 19.5q0 9 4 15.5t13 9.5q4 1 6.5 2.5t5.5 2.5q8 5 10.5 11t2.5 21v490q0 14 -2.5 20t-10.5 11q-3 1 -5.5 2.5t-6.5 2.5q-9 3 -13 9.5t-4 15.5q0 14 8 20.5t23 6.5l11 1h185v0zM296 0v53q50 7 81 38t48 89q1 4 2.5 7t2.5 6
q4 7 8 10.5t10 3.5q13 0 17.5 -7.5t4.5 -28.5v-171h-174v0zM296 311v57q24 13 35.5 28.5t16.5 42.5q4 19 9 26t16 7q12 0 16 -8.5t4 -32.5v-185q0 -24 -4.5 -32.5t-15.5 -8.5q-10 0 -15 6.5t-9 22.5q-7 34 -20 52t-33 24v1zM296 667h168v-174q0 -16 -4.5 -23t-15.5 -7
q-9 0 -13 3.5t-8 13.5q0 1 -0.5 2.5t-0.5 2.5q-16 58 -46.5 87.5t-79.5 35.5v59v0zM142 852h84q8 -1 12 -2t7 -5q2 -2 4 -5t5 -7l62 -112l1 -6q0 -5 -3 -7t-8 -2l-31 1q-1 -1 -1.5 -1h-1.5q-2 1 -4.5 2.5t-5.5 4.5l-7 8l-115 104q-5 4 -7 7t-3 5v1.5v0.5q0 5 4 8.5t8 3.5v1z
" />
    <glyph glyph-name="eacute" unicode="&#xe9;" horiz-adv-x="498" 
d="M261 667v-667h-185h-11q-16 0 -23.5 6.5t-7.5 19.5q0 9 4 15.5t13 9.5q4 1 6.5 2.5t5.5 2.5q8 5 10.5 11t2.5 21v490q0 14 -2.5 20t-10.5 11q-3 1 -5.5 2.5t-6.5 2.5q-9 3 -13 9.5t-4 15.5q0 14 8 20.5t23 6.5l11 1h185v0zM296 0v53q50 7 81 38t48 89q1 4 2.5 7t2.5 6
q4 7 8 10.5t10 3.5q13 0 17.5 -7.5t4.5 -28.5v-171h-174v0zM296 311v57q24 13 35.5 28.5t16.5 42.5q4 19 9 26t16 7q12 0 16 -8.5t4 -32.5v-185q0 -24 -4.5 -32.5t-15.5 -8.5q-10 0 -15 6.5t-9 22.5q-7 34 -20 52t-33 24v1zM296 667h168v-174q0 -16 -4.5 -23t-15.5 -7
q-9 0 -13 3.5t-8 13.5q0 1 -0.5 2.5t-0.5 2.5q-16 58 -46.5 87.5t-79.5 35.5v59v0zM372 825l-114 -104l-8 -7l-4.5 -4.5t-3.5 -2.5q-1 0 -2 -0.5t-3 -0.5l-30 1q-5 -1 -8.5 1t-3.5 6l2 7l62 113q2 3 4 5.5t3 4.5q4 5 8.5 6t12.5 1l82 1q6 -1 10 -4t4 -8v-2t-1 -2
q-1 -2 -3.5 -5t-6.5 -7v1z" />
    <glyph glyph-name="ecircumflex" unicode="&#xea;" horiz-adv-x="498" 
d="M261 667v-667h-185h-11q-16 0 -23.5 6.5t-7.5 19.5q0 9 4 15.5t13 9.5q4 1 6.5 2.5t5.5 2.5q8 5 10.5 11t2.5 21v490q0 14 -2.5 20t-10.5 11q-3 1 -5.5 2.5t-6.5 2.5q-9 3 -13 9.5t-4 15.5q0 14 8 20.5t23 6.5l11 1h185v0zM296 0v53q50 7 81 38t48 89q1 4 2.5 7t2.5 6
q4 7 8 10.5t10 3.5q13 0 17.5 -7.5t4.5 -28.5v-171h-174v0zM296 311v57q24 13 35.5 28.5t16.5 42.5q4 19 9 26t16 7q12 0 16 -8.5t4 -32.5v-185q0 -24 -4.5 -32.5t-15.5 -8.5q-10 0 -15 6.5t-9 22.5q-7 34 -20 52t-33 24v1zM296 667h168v-174q0 -16 -4.5 -23t-15.5 -7
q-9 0 -13 3.5t-8 13.5q0 1 -0.5 2.5t-0.5 2.5q-16 58 -46.5 87.5t-79.5 35.5v59v0zM244 760l-20 -38l-4 -9q-1 -2 -1.5 -2.5l-0.5 -0.5q-3 -2 -7 -3t-13 -1l-58 1q-10 -1 -15 1.5t-5 8.5v2t1 3q0 2 2 4.5t4 5.5l81 100l10 10t8 6q3 1 5 1.5t4 0.5l21 1q3 -1 5.5 -1.5
t4.5 -1.5q5 -2 10.5 -6.5t9.5 -10.5l82 -98l6 -8l3 -8q0 -7 -3 -9t-12 -2l-68 1q-13 -1 -19.5 2.5t-10.5 11.5l-20 39v0z" />
    <glyph glyph-name="edieresis" unicode="&#xeb;" horiz-adv-x="498" 
d="M261 667v-667h-185h-11q-16 0 -23.5 6.5t-7.5 19.5q0 9 4 15.5t13 9.5q4 1 6.5 2.5t5.5 2.5q8 5 10.5 11t2.5 21v490q0 14 -2.5 20t-10.5 11q-3 1 -5.5 2.5t-6.5 2.5q-9 3 -13 9.5t-4 15.5q0 14 8 20.5t23 6.5l11 1h185v0zM296 0v53q50 7 81 38t48 89q1 4 2.5 7t2.5 6
q4 7 8 10.5t10 3.5q13 0 17.5 -7.5t4.5 -28.5v-171h-174v0zM296 311v57q24 13 35.5 28.5t16.5 42.5q4 19 9 26t16 7q12 0 16 -8.5t4 -32.5v-185q0 -24 -4.5 -32.5t-15.5 -8.5q-10 0 -15 6.5t-9 22.5q-7 34 -20 52t-33 24v1zM296 667h168v-174q0 -16 -4.5 -23t-15.5 -7
q-9 0 -13 3.5t-8 13.5q0 1 -0.5 2.5t-0.5 2.5q-16 58 -46.5 87.5t-79.5 35.5v59v0zM170 850q26 -1 44 -21.5t18 -50.5q0 -29 -18 -50t-44 -21q-25 0 -44 21t-19 50q0 30 19 50.5t44 20.5v1zM328 850q26 -1 44.5 -21.5t18.5 -50.5q0 -29 -18.5 -50t-44.5 -21q-25 0 -43.5 21
t-18.5 50q0 30 18.5 50.5t43.5 20.5v1z" />
    <glyph glyph-name="igrave" unicode="&#xec;" horiz-adv-x="338" 
d="M261 0h-185h-11q-16 0 -23.5 6.5t-7.5 19.5q0 9 4 15.5t13 9.5q4 1 6.5 2.5t5.5 2.5q8 5 10.5 11t2.5 21v490q0 14 -2.5 20t-10.5 11q-3 1 -5.5 2.5t-6.5 2.5q-9 3 -13 9.5t-4 15.5q0 14 8 20.5t23 6.5l11 1h185h11q17 -2 24.5 -8t7.5 -20q0 -9 -4.5 -15.5t-12.5 -9.5
q-4 -1 -7 -2.5l-5 -2.5q-9 -5 -11.5 -11t-2.5 -21v-488q0 -16 2.5 -22t11.5 -11l5 -2.5t7 -2.5q8 -3 12.5 -9.5t4.5 -15.5q0 -13 -8 -19.5t-24 -6.5h-11v0zM48 852h83q8 -1 12.5 -2t8.5 -6q1 -2 3 -4.5t4 -6.5l62 -112l2 -6q0 -5 -3.5 -7t-8.5 -2l-30 1q-2 -1 -3 -0.5
t-2 0.5q-2 1 -3.5 2.5t-4.5 3.5l-8 8l-115 104q-4 4 -6.5 7t-3.5 5v1.5v0.5q0 5 4 8.5t9 3.5v1z" />
    <glyph glyph-name="iacute" unicode="&#xed;" horiz-adv-x="338" 
d="M261 0h-185h-11q-16 0 -23.5 6.5t-7.5 19.5q0 9 4 15.5t13 9.5q4 1 6.5 2.5t5.5 2.5q8 5 10.5 11t2.5 21v490q0 14 -2.5 20t-10.5 11q-3 1 -5.5 2.5t-6.5 2.5q-9 3 -13 9.5t-4 15.5q0 14 8 20.5t23 6.5l11 1h185h11q17 -2 24.5 -8t7.5 -20q0 -9 -4.5 -15.5t-12.5 -9.5
q-4 -1 -7 -2.5l-5 -2.5q-9 -5 -11.5 -11t-2.5 -21v-488q0 -16 2.5 -22t11.5 -11l5 -2.5t7 -2.5q8 -3 12.5 -9.5t4.5 -15.5q0 -13 -8 -19.5t-24 -6.5h-11v0zM291 825l-114 -104l-7 -7q-3 -3 -5 -4.5t-4 -2.5q-1 -1 -2 -1h-3l-30 1q-5 -1 -8.5 1t-3.5 6l2 7l62 113q2 3 4 5.5
t3 4.5q4 5 8.5 6t12.5 1l83 1q5 -1 9 -4t4 -8v-2t-1 -2q0 -2 -2.5 -5t-7.5 -7v1z" />
    <glyph glyph-name="icircumflex" unicode="&#xee;" horiz-adv-x="338" 
d="M261 0h-185h-11q-16 0 -23.5 6.5t-7.5 19.5q0 9 4 15.5t13 9.5q4 1 6.5 2.5t5.5 2.5q8 5 10.5 11t2.5 21v490q0 14 -2.5 20t-10.5 11q-3 1 -5.5 2.5t-6.5 2.5q-9 3 -13 9.5t-4 15.5q0 14 8 20.5t23 6.5l11 1h185h11q17 -2 24.5 -8t7.5 -20q0 -9 -4.5 -15.5t-12.5 -9.5
q-4 -1 -7 -2.5l-5 -2.5q-9 -5 -11.5 -11t-2.5 -21v-488q0 -16 2.5 -22t11.5 -11l5 -2.5t7 -2.5q8 -3 12.5 -9.5t4.5 -15.5q0 -13 -8 -19.5t-24 -6.5h-11v0zM164 760l-20 -38l-4 -9q-3 -5 -7 -6t-14 -1l-59 1q-10 -1 -15 1.5t-5 8.5v2t1 3q0 2 2 4.5t4 5.5l81 100
q8 10 14.5 14t12.5 4l21 1q3 -1 5.5 -1.5t4.5 -1.5q5 -2 10.5 -6.5t9.5 -10.5l83 -98l5 -8l3 -8q0 -7 -3 -9t-11 -2l-68 1q-13 -1 -20 2.5t-11 11.5l-20 39v0z" />
    <glyph glyph-name="idieresis" unicode="&#xef;" horiz-adv-x="338" 
d="M261 0h-185h-11q-16 0 -23.5 6.5t-7.5 19.5q0 9 4 15.5t13 9.5q4 1 6.5 2.5t5.5 2.5q8 5 10.5 11t2.5 21v490q0 14 -2.5 20t-10.5 11q-3 1 -5.5 2.5t-6.5 2.5q-9 3 -13 9.5t-4 15.5q0 14 8 20.5t23 6.5l11 1h185h11q17 -2 24.5 -8t7.5 -20q0 -9 -4.5 -15.5t-12.5 -9.5
q-4 -1 -7 -2.5l-5 -2.5q-9 -5 -11.5 -11t-2.5 -21v-488q0 -16 2.5 -22t11.5 -11l5 -2.5t7 -2.5q8 -3 12.5 -9.5t4.5 -15.5q0 -13 -8 -19.5t-24 -6.5h-11v0zM90 850q26 -1 44 -21.5t18 -50.5q0 -29 -18 -50t-44 -21q-25 0 -43.5 21t-18.5 50q0 30 18.5 50.5t43.5 20.5v1z
M248 850q26 -1 44.5 -21.5t18.5 -50.5q0 -29 -18.5 -50t-44.5 -21q-25 0 -43.5 21t-18.5 50q0 30 18.5 50.5t43.5 20.5v1z" />
    <glyph glyph-name="eth" unicode="&#xf0;" 
 />
    <glyph glyph-name="ntilde" unicode="&#xf1;" horiz-adv-x="570" 
d="M95 496l43 -87v-262q0 -35 10 -57t31 -36l12 -7q5 -5 8 -10.5t3 -12.5q0 -13 -8 -18.5t-28 -5.5h-95q-19 0 -28 6t-9 19q0 4 0.5 7t2.5 5q2 3 6.5 6.5t11.5 8.5q20 14 30 37t10 57v350v0zM268 667l221 -451v-216h-113l-281 571q-5 9 -9 15.5t-8 10.5q-3 4 -6.5 6t-7.5 4
l-15 8q-7 1 -10.5 7.5t-3.5 14.5q0 9 4.5 16.5t11.5 9.5q4 2 12.5 2.5t22.5 0.5l182 1v0zM489 294l-43 87v135q0 40 -10 62t-36 37q-1 1 -2 1.5t-2 1.5q-7 4 -9 9t-2 14q0 13 7 19t23 6l104 1q18 -1 26 -7.5t8 -20.5q0 -5 -1 -8.5t-4 -7.5q-2 -3 -6.5 -6t-11.5 -7
q-20 -13 -30.5 -36t-10.5 -59v-221v0zM235 851q2 -1 4 -1h4q12 -2 25.5 -8t34.5 -19q18 -11 34 -17t27 -6q8 0 14 6.5t9 21.5q1 2 1.5 4t0.5 3q3 7 5.5 9.5t6.5 2.5q10 0 14 -5.5t4 -19.5q0 -8 -1.5 -17t-3.5 -19t-5.5 -19t-7.5 -17q-12 -22 -29 -33t-37 -11h-5t-5 1
q-11 1 -22.5 5.5t-28.5 14.5l-28 17q-15 7 -24 10.5t-15 3.5q-8 0 -14.5 -6.5t-10.5 -20.5q-2 -5 -3 -8.5t-2 -6.5q-2 -3 -3.5 -4t-4.5 -1q-9 0 -14 6.5t-5 18.5q0 8 1.5 17.5t4.5 18.5q3 12 8 22.5t10 19.5q11 18 26.5 27t34.5 9v1z" />
    <glyph glyph-name="ograve" unicode="&#xf2;" horiz-adv-x="538" 
d="M252 627q-21 -9 -29.5 -24.5t-8.5 -44.5v-436q0 -41 8 -58t30 -24v-53q-109 10 -172 103.5t-63 241.5q0 149 65 245t170 102v-52v0zM286 627v53q106 -7 170.5 -103t64.5 -245q0 -148 -63.5 -241.5t-171.5 -103.5v54q21 5 29.5 24t8.5 56v438q0 28 -8.5 43.5t-29.5 23.5v1
zM148 852h84q8 -1 12 -2t7 -5q2 -2 4 -5t5 -7l62 -112l1 -6q0 -5 -3.5 -7t-8.5 -2l-30 1q-1 -1 -1.5 -1h-1.5q-2 1 -4.5 2.5t-5.5 4.5l-8 8l-114 104q-5 4 -7 7t-3 5v1.5v0.5q0 5 3.5 8.5t8.5 3.5v1z" />
    <glyph glyph-name="oacute" unicode="&#xf3;" horiz-adv-x="538" 
d="M252 627q-21 -9 -29.5 -24.5t-8.5 -44.5v-436q0 -41 8 -58t30 -24v-53q-109 10 -172 103.5t-63 241.5q0 149 65 245t170 102v-52v0zM286 627v53q106 -7 170.5 -103t64.5 -245q0 -148 -63.5 -241.5t-171.5 -103.5v54q21 5 29.5 24t8.5 56v438q0 28 -8.5 43.5t-29.5 23.5v1
zM391 825l-114 -104l-7 -7q-3 -3 -5 -4.5t-4 -2.5q-1 -1 -2 -1h-3l-30 1q-4 -1 -7.5 1t-3.5 6l1 7l62 113q3 3 5 6t4 5q3 4 7 5t12 1l83 1q5 -1 9 -4t4 -8v-2t-1 -2q0 -2 -2.5 -5t-7.5 -7v1z" />
    <glyph glyph-name="ocircumflex" unicode="&#xf4;" horiz-adv-x="538" 
d="M252 627q-21 -9 -29.5 -24.5t-8.5 -44.5v-436q0 -41 8 -58t30 -24v-53q-109 10 -172 103.5t-63 241.5q0 149 65 245t170 102v-52v0zM286 627v53q106 -7 170.5 -103t64.5 -245q0 -148 -63.5 -241.5t-171.5 -103.5v54q21 5 29.5 24t8.5 56v438q0 28 -8.5 43.5t-29.5 23.5v1
zM265 760l-21 -38l-4 -9q-3 -5 -7 -6t-14 -1l-59 1q-10 -1 -14.5 1.5t-4.5 8.5v2v3q1 2 2.5 4.5t3.5 5.5l81 100q8 10 14.5 14t12.5 4l22 1q3 -1 7 -2.5t8 -3.5q3 -2 7 -5.5t7 -8.5l83 -98l6 -8l2 -8q0 -7 -3 -9t-11 -2l-68 1q-13 -1 -20 2.5t-11 11.5l-19 39v0z" />
    <glyph glyph-name="otilde" unicode="&#xf5;" horiz-adv-x="538" 
d="M252 627q-21 -9 -29.5 -24.5t-8.5 -44.5v-436q0 -41 8 -58t30 -24v-53q-109 10 -172 103.5t-63 241.5q0 149 65 245t170 102v-52v0zM286 627v53q106 -7 170.5 -103t64.5 -245q0 -148 -63.5 -241.5t-171.5 -103.5v54q21 5 29.5 24t8.5 56v438q0 28 -8.5 43.5t-29.5 23.5v1
zM220 851q1 -1 1.5 -1h1.5q13 -1 27.5 -6.5t37.5 -20.5q17 -11 33.5 -17t27.5 -6q8 0 14 6.5t9 21.5q2 11 5.5 15t7.5 4q11 0 15 -5.5t4 -19.5q0 -8 -1.5 -17t-3.5 -19q-3 -10 -6.5 -19t-7.5 -17q-11 -22 -28 -33t-37 -11h-5t-5 1q-11 1 -22.5 5.5t-28.5 14.5l-28 17
q-15 7 -24 10.5t-15 3.5q-8 0 -14.5 -6.5t-10.5 -20.5q-1 -5 -2.5 -8.5t-2.5 -5.5q-2 -3 -4 -4.5t-5 -1.5q-9 0 -13.5 6.5t-4.5 18.5q0 8 1.5 17.5t4.5 18.5q3 12 7.5 22.5t9.5 19.5q12 18 27.5 27t34.5 9v1z" />
    <glyph glyph-name="odieresis" unicode="&#xf6;" horiz-adv-x="538" 
d="M252 627q-21 -9 -29.5 -24.5t-8.5 -44.5v-436q0 -41 8 -58t30 -24v-53q-109 10 -172 103.5t-63 241.5q0 149 65 245t170 102v-52v0zM286 627v53q106 -7 170.5 -103t64.5 -245q0 -148 -63.5 -241.5t-171.5 -103.5v54q21 5 29.5 24t8.5 56v438q0 28 -8.5 43.5t-29.5 23.5v1
zM190 850q26 -1 44 -21.5t18 -50.5q0 -29 -18 -50t-44 -21q-25 0 -43.5 21t-18.5 50q0 30 18.5 50.5t43.5 20.5v1zM348 850q26 -1 44.5 -21.5t18.5 -50.5q0 -29 -18.5 -50t-44.5 -21q-25 0 -43.5 21t-18.5 50q0 30 18.5 50.5t43.5 20.5v1z" />
    <glyph glyph-name="divide" unicode="&#xf7;" horiz-adv-x="566" 
d="M283 693l221 -360l-221 -359l-221 359l221 360v0zM283 604l-167 -271l167 -270l168 270l-168 271v0z" />
    <glyph glyph-name="oslash" unicode="&#xf8;" horiz-adv-x="538" 
d="M252 277l-38 -61v-94q0 -41 8 -58t30 -24v-53q-45 4 -81.5 22.5t-68.5 53.5l-52 -76l-28 30l55 79q-28 42 -44 103.5t-16 132.5q0 149 65 245t170 102v-52q-21 -9 -29.5 -24.5t-8.5 -44.5v-270l38 61v-72v0zM457 577l2 -2q31 -48 46.5 -108.5t15.5 -134.5
q0 -148 -63.5 -241.5t-171.5 -103.5v54q21 5 29.5 24t8.5 56v271l-38 -60v71l38 60v96q0 28 -8.5 43.5t-29.5 23.5v54q43 -3 79 -21t66 -51l50 72l28 -27l-52 -76v0z" />
    <glyph glyph-name="ugrave" unicode="&#xf9;" horiz-adv-x="575" 
d="M305 51v-64h-13q-37 0 -63 4.5t-51 14.5q-5 2 -10 4.5t-10 5.5q-49 28 -69 67.5t-20 110.5v384q0 14 -2 20t-11 11l-5 2.5t-7 2.5q-8 3 -12.5 9.5t-4.5 15.5q0 13 8 20t22 7l12 1h186h11q15 -1 23 -7.5t8 -20.5q0 -9 -4.5 -15.5t-12.5 -9.5q-4 -1 -7 -2.5l-5 -2.5
q-9 -5 -11 -11t-2 -21v-409q0 -38 1 -54t6 -28v-0.5v-0.5q6 -16 14.5 -23t28.5 -12v1zM338 -13v64q47 7 73 46.5t26 103.5v319q0 33 -10.5 56t-31.5 36q-5 3 -8.5 6t-6.5 5q-3 4 -4.5 8.5t-1.5 10.5q0 13 8 18.5t25 5.5l103 1q12 -1 17 -1.5t8 -2.5q0 -1 0.5 -1h0.5
q5 -4 8 -9t3 -11q0 -5 -0.5 -8.5t-3.5 -6.5q-2 -3 -7 -7t-14 -10q-18 -12 -28.5 -36t-10.5 -55v-317q0 -89 -38 -145.5t-107 -69.5v0zM184 852h83q8 -1 12.5 -2t8.5 -6q1 -2 3 -4.5t4 -6.5l62 -112l2 -6q0 -5 -3.5 -7t-8.5 -2l-30 1q-2 -1 -3 -0.5t-2 0.5q-2 1 -3.5 2.5
t-4.5 3.5l-8 8l-115 104q-4 4 -6.5 7t-3.5 5v1.5v0.5q0 5 4 8.5t9 3.5v1z" />
    <glyph glyph-name="uacute" unicode="&#xfa;" horiz-adv-x="575" 
d="M305 51v-64h-13q-37 0 -63 4.5t-51 14.5q-5 2 -10 4.5t-10 5.5q-49 28 -69 67.5t-20 110.5v384q0 14 -2 20t-11 11l-5 2.5t-7 2.5q-8 3 -12.5 9.5t-4.5 15.5q0 13 8 20t22 7l12 1h186h11q15 -1 23 -7.5t8 -20.5q0 -9 -4.5 -15.5t-12.5 -9.5q-4 -1 -7 -2.5l-5 -2.5
q-9 -5 -11 -11t-2 -21v-409q0 -38 1 -54t6 -28v-0.5v-0.5q6 -16 14.5 -23t28.5 -12v1zM338 -13v64q47 7 73 46.5t26 103.5v319q0 33 -10.5 56t-31.5 36q-5 3 -8.5 6t-6.5 5q-3 4 -4.5 8.5t-1.5 10.5q0 13 8 18.5t25 5.5l103 1q12 -1 17 -1.5t8 -2.5q0 -1 0.5 -1h0.5
q5 -4 8 -9t3 -11q0 -5 -0.5 -8.5t-3.5 -6.5q-2 -3 -7 -7t-14 -10q-18 -12 -28.5 -36t-10.5 -55v-317q0 -89 -38 -145.5t-107 -69.5v0zM410 825l-114 -104l-7 -7q-3 -3 -5 -4.5t-4 -2.5q-1 -1 -2 -1h-3l-30 1q-5 -1 -8.5 1t-3.5 6l2 7l62 113q2 3 4 5.5t3 4.5q4 5 8.5 6
t12.5 1l83 1q5 -1 9 -4t4 -8v-2t-1 -2q0 -2 -2.5 -5t-7.5 -7v1z" />
    <glyph glyph-name="ucircumflex" unicode="&#xfb;" horiz-adv-x="575" 
d="M305 51v-64h-13q-37 0 -63 4.5t-51 14.5q-5 2 -10 4.5t-10 5.5q-49 28 -69 67.5t-20 110.5v384q0 14 -2 20t-11 11l-5 2.5t-7 2.5q-8 3 -12.5 9.5t-4.5 15.5q0 13 8 20t22 7l12 1h186h11q15 -1 23 -7.5t8 -20.5q0 -9 -4.5 -15.5t-12.5 -9.5q-4 -1 -7 -2.5l-5 -2.5
q-9 -5 -11 -11t-2 -21v-409q0 -38 1 -54t6 -28v-0.5v-0.5q6 -16 14.5 -23t28.5 -12v1zM338 -13v64q47 7 73 46.5t26 103.5v319q0 33 -10.5 56t-31.5 36q-5 3 -8.5 6t-6.5 5q-3 4 -4.5 8.5t-1.5 10.5q0 13 8 18.5t25 5.5l103 1q12 -1 17 -1.5t8 -2.5q0 -1 0.5 -1h0.5
q5 -4 8 -9t3 -11q0 -5 -0.5 -8.5t-3.5 -6.5q-2 -3 -7 -7t-14 -10q-18 -12 -28.5 -36t-10.5 -55v-317q0 -89 -38 -145.5t-107 -69.5v0zM297 760l-20 -38l-5 -9q0 -1 -0.5 -1.5l-0.5 -0.5q-3 -3 -6.5 -4t-13.5 -1l-59 1q-10 -1 -14.5 1.5t-4.5 8.5v2t1 3q0 2 2 4.5t4 5.5
l80 100q6 7 11 11t10 6q1 0 3 0.5t4 0.5l21 1q5 -1 10 -3.5t10 -6.5q2 -2 5 -4.5t5 -5.5l82 -98l6 -8l3 -8q0 -7 -3.5 -9t-11.5 -2l-68 1q-13 -1 -19.5 2.5t-10.5 11.5l-20 39v0z" />
    <glyph glyph-name="udieresis" unicode="&#xfc;" horiz-adv-x="575" 
d="M305 51v-64h-13q-37 0 -63 4.5t-51 14.5q-5 2 -10 4.5t-10 5.5q-49 28 -69 67.5t-20 110.5v384q0 14 -2 20t-11 11l-5 2.5t-7 2.5q-8 3 -12.5 9.5t-4.5 15.5q0 13 8 20t22 7l12 1h186h11q15 -1 23 -7.5t8 -20.5q0 -9 -4.5 -15.5t-12.5 -9.5q-4 -1 -7 -2.5l-5 -2.5
q-9 -5 -11 -11t-2 -21v-409q0 -38 1 -54t6 -28v-0.5v-0.5q6 -16 14.5 -23t28.5 -12v1zM338 -13v64q47 7 73 46.5t26 103.5v319q0 33 -10.5 56t-31.5 36q-5 3 -8.5 6t-6.5 5q-3 4 -4.5 8.5t-1.5 10.5q0 13 8 18.5t25 5.5l103 1q12 -1 17 -1.5t8 -2.5q0 -1 0.5 -1h0.5
q5 -4 8 -9t3 -11q0 -5 -0.5 -8.5t-3.5 -6.5q-2 -3 -7 -7t-14 -10q-18 -12 -28.5 -36t-10.5 -55v-317q0 -89 -38 -145.5t-107 -69.5v0zM209 850q26 -1 44 -21.5t18 -50.5q0 -29 -18 -50t-44 -21q-25 0 -43.5 21t-18.5 50q0 30 18.5 50.5t43.5 20.5v1zM367 850
q26 -1 44.5 -21.5t18.5 -50.5q0 -29 -18.5 -50t-44.5 -21q-25 0 -43.5 21t-18.5 50q0 30 18.5 50.5t43.5 20.5v1z" />
    <glyph glyph-name="yacute" unicode="&#xfd;" horiz-adv-x="507" 
d="M341 306v-213q0 -19 4 -26t19 -12q2 -1 4 -1.5t5 -1.5q9 -2 14 -8.5t5 -17.5q0 -14 -8 -20t-28 -6h-14h-187h-14q-19 0 -27.5 6.5t-8.5 20.5q0 10 5 16.5t14 8.5q3 1 6 1.5t5 1.5q14 5 17.5 12t3.5 25v166l-117 329q-4 10 -8.5 16t-10.5 11q-4 3 -7.5 5.5t-5.5 4.5
q-3 4 -4 7.5t-1 9.5q0 13 8 19t24 6l204 1q17 -1 25 -7t8 -20q0 -7 -3.5 -13t-8.5 -11l-12 -8q-4 -3 -6 -7.5t-2 -9.5q0 -2 0.5 -5.5t1.5 -6.5v-1.5v-1.5q1 -2 1.5 -4.5t0.5 -4.5l98 -261v0zM357 352l-24 64l43 115q2 4 3.5 9.5t2.5 10.5q0 5 0.5 9t0.5 8q0 15 -6.5 25.5
t-20.5 17.5q-5 2 -8.5 4t-6.5 4q-5 4 -7 8t-2 11q0 16 9 22t31 6l103 1q14 -1 21.5 -8t7.5 -21q0 -7 -2 -11.5t-7 -8.5q-2 -1 -4.5 -2.5t-5.5 -3.5q-19 -10 -30.5 -23.5t-19.5 -33.5l-10 -24l-68 -179v0zM376 825l-114 -104l-7 -7q-3 -3 -5 -4.5t-4 -2.5q-1 -1 -2 -1h-3
l-30 1q-5 -1 -8.5 1t-3.5 6l2 7l62 113q2 3 4 5.5t3 4.5q4 5 8.5 6t12.5 1l83 1q5 -1 9 -4t4 -8v-2t-1 -2q0 -2 -2.5 -5t-7.5 -7v1z" />
    <glyph glyph-name="thorn" unicode="&#xfe;" 
 />
    <glyph glyph-name="ydieresis" unicode="&#xff;" horiz-adv-x="507" 
d="M341 306v-213q0 -19 4 -26t19 -12q2 -1 4 -1.5t5 -1.5q9 -2 14 -8.5t5 -17.5q0 -14 -8 -20t-28 -6h-14h-187h-14q-19 0 -27.5 6.5t-8.5 20.5q0 10 5 16.5t14 8.5q3 1 6 1.5t5 1.5q14 5 17.5 12t3.5 25v166l-117 329q-4 10 -8.5 16t-10.5 11q-4 3 -7.5 5.5t-5.5 4.5
q-3 4 -4 7.5t-1 9.5q0 13 8 19t24 6l204 1q17 -1 25 -7t8 -20q0 -7 -3.5 -13t-8.5 -11l-12 -8q-4 -3 -6 -7.5t-2 -9.5q0 -2 0.5 -5.5t1.5 -6.5v-1.5v-1.5q1 -2 1.5 -4.5t0.5 -4.5l98 -261v0zM357 352l-24 64l43 115q2 4 3.5 9.5t2.5 10.5q0 5 0.5 9t0.5 8q0 15 -6.5 25.5
t-20.5 17.5q-5 2 -8.5 4t-6.5 4q-5 4 -7 8t-2 11q0 16 9 22t31 6l103 1q14 -1 21.5 -8t7.5 -21q0 -7 -2 -11.5t-7 -8.5q-2 -1 -4.5 -2.5t-5.5 -3.5q-19 -10 -30.5 -23.5t-19.5 -33.5l-10 -24l-68 -179v0zM174 850q26 -1 44 -21.5t18 -50.5q0 -29 -18 -50t-44 -21
q-25 0 -43.5 21t-18.5 50q0 30 18.5 50.5t43.5 20.5v1zM332 850q26 -1 44.5 -21.5t18.5 -50.5q0 -29 -18.5 -50t-44.5 -21q-25 0 -43.5 21t-18.5 50q0 30 18.5 50.5t43.5 20.5v1z" />
    <glyph glyph-name="Abreve" unicode="&#x102;" 
 />
    <glyph glyph-name="abreve" unicode="&#x103;" 
 />
    <glyph glyph-name="Aogonek" unicode="&#x104;" 
 />
    <glyph glyph-name="aogonek" unicode="&#x105;" 
 />
    <glyph glyph-name="Cacute" unicode="&#x106;" 
 />
    <glyph glyph-name="cacute" unicode="&#x107;" 
 />
    <glyph glyph-name="Ccaron" unicode="&#x10c;" 
 />
    <glyph glyph-name="ccaron" unicode="&#x10d;" 
 />
    <glyph glyph-name="Dcaron" unicode="&#x10e;" 
 />
    <glyph glyph-name="dcaron" unicode="&#x10f;" 
 />
    <glyph glyph-name="Dslash" unicode="&#x110;" 
 />
    <glyph glyph-name="dslash" unicode="&#x111;" 
 />
    <glyph glyph-name="Eogonek" unicode="&#x118;" 
 />
    <glyph glyph-name="eogonek" unicode="&#x119;" 
 />
    <glyph glyph-name="Ecaron" unicode="&#x11a;" 
 />
    <glyph glyph-name="ecaron" unicode="&#x11b;" 
 />
    <glyph glyph-name="Gbreve" unicode="&#x11e;" 
 />
    <glyph glyph-name="gbreve" unicode="&#x11f;" 
 />
    <glyph glyph-name="Idot" unicode="&#x130;" 
 />
    <glyph glyph-name="dotlessi" unicode="&#x131;" 
 />
    <glyph glyph-name="Lacute" unicode="&#x139;" 
 />
    <glyph glyph-name="lacute" unicode="&#x13a;" 
 />
    <glyph glyph-name="Lcaron" unicode="&#x13d;" 
 />
    <glyph glyph-name="lcaron" unicode="&#x13e;" 
 />
    <glyph glyph-name="Ldot" unicode="&#x13f;" 
 />
    <glyph glyph-name="ldot" unicode="&#x140;" 
 />
    <glyph glyph-name="Lslash" unicode="&#x141;" 
 />
    <glyph glyph-name="lslash" unicode="&#x142;" 
 />
    <glyph glyph-name="Nacute" unicode="&#x143;" 
 />
    <glyph glyph-name="nacute" unicode="&#x144;" 
 />
    <glyph glyph-name="Ncaron" unicode="&#x147;" 
 />
    <glyph glyph-name="ncaron" unicode="&#x148;" 
 />
    <glyph glyph-name="Odblacute" unicode="&#x150;" 
 />
    <glyph glyph-name="odblacute" unicode="&#x151;" 
 />
    <glyph glyph-name="OE" unicode="&#x152;" horiz-adv-x="747" 
d="M252 627q-21 -9 -29.5 -24.5t-8.5 -44.5v-436q0 -41 8 -58t30 -24v-53q-109 10 -172 103.5t-63 241.5q0 149 65 245t170 102v-52v0zM349 667h161v-667h-165q-7 -3 -13 -4.5t-12 -3.5q-7 -2 -15 -3t-19 -2v54q21 5 29.5 24t8.5 56v438q0 28 -8.5 43.5t-29.5 23.5v54
q13 -1 22 -2.5t18 -3.5q6 -2 11.5 -3.5t11.5 -4.5v1zM544 0v53q50 8 81.5 38.5t48.5 88.5q5 16 10 22t13 6q13 0 17.5 -8t4.5 -29v-171h-175v0zM544 312v56q25 13 36 29t16 43q4 19 9.5 26t15.5 7q12 0 16 -8.5t4 -33.5v-185q0 -23 -4 -32t-16 -9q-9 0 -14.5 7t-8.5 23
q-7 34 -20 52t-34 24v1zM544 667h169v-174q0 -16 -5 -23t-16 -7q-9 0 -13.5 5t-8.5 18q-16 57 -46 87t-80 35v59v0z" />
    <glyph glyph-name="oe" unicode="&#x153;" horiz-adv-x="747" 
d="M252 627q-21 -9 -29.5 -24.5t-8.5 -44.5v-436q0 -41 8 -58t30 -24v-53q-109 10 -172 103.5t-63 241.5q0 149 65 245t170 102v-52v0zM349 667h161v-667h-165q-7 -3 -13 -4.5t-12 -3.5q-7 -2 -15 -3t-19 -2v54q21 5 29.5 24t8.5 56v438q0 28 -8.5 43.5t-29.5 23.5v54
q13 -1 22 -2.5t18 -3.5q6 -2 11.5 -3.5t11.5 -4.5v1zM544 0v53q50 8 81.5 38.5t48.5 88.5q5 16 10 22t13 6q13 0 17.5 -8t4.5 -29v-171h-175v0zM544 312v56q25 13 36 29t16 43q4 19 9.5 26t15.5 7q12 0 16 -8.5t4 -33.5v-185q0 -23 -4 -32t-16 -9q-9 0 -14.5 7t-8.5 23
q-7 34 -20 52t-34 24v1zM544 667h169v-174q0 -16 -5 -23t-16 -7q-9 0 -13.5 5t-8.5 18q-16 57 -46 87t-80 35v59v0z" />
    <glyph glyph-name="Racute" unicode="&#x154;" 
 />
    <glyph glyph-name="racute" unicode="&#x155;" 
 />
    <glyph glyph-name="Rcaron" unicode="&#x158;" 
 />
    <glyph glyph-name="rcaron" unicode="&#x159;" 
 />
    <glyph glyph-name="Sacute" unicode="&#x15a;" 
 />
    <glyph glyph-name="sacute" unicode="&#x15b;" 
 />
    <glyph glyph-name="Scedilla" unicode="&#x15e;" 
 />
    <glyph glyph-name="scedilla" unicode="&#x15f;" 
 />
    <glyph glyph-name="Scaron" unicode="&#x160;" 
 />
    <glyph glyph-name="scaron" unicode="&#x161;" 
 />
    <glyph glyph-name="Tcedilla" unicode="&#x162;" 
 />
    <glyph glyph-name="tcedilla" unicode="&#x163;" 
 />
    <glyph glyph-name="Tcaron" unicode="&#x164;" 
 />
    <glyph glyph-name="tcaron" unicode="&#x165;" 
 />
    <glyph glyph-name="Uring" unicode="&#x16e;" 
 />
    <glyph glyph-name="uring" unicode="&#x16f;" 
 />
    <glyph glyph-name="udblacute" unicode="&#x170;" 
 />
    <glyph glyph-name="Udblacute" unicode="&#x171;" 
 />
    <glyph glyph-name="Ydieresis" unicode="&#x178;" horiz-adv-x="507" 
d="M341 306v-213q0 -19 4 -26t19 -12q2 -1 4 -1.5t5 -1.5q9 -2 14 -8.5t5 -17.5q0 -14 -8 -20t-28 -6h-14h-187h-14q-19 0 -27.5 6.5t-8.5 20.5q0 10 5 16.5t14 8.5q3 1 6 1.5t5 1.5q14 5 17.5 12t3.5 25v166l-117 329q-4 10 -8.5 16t-10.5 11q-4 3 -7.5 5.5t-5.5 4.5
q-3 4 -4 7.5t-1 9.5q0 13 8 19t24 6l204 1q17 -1 25 -7t8 -20q0 -7 -3.5 -13t-8.5 -11l-12 -8q-4 -3 -6 -7.5t-2 -9.5q0 -2 0.5 -5.5t1.5 -6.5v-1.5v-1.5q1 -2 1.5 -4.5t0.5 -4.5l98 -261v0zM357 352l-24 64l43 115q2 4 3.5 9.5t2.5 10.5q0 5 0.5 9t0.5 8q0 15 -6.5 25.5
t-20.5 17.5q-5 2 -8.5 4t-6.5 4q-5 4 -7 8t-2 11q0 16 9 22t31 6l103 1q14 -1 21.5 -8t7.5 -21q0 -7 -2 -11.5t-7 -8.5q-2 -1 -4.5 -2.5t-5.5 -3.5q-19 -10 -30.5 -23.5t-19.5 -33.5l-10 -24l-68 -179v0zM174 850q26 -1 44 -21.5t18 -50.5q0 -29 -18 -50t-44 -21
q-25 0 -43.5 21t-18.5 50q0 30 18.5 50.5t43.5 20.5v1zM332 850q26 -1 44.5 -21.5t18.5 -50.5q0 -29 -18.5 -50t-44.5 -21q-25 0 -43.5 21t-18.5 50q0 30 18.5 50.5t43.5 20.5v1z" />
    <glyph glyph-name="Zacute" unicode="&#x179;" 
 />
    <glyph glyph-name="zacute" unicode="&#x17a;" 
 />
    <glyph glyph-name="Zdot" unicode="&#x17b;" 
 />
    <glyph glyph-name="zdot" unicode="&#x17c;" 
 />
    <glyph glyph-name="Zcaron" unicode="&#x17d;" 
 />
    <glyph glyph-name="zcaron" unicode="&#x17e;" 
 />
    <glyph glyph-name="florin" unicode="&#x192;" horiz-adv-x="487" 
d="M83 -99l-7 -46q-68 5 -102 32t-34 75q0 35 18.5 56t47.5 21q27 0 44.5 -18t17.5 -46v-3.5v-2.5q-1 -6 -3 -13.5t-7 -21.5l-2 -13q0 -6 3 -9.5t9 -6.5q1 0 2.5 -0.5t3.5 -1.5l9 -2v0zM392 733l-45 -302h79l-7 -50h-79l-29 -187l-7 -58q-16 -105 -40 -160t-71 -84
q-7 -4 -13 -8t-12 -7q-14 -7 -29.5 -12.5t-34.5 -9.5l79 526h-69l8 50h69l15 102q10 63 23.5 95.5t41.5 58.5q25 23 53 33.5t68 11.5v1zM414 686l7 46q69 -6 103 -33t34 -75q0 -35 -18 -56.5t-49 -21.5q-28 0 -44.5 18.5t-16.5 46.5v3.5v2.5q0 6 1.5 13.5t6.5 21.5l3 14
q0 5 -4 9t-15 8l-8 3v0z" />
    <glyph glyph-name="hungarumlaut" unicode="&#x2ba;" horiz-adv-x="425" 
d="M417 -91q0 -23 -9.5 -36t-28.5 -16q-20 -3 -28.5 -11.5t-8.5 -24.5q0 -20 14.5 -32.5t36.5 -11.5h15q7 1 12 -5t5 -14q0 -13 -10 -20t-28 -7q-43 0 -73.5 32t-30.5 77q0 47 26 83.5t60 36.5q23 0 35.5 -13.5t12.5 -37.5v0z" />
    <glyph glyph-name="tilde" unicode="&#x2c6;" horiz-adv-x="425" 
d="M163 851q1 -1 1.5 -1h1.5q13 -1 27.5 -6.5t37.5 -20.5q18 -11 34 -17t27 -6q8 0 14 6.5t9 21.5q2 11 5.5 15t7.5 4q11 0 15 -5.5t4 -19.5q0 -8 -1.5 -17t-3.5 -19t-5.5 -19t-8.5 -17q-11 -22 -28 -33t-37 -11h-5t-5 1q-11 1 -22.5 5.5t-28.5 14.5l-28 17q-15 7 -24 10.5
t-15 3.5q-8 0 -14.5 -6.5t-10.5 -20.5q-1 -5 -2.5 -8.5t-2.5 -5.5q-2 -3 -4 -4.5t-5 -1.5q-8 0 -13 6.5t-5 18.5q0 8 1.5 17.5t4.5 18.5q3 12 8 22.5t10 19.5q11 18 26.5 27t34.5 9v1z" />
    <glyph glyph-name="caron" unicode="&#x2c7;" horiz-adv-x="425" 
d="M216 798l21 38l4 8q3 4 7 5t13 1l60 1q10 -1 14.5 -4t4.5 -8v-2v-3l-2 -4t-4 -6l-82 -98q-7 -11 -13.5 -15.5t-12.5 -4.5l-22 1q-7 -1 -14.5 4t-15.5 14l-82 100l-7 8l-1 8q0 4 3 6.5t11 2.5l68 1q13 -1 20 -4.5t11 -11.5l19 -37v0z" />
    <glyph glyph-name="macron" unicode="&#x2c9;" horiz-adv-x="425" 
d="M344 807v-55q0 -11 -3.5 -15t-13.5 -4l-230 1q-9 -1 -13 3t-4 14v56q0 9 4 12.5t13 3.5l230 1q10 -1 13.5 -4.5t3.5 -13.5v1z" />
    <glyph glyph-name="breve" unicode="&#x2d8;" horiz-adv-x="425" 
d="M212 707q-31 -1 -57.5 13t-42.5 40q-5 8 -9 16.5t-8 18.5q-3 10 -5 19.5t-2 17.5q0 9 4.5 13.5t11.5 4.5q4 0 6.5 -0.5t4.5 -3.5l2 -4t2 -5q3 -7 8.5 -13t13.5 -10q9 -4 22.5 -7.5t28.5 -5.5q5 0 10 -0.5t10 -0.5h6.5h6.5q17 2 32.5 5.5t26.5 8.5q8 3 13 9.5t9 13.5
q1 3 2 5.5t2 3.5q2 3 4 3.5t6 0.5q8 0 12 -4.5t4 -14.5q0 -8 -2 -18t-6 -20q-4 -11 -8.5 -21t-10.5 -18q-16 -23 -41 -35.5t-56 -12.5v1z" />
    <glyph glyph-name="dotaccent" unicode="&#x2d9;" horiz-adv-x="425" 
d="M212 850q26 -1 44 -21.5t18 -50.5q0 -29 -18 -50t-44 -21q-25 0 -43.5 21t-18.5 50q0 30 18.5 50.5t43.5 20.5v1z" />
    <glyph glyph-name="ring" unicode="&#x2da;" horiz-adv-x="425" 
d="M214 697q-37 9 -57.5 37t-20.5 68q0 41 20.5 68.5t57.5 37.5v-63q-13 -8 -18.5 -18.5t-5.5 -24.5t5.5 -24t18.5 -18v-63v0zM244 909q38 -11 58.5 -38.5t20.5 -68.5q0 -40 -20.5 -68t-58.5 -38v65q13 7 18.5 17t5.5 24t-6 24t-18 18v65v0z" />
    <glyph glyph-name="ogonek" unicode="&#x2db;" horiz-adv-x="425" 
d="M243 824l-85 -99l-6 -7q-2 -3 -3.5 -4t-3.5 -2q-1 -1 -2 -1h-2l-26 1q-5 -1 -8.5 1.5t-3.5 6.5l1 5l38 108q1 1 1.5 2.5t0.5 2.5q3 7 7 9t13 2l73 1q1 -1 1.5 -1h0.5q4 -1 7.5 -4.5t3.5 -8.5q0 -2 -1 -5t-6 -8v1zM376 824l-85 -99l-6 -7q-3 -4 -5.5 -5.5t-4.5 -1.5l-27 1
q-5 -1 -8 1.5t-3 6.5l1 5l37 108l2 4l2 4q3 5 6.5 6.5t11.5 1.5l73 1q5 -1 9 -5t4 -9q0 -2 -1.5 -5t-5.5 -8v1z" />
    <glyph glyph-name="circumflex" unicode="&#x2dc;" horiz-adv-x="425" 
d="M208 760l-21 -38l-4 -9q-3 -5 -7 -6t-14 -1l-59 1q-10 -1 -14.5 1.5t-4.5 8.5v2v3q1 2 2.5 4.5t3.5 5.5l81 100q8 10 14.5 14t12.5 4l22 1q3 -1 7 -2.5t8 -3.5q3 -2 7 -5.5t7 -8.5l83 -98l6 -8l2 -8q0 -7 -3 -9t-11 -2l-68 1q-13 -1 -20 2.5t-11 11.5l-19 39v0z" />
    <glyph glyph-name="Gamma" unicode="&#x393;" 
 />
    <glyph glyph-name="Theta" unicode="&#x398;" 
 />
    <glyph glyph-name="summation" unicode="&#x3a3;" horiz-adv-x="566" 
d="M28 667h482v-181h-19q-7 73 -38.5 108t-90.5 35l-173 1l160 -336l-215 -435l220 -1q46 0 75 12.5t53 43.5q16 19 26.5 44.5t17.5 61.5l18 1l-29 -254h-487l221 447l-221 453v0z" />
    <glyph glyph-name="Phi" unicode="&#x3a6;" 
 />
    <glyph glyph-name="Omega" unicode="&#x3a9;" horiz-adv-x="686" 
d="M666 164l-32 -164h-257v89q12 8 21 16t16 16q9 8 15.5 17.5t12.5 19.5q1 3 2.5 5.5t3.5 5.5q19 37 29.5 90.5t10.5 111.5q0 125 -38.5 194.5t-106.5 69.5q-67 0 -106 -70.5t-39 -192.5q0 -64 13 -122t37 -97q1 -1 1.5 -2t0.5 -2q6 -9 11.5 -16t11.5 -14q7 -7 16 -14.5
t20 -16.5v-88h-258l-31 164h19q11 -39 30.5 -55t56.5 -18h27l95 -8v8q-15 5 -28 10t-23 10q-18 9 -32 18t-28 21l-4.5 4.5t-5.5 4.5q-44 41 -68 98t-24 120q0 69 30 132.5t82 106.5q37 29 86.5 44.5t104.5 15.5q81 0 143 -26t102 -78q34 -41 51 -91t17 -103
q0 -76 -30.5 -138.5t-88.5 -103.5q-1 0 -1.5 -0.5l-1.5 -1.5q-6 -4 -13 -8l-14 -8q-12 -6 -27 -13t-36 -15v-7l108 9l26 1q30 2 46 17.5t27 52.5l20 1v0z" />
    <glyph glyph-name="alpha" unicode="&#x3b1;" 
 />
    <glyph glyph-name="delta" unicode="&#x3b4;" horiz-adv-x="425" 
d="M112 682l8 19q40 -17 77 -42.5t68 -57.5q48 -51 83 -125t50 -152q4 -24 6.5 -48t2.5 -47q0 -59 -16.5 -106t-49.5 -83q-27 -30 -57.5 -43t-71.5 -13q-86 0 -140.5 67t-54.5 174q0 61 19.5 111.5t53.5 81.5q14 13 32.5 23t37.5 16q11 3 22.5 5t21.5 2q4 0 9 -0.5t10 -1.5
q11 -1 20.5 -4t13.5 -6l13 -7l9 -5q-3 7 -5.5 14t-4.5 13q-13 36 -27 63.5t-32 53.5q-1 1 -2 2.5t-2 2.5q-5 7 -10.5 13.5t-12.5 13.5q-8 10 -17.5 19t-19.5 18q-9 8 -17.5 15t-16.5 13v1zM212 432q-15 -1 -27 -8.5t-20 -23.5q-9 -19 -16 -65t-8 -98v-5v-4q0 -11 0.5 -22
t0.5 -22q3 -40 8 -75t11 -51q9 -22 21.5 -32.5t29.5 -10.5q15 0 26 8.5t20 26.5q11 21 18 72t7 109q0 50 -5.5 95.5t-14.5 66.5q-8 20 -20.5 29t-30.5 9v1z" />
    <glyph glyph-name="epsilon" unicode="&#x3b5;" 
 />
    <glyph glyph-name="pi" unicode="&#x3c0;" horiz-adv-x="519" 
d="M522 478v-92h-97l-6 -16q-2 -9 -3.5 -15.5t-3.5 -13.5q-1 -10 -2 -20.5t-1 -24.5v-152q0 -53 7.5 -71.5t28.5 -18.5l19 3l17 2v-21l-141 -49l-12 -3q-4 0 -9 3.5t-11 8.5t-11.5 14t-9.5 18q-1 3 -2 5.5t-2 4.5q-4 10 -5 22t-1 31v147q0 26 5.5 47.5t17.5 41.5q3 4 6 8.5
t6 8.5q7 10 12.5 16t10.5 11q2 1 3.5 2.5l2.5 2.5q2 2 4 3.5t4 3.5l-134 1l-3 -92q-1 -26 -3 -55t-5 -60l-6 -48t-6 -45q-10 -61 -28 -86t-50 -25q-26 0 -41.5 16.5t-15.5 44.5q0 7 0.5 13t2.5 12q3 9 8 18t14 21q12 17 20.5 30.5t14.5 27.5q4 10 7.5 20.5t5.5 22.5
q5 25 9 58.5t7 69.5q1 14 1.5 28t0.5 27q-31 -2 -50 -8t-35 -22q-8 -7 -16.5 -18t-18.5 -25l-17 18l49 97q14 27 35 39t55 12l372 1v0z" />
    <glyph glyph-name="sigma" unicode="&#x3c3;" 
 />
    <glyph glyph-name="tau" unicode="&#x3c4;" 
 />
    <glyph glyph-name="phi" unicode="&#x3c6;" 
 />
    <glyph glyph-name="glyph276" unicode="&#x2013;" horiz-adv-x="487" 
d="M453 365v-68q0 -12 -3 -16.5t-14 -4.5l-385 1q-10 -1 -13.5 3.5t-3.5 15.5v69q0 10 3.5 14.5t13.5 4.5l385 1q11 -1 14 -5.5t3 -15.5v1z" />
    <glyph glyph-name="emdash" unicode="&#x2014;" horiz-adv-x="636" 
d="M636 365v-68q0 -12 -3.5 -16.5t-13.5 -4.5l-602 1q-10 -1 -13.5 3.5t-3.5 15.5v69q0 10 3.5 14.5t13.5 4.5l602 1q10 -1 13.5 -5.5t3.5 -15.5v1z" />
    <glyph glyph-name="underscoredbl" unicode="&#x2017;" 
 />
    <glyph glyph-name="quoteleft" unicode="&#x2018;" horiz-adv-x="487" 
d="M243 238q32 -1 53.5 -26.5t21.5 -61.5q0 -35 -21.5 -60.5t-53.5 -25.5q-31 0 -53 25.5t-22 60.5q0 36 22 61.5t53 25.5v1zM455 366v-64q0 -12 -3 -16.5t-14 -4.5l-390 1q-10 -1 -13.5 3.5t-3.5 15.5v65q0 10 3.5 14.5t13.5 4.5l390 1q11 -1 14 -5.5t3 -15.5v1zM243 603
q32 -1 53.5 -26t21.5 -61t-21.5 -61.5t-53.5 -25.5q-31 0 -53 25.5t-22 61.5t22 61t53 25v1z" />
    <glyph glyph-name="quoteright" unicode="&#x2019;" horiz-adv-x="283" 
d="M227 569q0 -7 -0.5 -13t-1.5 -12q-5 -42 -29.5 -82.5t-62.5 -70.5q-19 -13 -33 -20.5t-25 -7.5q-8 0 -13.5 6t-5.5 16q0 8 4.5 13.5t11.5 10.5q12 8 21.5 14.5t17.5 13.5q4 4 7 7.5t6 6.5q1 1 2 2.5t2 2.5q7 9 11.5 16.5t4.5 12.5t-2.5 7.5t-10.5 3.5l-5 2l-6 1
q-26 4 -43 28.5t-17 58.5q0 39 23 66t56 27q36 0 62 -32.5t26 -78.5v1z" />
    <glyph glyph-name="quotesinglbase" unicode="&#x201a;" horiz-adv-x="283" 
d="M227 64q0 -7 -0.5 -13t-1.5 -12q-5 -41 -29.5 -81.5t-62.5 -70.5q-19 -14 -33 -21t-25 -7q-8 0 -13.5 6t-5.5 16q0 7 4.5 13t11.5 11q12 7 21.5 14t17.5 14l7 7t6 7q1 1 2 2.5t2 2.5q7 9 11.5 16.5t4.5 12.5t-2.5 7.5t-10.5 3.5l-5 1l-6 1q-26 4 -43 28.5t-17 58.5
q0 39 23 66t56 27q36 0 62 -32.5t26 -78.5v1z" />
    <glyph glyph-name="quotedblleft" unicode="&#x201c;" horiz-adv-x="481" 
d="M56 476q0 7 1 16t2 17q8 39 31.5 76.5t59.5 65.5q19 14 33.5 21t24.5 7q8 0 13 -6t5 -15q0 -7 -3.5 -13t-11.5 -11q-18 -11 -31 -21.5t-22 -20.5q-8 -10 -13.5 -20t-5.5 -15t3 -7t10 -4h5l6 -1q26 -5 43 -29t17 -59q0 -40 -23 -67t-56 -27q-36 0 -62 33t-26 79v1z
M254 476q0 7 1 16t2 17q8 39 31.5 76.5t59.5 65.5q19 14 33.5 21t24.5 7q8 0 13.5 -6t5.5 -15q0 -7 -4 -13t-12 -11q-18 -11 -31 -21.5t-21 -20.5q-9 -10 -14 -20t-5 -15t2.5 -7t9.5 -4h5l7 -1q26 -5 43 -29t17 -59q0 -40 -23 -67t-57 -27q-36 0 -62 33t-26 79v1z" />
    <glyph glyph-name="quotedblright" unicode="&#x201d;" horiz-adv-x="481" 
d="M227 569q0 -7 -0.5 -13t-1.5 -12q-5 -42 -29.5 -82.5t-62.5 -70.5q-19 -13 -33 -20.5t-25 -7.5q-8 0 -13.5 6t-5.5 16q0 8 4.5 13.5t11.5 10.5q12 8 21.5 14.5t17.5 13.5q4 4 7 7.5t6 6.5q1 1 2 2.5t2 2.5q7 9 11.5 16.5t4.5 12.5t-2.5 7.5t-10.5 3.5l-5 2l-6 1
q-26 4 -43 28.5t-17 58.5q0 39 23 66t56 27q36 0 62 -32.5t26 -78.5v1zM425 569q0 -7 -0.5 -13t-1.5 -12q-5 -42 -29 -82.5t-63 -70.5q-18 -13 -32.5 -20.5t-25.5 -7.5q-7 0 -12.5 6t-5.5 16q0 8 4 13.5t12 10.5q12 8 21.5 14.5t16.5 13.5l7.5 7.5l6.5 6.5q1 1 2 2.5t2 2.5
q7 9 11 16.5t4 12.5t-2.5 7.5t-9.5 3.5l-6 2l-6 1q-26 4 -43 28.5t-17 58.5q0 39 23 66t56 27q36 0 62 -32.5t26 -78.5v1z" />
    <glyph glyph-name="quotedblbase" unicode="&#x201e;" horiz-adv-x="481" 
d="M227 64q0 -7 -0.5 -13t-1.5 -12q-5 -41 -29.5 -81.5t-62.5 -70.5q-19 -14 -33 -21t-25 -7q-8 0 -13.5 6t-5.5 16q0 7 4.5 13t11.5 11q12 7 21.5 14t17.5 14l7 7t6 7q1 1 2 2.5t2 2.5q7 9 11.5 16.5t4.5 12.5t-2.5 7.5t-10.5 3.5l-5 1l-6 1q-26 4 -43 28.5t-17 58.5
q0 39 23 66t56 27q36 0 62 -32.5t26 -78.5v1zM425 64q0 -7 -0.5 -13t-1.5 -12q-5 -41 -29 -81.5t-63 -70.5q-18 -14 -32.5 -21t-25.5 -7q-7 0 -12.5 6t-5.5 16q0 7 4 13t12 11q12 7 21.5 14t16.5 14q4 4 7.5 7t6.5 7q1 1 2 2.5t2 2.5q7 9 11 16.5t4 12.5t-2.5 7.5t-9.5 3.5
l-6 1l-6 1q-26 4 -43 28.5t-17 58.5q0 39 23 66t56 27q36 0 62 -32.5t26 -78.5v1z" />
    <glyph glyph-name="dagger" unicode="&#x2020;" horiz-adv-x="487" 
d="M303 569v-633q0 -12 2.5 -18t11.5 -11q2 0 3.5 -1t3.5 -2q8 -4 12 -9.5t4 -13.5q0 -14 -8 -19.5t-29 -5.5h-130q-15 0 -22.5 6.5t-7.5 18.5q0 8 4.5 14.5t11.5 8.5l12 5q5 2 8 9t3 18v646q0 13 -1.5 19t-9.5 11q-2 1 -4.5 2.5t-5.5 2.5q-8 3 -12.5 9.5t-4.5 14.5
q0 14 8.5 19.5t29.5 5.5l114 1q24 -1 34 -7t10 -21q0 -7 -3.5 -12.5t-8.5 -9.5l-15 -7q-6 -4 -8 -12t-2 -30v1zM156 353h-45q-11 -1 -16 -2.5t-9 -7.5q-1 -2 -2 -5t-3 -6q-4 -8 -9 -12t-12 -4q-11 0 -16 8t-5 28v113q0 22 5 31.5t18 9.5q6 0 10.5 -3.5t7.5 -8.5l7 -13
q2 -7 9 -8.5t26 -1.5l34 1v-119v0zM331 472h34q19 -1 25.5 0.5t9.5 7.5l7 15q3 4 7.5 7.5t10.5 3.5q13 0 18 -9.5t5 -32.5v-111q0 -21 -5 -29t-16 -8q-7 0 -12.5 4t-8.5 12q-1 3 -2.5 6l-2.5 5q-4 6 -9 7.5t-16 1.5l-45 1v119v0z" />
    <glyph glyph-name="daggerdbl" unicode="&#x2021;" horiz-adv-x="487" 
d="M304 569v-633q0 -12 2.5 -18t11.5 -11q2 0 3.5 -1t3.5 -2q8 -4 11.5 -9.5t3.5 -13.5q0 -14 -8 -19.5t-28 -5.5h-131q-14 0 -21.5 6.5t-7.5 18.5q0 8 4 14.5t11 8.5l13 5q5 2 8 9t3 18v646q0 13 -2 19t-9 11q-2 1 -4.5 2.5t-5.5 2.5q-8 3 -12.5 9.5t-4.5 14.5q0 14 8 19.5
t30 5.5l114 1q23 -1 33 -7t10 -21q0 -7 -3 -12.5t-9 -9.5l-14 -7q-6 -4 -8 -12t-2 -30v1zM156 52h-45q-11 -1 -16 -2.5t-9 -7.5q-1 -2 -2 -5t-3 -6q-4 -8 -9 -12.5t-12 -4.5q-11 0 -16 8.5t-5 28.5v113q0 22 5 31t18 9q6 0 10.5 -3t7.5 -9l7 -12q2 -7 9 -9t26 -2l34 1v-118
v0zM331 170h34q19 -1 25.5 1t9.5 8l7 14q3 5 7.5 8t10.5 3q13 0 18 -9t5 -32v-111q0 -21 -5 -29.5t-16 -8.5q-7 0 -12.5 4.5t-8.5 12.5q-1 3 -2.5 6l-2.5 5q-4 6 -9 7.5t-16 1.5l-45 1v118v0zM156 353h-45q-11 -1 -16 -2.5t-9 -7.5q-1 -2 -2 -5t-3 -6q-4 -8 -9 -12t-12 -4
q-11 0 -16 8t-5 28v113q0 22 5 31.5t18 9.5q6 0 10.5 -3.5t7.5 -8.5l7 -13q2 -7 9 -8.5t26 -1.5l34 1v-119v0zM331 472h34q19 -1 25.5 0.5t9.5 7.5l7 15q3 4 7.5 7.5t10.5 3.5q13 0 18 -9.5t5 -32.5v-111q0 -21 -5 -29t-16 -8q-7 0 -12.5 4t-8.5 12q-1 3 -2.5 6l-2.5 5
q-4 6 -9 7.5t-16 1.5l-45 1v119v0z" />
    <glyph glyph-name="glyph287" unicode="&#x2022;" horiz-adv-x="510" 
d="M168 286q0 39 23.5 67t57.5 28q35 0 59.5 -28t24.5 -68t-24.5 -68t-59.5 -28q-34 0 -57.5 28t-23.5 68v1z" />
    <glyph glyph-name="ellipsis" unicode="&#x2026;" horiz-adv-x="827" 
d="M138 -13q-34 0 -58 27t-24 66q0 40 24 67.5t58 27.5t58 -27.5t24 -67.5q0 -39 -24 -66t-58 -27v0zM413 -13q-33 0 -56.5 27t-23.5 66q0 40 23 67.5t57 27.5q35 0 58.5 -27.5t23.5 -67.5q0 -39 -23.5 -66t-58.5 -27v0zM690 -13q-34 0 -58 27t-24 66q0 40 24 67.5t58 27.5
t57.5 -27.5t23.5 -67.5q0 -39 -23.5 -66t-57.5 -27v0z" />
    <glyph glyph-name="perthousand" unicode="&#x2030;" horiz-adv-x="948" 
d="M452 283v-36q-16 -8 -22 -19.5t-6 -32.5v-107q0 -29 6 -42t22 -18v-35h-11q-58 0 -94 39t-36 103q0 65 37 106t95 41l9 1v0zM473 283h8q59 -1 95.5 -42.5t36.5 -106.5q0 -63 -35.5 -102t-93.5 -39h-11v36q16 4 22 17t6 41v109q0 20 -6.5 31.5t-21.5 18.5v37v0zM782 283
v-36q-16 -8 -22.5 -19.5t-6.5 -32.5v-107q0 -29 6.5 -42t22.5 -18v-35h-12q-57 0 -93 39t-36 103q0 65 37 106t95 41l9 1v0zM803 283h8q59 -1 95.5 -42.5t36.5 -106.5q0 -63 -36 -102t-93 -39h-11v36q16 4 22 17t6 41v109q0 20 -6.5 31.5t-21.5 18.5v37v0zM423 666h48
l-275 -666h-49l276 666v0zM146 673v-37q-16 -8 -22 -19.5t-6 -31.5v-107q0 -29 6 -42t22 -18v-35h-11q-58 -1 -94 38.5t-36 102.5q0 65 37 106.5t95 41.5l9 1v0zM167 673h8q59 -1 95.5 -42.5t36.5 -106.5q0 -63 -35.5 -102.5t-93.5 -39.5l-11 1v36q16 4 22 17t6 41v109
q0 19 -6.5 30.5t-21.5 18.5v38v0z" />
    <glyph glyph-name="guilsinglleft" unicode="&#x2039;" horiz-adv-x="289" 
d="M186 524l35 -34q3 -4 5 -6.5t3 -4.5q2 -2 2.5 -4.5t0.5 -5.5q0 -8 -6.5 -19t-21.5 -30q-17 -21 -29.5 -38t-20.5 -28q-4 -7 -5.5 -10.5t-1.5 -6.5q0 -1 1 -4t3 -6q0 -1 0.5 -1.5l1.5 -1.5l21 -31l27 -39q21 -30 26.5 -39.5t5.5 -15.5v-1.5v-1.5v-3.5t-1 -3.5
q-1 -3 -5 -7.5t-12 -10.5l-32 -23q-1 -2 -3 -3l-4 -2l-4.5 -1.5t-3.5 -0.5q-4 0 -8 4t-10 14l-78 133q-7 10 -10.5 16.5t-4.5 12.5q-1 3 -1 5.5v5.5q0 8 1.5 14.5t4.5 10.5l11 20l77 135l9 16l5 2.5t6 1.5h2t2 -1q2 0 5 -2.5t7 -5.5v1z" />
    <glyph glyph-name="guilsinglright" unicode="&#x203a;" horiz-adv-x="289" 
d="M139 512l76 -135l12 -19q3 -7 4 -13t1 -13v-5.5t-1 -5.5q-1 -6 -4 -12.5t-9 -17.5l-79 -131q-4 -7 -7 -11t-5 -6l-3 -1.5t-3 -0.5q-1 0 -3.5 0.5t-4.5 1.5l-4 2t-3 2l-32 25q-8 5 -12 9.5t-5 7.5q-1 2 -1 3.5v3.5v1.5v1.5q1 6 6.5 15.5t25.5 38.5l27 40l21 32
q4 4 5.5 7.5t1.5 4.5q0 3 -1.5 6.5t-6.5 10.5q-8 11 -20.5 28t-29.5 38q-15 19 -21.5 30t-6.5 18q0 4 1.5 7.5t3.5 6.5q1 2 2.5 3.5l3.5 3.5l35 35q4 2 7 4.5t5 2.5q1 1 2 1h2q4 0 7 -1.5t4 -3.5l9 -15v0z" />
    <glyph glyph-name="exclamdbl" unicode="&#x203c;" 
 />
    <glyph glyph-name="nsuperior" unicode="&#x207f;" 
 />
    <glyph glyph-name="franc" unicode="&#x20a3;" 
 />
    <glyph glyph-name="peseta" unicode="&#x20a7;" 
 />
    <glyph glyph-name="trademark" unicode="&#x2122;" horiz-adv-x="760" 
d="M224 667v-344q0 -11 2.5 -15.5t11.5 -7.5q1 -1 2.5 -1t3.5 -1q7 -1 10 -5.5t3 -9.5q0 -9 -6 -13t-18 -4l-9 1h-121h-9q-12 -1 -18 3t-6 13q0 5 3.5 9.5t9.5 5.5q2 1 4 1.5t4 0.5q8 3 10 7t2 15v345h121v0zM492 667l52 -164l24 89v-98l-62 -227h-14l-105 337q-1 3 -2.5 6
t-2.5 6q-3 7 -7.5 10.5t-11.5 5.5q-9 2 -13.5 6.5t-4.5 11.5q0 8 5.5 12t14.5 4l127 1v0zM387 532l28 -88v-89q0 -20 5 -32t16 -20l10 -6l3.5 -3.5l2.5 -2.5q2 -2 3 -4.5t1 -5.5q0 -7 -4.5 -11t-15.5 -4l-68 1q-10 -1 -15 3t-5 11q0 3 1.5 5.5t3.5 4.5q1 1 2 1.5t2 1.5
q15 8 22.5 23t7.5 37v178v0zM590 667h121h7q10 -1 15 -5t5 -12q0 -5 -2.5 -9t-8.5 -6l-3 -1.5t-3 -0.5q-6 -3 -8 -7t-2 -13v-292q0 -11 2 -15t9 -7q1 0 2.5 -0.5t2.5 -1.5q6 -1 8.5 -5t2.5 -10q0 -8 -5 -12t-15 -4l-7 1h-121h-9q-12 -1 -18 3t-6 13q0 5 3 9.5t10 5.5
q2 1 4 1.5t4 0.5q8 3 10 7t2 15v345v0zM11 667h70v-36q-13 -9 -22 -26t-13 -43l-2 -17q-1 -9 -6 -14t-11 -5q-7 0 -11.5 5.5t-4.5 13.5v122v0zM317 667v-121q0 -9 -4.5 -14.5t-12.5 -5.5q-6 0 -10.5 5t-6.5 13l-2 19q-4 25 -12.5 42t-22.5 25v37h71v0z" />
    <glyph glyph-name="arrowleft" unicode="&#x2190;" 
 />
    <glyph glyph-name="arrowup" unicode="&#x2191;" 
 />
    <glyph glyph-name="arrowright" unicode="&#x2192;" 
 />
    <glyph glyph-name="arrowdown" unicode="&#x2193;" 
 />
    <glyph glyph-name="arrowboth" unicode="&#x2194;" 
 />
    <glyph glyph-name="arrowupdn" unicode="&#x2195;" 
 />
    <glyph glyph-name="arrowupdnbase" unicode="&#x21a8;" 
 />
    <glyph glyph-name="partialdiff" unicode="&#x2202;" 
 />
    <glyph glyph-name="Delta" unicode="&#x2206;" horiz-adv-x="568" 
d="M323 678l260 -678h-597l257 678h80v0zM238 528l-140 -374q-4 -14 -6.5 -23.5t-2.5 -15.5t3 -11.5t7 -8.5q5 -2 11.5 -3t21.5 -1l264 1l-158 436v0z" />
    <glyph glyph-name="product" unicode="&#x220f;" horiz-adv-x="566" 
d="M-38 667h643v-21h-20q-18 -1 -29 -5.5t-18 -15.5q-5 -8 -7 -20.5t-2 -39.5v-697q0 -47 11.5 -63.5t42.5 -16.5h21v-21h-298v21h19q34 0 45 16t11 64v698q0 47 -11 63t-45 16l-82 1q-18 -1 -29.5 -5.5t-17.5 -15.5q-6 -8 -7.5 -20.5t-1.5 -39.5v-697q0 -47 11 -63.5
t43 -16.5h20v-21h-296v21h18q34 0 45 16t11 64v698q0 47 -11 63t-44 16l-22 1v21v0z" />
    <glyph glyph-name="minus" unicode="&#x2212;" 
 />
    <glyph glyph-name="fraction" unicode="&#x2215;" horiz-adv-x="73" 
d="M147 667h54l-274 -667h-54l274 667v0z" />
    <glyph glyph-name="periodcentered" unicode="&#x2219;" horiz-adv-x="276" 
d="M138 240q-34 -1 -58 26.5t-24 66.5q0 40 24 67.5t58 27.5t58 -27.5t24 -67.5q0 -39 -24 -66.5t-58 -27.5v1z" />
    <glyph glyph-name="radical" unicode="&#x221a;" horiz-adv-x="566" 
d="M552 823v-40h-91l-157 -783h-127l-71 347h-92v40h194l67 -337l155 773h122v0z" />
    <glyph glyph-name="infinity" unicode="&#x221e;" horiz-adv-x="566" 
d="M244 242q-11 -20 -22 -34t-21 -25q-19 -18 -37.5 -26.5t-40.5 -8.5q-58 0 -95 50.5t-37 126.5q0 89 44 148t112 59q44 0 80 -28t67 -87q26 62 58 89t75 27q65 0 107 -54.5t42 -140.5q0 -90 -49 -149.5t-123 -59.5q-46 0 -87.5 29.5t-72.5 82.5v1zM314 385
q11 -23 20 -38.5t17 -27.5q4 -5 7.5 -9.5t7.5 -9.5q14 -18 30 -30.5t32 -20.5q11 -5 21.5 -7.5t20.5 -2.5q34 0 57 28t23 69q0 44 -31.5 67.5t-90.5 23.5q-41 0 -70 -11t-44 -32v1zM218 285l-7 14q-15 28 -28.5 49.5t-27.5 36.5q-16 18 -33.5 26.5t-36.5 8.5
q-31 0 -50.5 -25.5t-19.5 -64.5q0 -38 28 -58t81 -20q33 0 55.5 8t38.5 24v1z" />
    <glyph glyph-name="orthogonal" unicode="&#x221f;" 
 />
    <glyph glyph-name="intersection" unicode="&#x2229;" 
 />
    <glyph glyph-name="integral" unicode="&#x222b;" horiz-adv-x="425" 
d="M286 559v-572v-56.5t-2 -27.5q0 -2 -0.5 -4t-0.5 -4q-9 -71 -56 -109.5t-123 -38.5q-70 0 -112 34t-42 91q0 35 20 59.5t48 24.5t48 -22.5t20 -51.5q0 -11 -3 -22t-9 -18l-9 -13q-1 -2 -2 -4.5t-2 -4.5t-1 -4v-3q0 -13 10 -22t24 -9q23 0 33.5 24t10.5 74v615
q0 43 0.5 59.5t1.5 27.5q0 2 0.5 4t0.5 4q9 71 56 110t123 39q71 0 114 -34.5t43 -90.5q0 -36 -20.5 -60t-49.5 -24q-28 0 -48.5 22t-20.5 52v4t1 4q1 9 4 17t8 15l8 14q1 0 2.5 3t1.5 6q1 1 1 3v3q0 12 -9.5 21t-23.5 9q-10 0 -19 -6t-15 -17q0 -1 -0.5 -1.5l-0.5 -0.5
q-4 -9 -5.5 -19.5t-2.5 -33.5q0 -4 -0.5 -8.5t-0.5 -9.5v-23l-1 -25v0z" />
    <glyph glyph-name="approxequal" unicode="&#x2248;" horiz-adv-x="425" 
d="M381 346l25 -15q-11 -23 -24.5 -42t-30.5 -38l-6 -6t-6 -5q-15 -13 -30.5 -18.5t-35.5 -5.5q-13 0 -29.5 4t-42.5 14l-28 11q-6 1 -13 3l-14 4l-16 2t-15 1q-9 0 -17 -1.5t-15 -5.5t-15 -10.5t-17 -16.5l-9 -8l-24 15q16 28 31 49t30 35q17 16 34 23t36 7h1.5h0.5
q14 0 30.5 -4.5t46.5 -15.5q29 -10 47.5 -14.5t31.5 -4.5q20 0 38.5 10.5t35.5 31.5v1zM381 516l25 -15q-11 -23 -24.5 -42t-30.5 -38l-6 -6t-6 -5q-15 -13 -30.5 -18.5t-35.5 -5.5q-13 0 -29.5 3.5t-42.5 13.5l-28 12q-6 1 -13 3t-14 3q-8 2 -16 3t-15 1q-9 0 -17 -1.5
t-15 -5.5t-15 -10.5t-17 -16.5l-9 -8l-24 14q16 28 31 49t30 35q17 16 34 23t36 7h1.5h0.5q14 0 30.5 -4t46.5 -15q29 -10 47.5 -15t31.5 -5q20 0 38.5 11t35.5 32v1z" />
    <glyph glyph-name="notequal" unicode="&#x2260;" horiz-adv-x="425" 
d="M223 482l52 132l62 -34l-38 -98h121v-78h-153l-29 -75h182v-79h-214l-53 -134l-63 34l40 100h-125v79h157l30 75h-187v78h218v0z" />
    <glyph glyph-name="equivalence" unicode="&#x2261;" 
 />
    <glyph glyph-name="lessequal" unicode="&#x2264;" horiz-adv-x="425" 
d="M32 61h359v-61h-359v61v0zM391 643v-69l-201 -149l201 -162v-183l-359 291v9l359 263v0z" />
    <glyph glyph-name="greaterequal" unicode="&#x2265;" horiz-adv-x="425" 
d="M32 61h359v-61h-359v61v0zM32 80v69l202 149l-202 162v183l359 -295v-9l-359 -259v0z" />
    <glyph glyph-name="house" unicode="&#x2302;" 
 />
    <glyph glyph-name="revlogicalnot" unicode="&#x2310;" 
 />
    <glyph glyph-name="integraltp" unicode="&#x2320;" 
 />
    <glyph glyph-name="integralbt" unicode="&#x2321;" 
 />
    <glyph glyph-name="2500" unicode="&#x2500;" 
 />
    <glyph glyph-name="2502" unicode="&#x2502;" 
 />
    <glyph glyph-name="250c" unicode="&#x250c;" 
 />
    <glyph glyph-name="2510" unicode="&#x2510;" 
 />
    <glyph glyph-name="2514" unicode="&#x2514;" 
 />
    <glyph glyph-name="2518" unicode="&#x2518;" 
 />
    <glyph glyph-name="251c" unicode="&#x251c;" 
 />
    <glyph glyph-name="2524" unicode="&#x2524;" 
 />
    <glyph glyph-name="252c" unicode="&#x252c;" 
 />
    <glyph glyph-name="2534" unicode="&#x2534;" 
 />
    <glyph glyph-name="253c" unicode="&#x253c;" 
 />
    <glyph glyph-name="2550" unicode="&#x2550;" 
 />
    <glyph glyph-name="2551" unicode="&#x2551;" 
 />
    <glyph glyph-name="2552" unicode="&#x2552;" 
 />
    <glyph glyph-name="2553" unicode="&#x2553;" 
 />
    <glyph glyph-name="2554" unicode="&#x2554;" 
 />
    <glyph glyph-name="2555" unicode="&#x2555;" 
 />
    <glyph glyph-name="2556" unicode="&#x2556;" 
 />
    <glyph glyph-name="2557" unicode="&#x2557;" 
 />
    <glyph glyph-name="2558" unicode="&#x2558;" 
 />
    <glyph glyph-name="2559" unicode="&#x2559;" 
 />
    <glyph glyph-name="255a" unicode="&#x255a;" 
 />
    <glyph glyph-name="255b" unicode="&#x255b;" 
 />
    <glyph glyph-name="255c" unicode="&#x255c;" 
 />
    <glyph glyph-name="255d" unicode="&#x255d;" 
 />
    <glyph glyph-name="255e" unicode="&#x255e;" 
 />
    <glyph glyph-name="255f" unicode="&#x255f;" 
 />
    <glyph glyph-name="2560" unicode="&#x2560;" 
 />
    <glyph glyph-name="2561" unicode="&#x2561;" 
 />
    <glyph glyph-name="2562" unicode="&#x2562;" 
 />
    <glyph glyph-name="2563" unicode="&#x2563;" 
 />
    <glyph glyph-name="2564" unicode="&#x2564;" 
 />
    <glyph glyph-name="2565" unicode="&#x2565;" 
 />
    <glyph glyph-name="2566" unicode="&#x2566;" 
 />
    <glyph glyph-name="2567" unicode="&#x2567;" 
 />
    <glyph glyph-name="2568" unicode="&#x2568;" 
 />
    <glyph glyph-name="2569" unicode="&#x2569;" 
 />
    <glyph glyph-name="256a" unicode="&#x256a;" 
 />
    <glyph glyph-name="256b" unicode="&#x256b;" 
 />
    <glyph glyph-name="256c" unicode="&#x256c;" 
 />
    <glyph glyph-name="upblock" unicode="&#x2580;" 
 />
    <glyph glyph-name="dnblock" unicode="&#x2584;" 
 />
    <glyph glyph-name="block" unicode="&#x2588;" 
 />
    <glyph glyph-name="lfblock" unicode="&#x258c;" 
 />
    <glyph glyph-name="rtblock" unicode="&#x2590;" 
 />
    <glyph glyph-name="ltshade" unicode="&#x2591;" 
 />
    <glyph glyph-name="shade" unicode="&#x2592;" 
 />
    <glyph glyph-name="dkshade" unicode="&#x2593;" 
 />
    <glyph glyph-name="filledbox" unicode="&#x25a0;" 
 />
    <glyph glyph-name="filledrect" unicode="&#x25ac;" 
 />
    <glyph glyph-name="triagup" unicode="&#x25b2;" 
 />
    <glyph glyph-name="triagrt" unicode="&#x25ba;" 
 />
    <glyph glyph-name="triagdn" unicode="&#x25bc;" 
 />
    <glyph glyph-name="triaglf" unicode="&#x25c4;" 
 />
    <glyph glyph-name="lozenge" unicode="&#x25ca;" horiz-adv-x="566" 
d="M283 693l221 -360l-221 -359l-221 359l221 360v0zM283 604l-167 -271l167 -270l168 270l-168 271v0z" />
    <glyph glyph-name="circle" unicode="&#x25cb;" 
 />
    <glyph glyph-name="invbullet" unicode="&#x25d8;" 
 />
    <glyph glyph-name="invcircle" unicode="&#x25d9;" 
 />
    <glyph glyph-name="smileface" unicode="&#x263a;" 
 />
    <glyph glyph-name="invsmileface" unicode="&#x263b;" 
 />
    <glyph glyph-name="sun" unicode="&#x263c;" 
 />
    <glyph glyph-name="female" unicode="&#x2640;" 
 />
    <glyph glyph-name="male" unicode="&#x2642;" 
 />
    <glyph glyph-name="spade" unicode="&#x2660;" 
 />
    <glyph glyph-name="club" unicode="&#x2663;" 
 />
    <glyph glyph-name="heart" unicode="&#x2665;" 
 />
    <glyph glyph-name="diamond" unicode="&#x2666;" 
 />
    <glyph glyph-name="musicalnote" unicode="&#x266a;" 
 />
    <glyph glyph-name="musicalnotedbl" unicode="&#x266b;" 
 />
    <glyph glyph-name="apple" unicode="&#xf000;" 
 />
    <glyph glyph-name="fi" unicode="&#xf001;" 
 />
    <glyph glyph-name="fl" unicode="&#xf002;" 
 />
    <glyph glyph-name="degree" horiz-adv-x="425" 
d="M81 509q0 61 38.5 105.5t92.5 44.5t92.5 -44.5t38.5 -106.5q0 -63 -38.5 -107.5t-92.5 -44.5t-92.5 44.5t-38.5 107.5v1zM147 509q0 -32 18.5 -54.5t46.5 -22.5q27 0 46 22.5t19 53.5q0 32 -18.5 54t-46.5 22t-46.5 -22t-18.5 -54v1z" />
    <glyph glyph-name="bullet" horiz-adv-x="510" 
d="M168 286q0 39 23.5 67t57.5 28q35 0 59.5 -28t24.5 -68t-24.5 -68t-59.5 -28q-34 0 -57.5 28t-23.5 68v1z" />
    <glyph glyph-name="endash" 
 />
  </font>
</defs>
</svg>
